<?xml version="1.0" standalone="no"?>
<!DOCTYPE svg PUBLIC "-//W3C//DTD SVG 1.1//EN" "http://www.w3.org/Graphics/SVG/1.1/DTD/svg11.dtd" >
<svg xmlns="http://www.w3.org/2000/svg">
<metadata></metadata>
<defs>
<font id="annie_use_your_telescopeRg" horiz-adv-x="692" >
<font-face units-per-em="2048" ascent="1638" descent="-410" />
<missing-glyph horiz-adv-x="768" />
<glyph horiz-adv-x="2048" />
<glyph horiz-adv-x="2048" />
<glyph unicode="&#xd;" horiz-adv-x="768" />
<glyph unicode=" "  horiz-adv-x="768" />
<glyph unicode="&#x09;" horiz-adv-x="768" />
<glyph unicode="&#xa0;" horiz-adv-x="768" />
<glyph unicode="!" horiz-adv-x="316" d="M26 1263v24v13q0 18 3 25t12 8t25 2t40 9l114 -922q-4 -2 -18 -6t-20 -4q-24 0 -38 9t-21 26t-10 40t-7 49q-2 10 -6 52t-12 104t-16 137t-16 149t-16 140t-12 110l-1 11t-1 24zM121 125q3 31 23 53t47 26t57 -15t54 -73q0 -20 -7 -41t-20 -38t-32 -29t-41 -12 q-48 30 -66 64t-15 65zM204 95q0 -9 4 -15t12 -4q18 4 18 19t-18 21q-8 0 -12 -6t-4 -15z" />
<glyph unicode="&#x22;" horiz-adv-x="432" d="M38 1208q0 26 3 64t16 73t36 60t59 25v-340q-54 0 -84 33t-30 85zM266 1266v38t7 41t21 33t40 14q0 -12 2 -41t3 -61t3 -60t2 -40q0 -4 7 -21t14 -36t13 -36t6 -21q0 -6 -5 -12t-11 -12t-12 -11t-12 -5q-26 34 -42 61t-24 53t-10 53t-2 63z" />
<glyph unicode="#" horiz-adv-x="1104" d="M20 692v36l366 78v358q12 -4 22 -4q8 -4 17 -5t17 -3q4 -2 11 -7t13 -12t11 -13t5 -8v-268h172v308h56l36 -260l312 -8q-2 -4 -8 -14t-13 -21t-14 -19t-9 -10q-16 -4 -53 -12t-79 -16t-80 -15t-52 -9v-232h308v-36l-63 -14t-93 -23t-92 -24t-60 -17q-8 -2 -18 -7t-19 -11 t-15 -12t-6 -8v-346h-76v306h-16t-40 -1t-51 -3t-47 -3t-30 -2t2 -1q-18 -52 -21 -96t0 -80t7 -60t-4 -36t-32 -9t-76 23v232h-250q12 24 49 45t77 36t72 24t34 9q8 42 7 84t-1 79t1 65t13 42h-290zM428 450q6 0 25 1t40 3t39 3t26 3t21 7t25 12t21 12t9 9v258 q-80 0 -123 -21t-61 -62t-20 -98t-2 -127z" />
<glyph unicode="$" horiz-adv-x="960" d="M14 204l38 38q54 -52 107 -67t107 -11t113 15t129 11q0 6 1 19l2 26t1 26v19q0 20 -6 69t-12 104t-12 105t-8 68q-4 32 -34 41t-73 11t-92 3t-90 14t-69 45t-28 96q0 82 32 137t77 97t96 78t88 79t54 99t-5 140q38 24 48 24t13 -24t9 -75t32 -127q24 -12 67 -28t85 -33 t72 -36t30 -39q0 -26 -6 -47t-36 -33q-20 28 -42 43t-45 21t-50 5t-55 -1v-336q76 2 146 -16t123 -57t85 -102t32 -151q0 -52 -32 -114t-81 -116t-106 -92t-109 -44v-268h-78v230q-56 4 -132 8t-150 17t-139 43t-97 86zM166 836q0 -22 11 -40t26 -31t36 -19t39 -6q36 0 65 2 t51 12t34 32t12 60t-3 71t-7 66t-12 68t-20 75q-8 -6 -28 -23t-46 -40t-54 -51t-51 -58t-38 -60t-15 -58zM580 690q0 -126 8 -245t40 -241q4 -2 10 -3t10 -1q30 0 65 34t67 79t53 90t25 69q8 60 -19 101t-70 68t-95 38t-94 11z" />
<glyph unicode="%" horiz-adv-x="700" d="M28 38l538 1152h74l-542 -1176zM104 989v29q0 16 1 33t7 31t18 23t34 9q36 0 49 -25t13 -55q0 -42 -16 -65t-66 -49q-18 6 -26 17t-11 24t-3 28zM490 308q0 6 15 20t23 16q42 12 63 -6t25 -45t-6 -53t-28 -33t-43 13t-49 88z" />
<glyph unicode="&#x26;" horiz-adv-x="1018" d="M66 292q0 50 18 114t47 128t68 118t83 82q-56 192 -56 325t34 219t92 129t118 57q52 0 98 -20t81 -56t54 -81t19 -95q0 -76 -29 -150t-75 -140t-100 -124t-106 -104q-2 -4 -2 -19v-19q0 -54 30 -120t76 -124t102 -96t108 -38q0 62 -2 118t-24 97t-70 64t-140 21v40 q0 10 39 18t92 12t104 6t79 2q8 0 26 1t35 -1t30 -10t17 -28l116 -922l-64 -64l-128 602q-78 -114 -190 -174t-248 -60q-72 0 -132 15t-105 49t-70 90t-25 138zM178 276q2 -58 4 -120q42 -52 110 -73t141 -13t141 40t108 84q-54 24 -114 77t-113 113t-95 115t-62 79 q-54 -40 -79 -88t-34 -102t-7 -112zM332 977q0 -29 4 -56t12 -55t26 -56q36 28 84 70t89 93t70 107t29 112q0 24 -10 58t-29 64t-44 52t-51 22q-66 0 -103 -38t-54 -92t-20 -115t-3 -105v-61zM758 578l78 -114v114h-78z" />
<glyph unicode="'" horiz-adv-x="182" d="M28 1382q0 10 16 24t24 14q50 -32 64 -85t14 -109q0 -12 1 -29t-1 -34t-11 -31t-29 -20q-16 6 -30 44t-25 84t-17 88t-6 54z" />
<glyph unicode="(" horiz-adv-x="452" d="M8 482q0 60 7 143t23 177t43 191t65 186t90 162t120 119q4 2 18 7t18 5v-52q-54 -92 -96 -170t-72 -150t-50 -139t-32 -140t-16 -155t-4 -184q0 -76 12 -149t27 -144t28 -143t13 -146q0 -18 -7 -30t-31 -24q-30 70 -58 149t-50 161t-35 165t-13 161z" />
<glyph unicode=")" horiz-adv-x="460" d="M8 1460q0 8 16 22t24 14q4 0 15 -4t24 -9t24 -12t13 -11q90 -102 144 -211t83 -225t38 -239t9 -251v-117t-3 -142t-13 -151t-32 -144t-58 -124t-92 -88q-22 12 -30 25t-8 35q0 20 8 32t30 24q42 100 67 176t37 145t15 140t3 165q0 134 -12 261t-46 246t-95 230t-161 213z " />
<glyph unicode="*" horiz-adv-x="470" d="M20 728q42 8 68 21t42 27t25 31t21 36t28 39t46 38q28 -8 39 -24t13 -35t2 -37t8 -33t29 -25t69 -10q0 -4 -3 -13t-3 -15q-2 -2 -8 -13t-13 -24t-12 -24t-5 -15t6 -21t13 -36t13 -36t6 -23v-15v-21v-21v-19l-154 116q-6 -12 -19 -28t-31 -31t-39 -25t-39 -10q0 26 -3 64 t-12 74t-30 66t-57 42z" />
<glyph unicode="+" horiz-adv-x="634" d="M14 638l236 14v240q38 12 63 7t39 -22t19 -44t6 -56t-3 -57t-8 -46h230v-60q-68 -6 -121 -15t-89 -36t-51 -78t-9 -141l-18 -1t-39 -2t-38 -2l-17 -1q-2 42 7 73t17 55t9 41t-19 27t-66 15t-132 5z" />
<glyph unicode="," horiz-adv-x="240" d="M32 80q12 24 24 32t32 8q56 0 80 -24t24 -74q0 -62 -26 -100t-96 -72q-2 4 -2 18v20v21t2 17q0 4 7 15t14 24t13 24t6 13q-2 6 -12 19t-22 25t-25 22t-19 12z" />
<glyph unicode="-" horiz-adv-x="778" d="M28 422l40 38q0 2 45 9t115 15t158 16t178 16q8 0 32 1t49 2t48 2t33 1q0 -26 -11 -48t-35 -34q-48 -6 -120 -13t-148 -15t-148 -16t-120 -12q-4 0 -19 -1t-23 -1q-26 0 -44 4t-30 36z" />
<glyph unicode="." horiz-adv-x="296" d="M64 76q-8 30 1 47t25 25t36 9t36 1q14 0 34 -1t36 -9t24 -25t0 -47q-2 -14 -12 -27t-23 -25t-29 -20t-30 -8q-16 0 -32 8t-30 20t-23 25t-13 27z" />
<glyph unicode="/" horiz-adv-x="432" d="M8 38l308 1038q4 12 10 27t15 20t21 -4t30 -43l-324 -1098z" />
<glyph unicode="0" horiz-adv-x="826" d="M70 498q0 38 3 90t12 108t26 110t45 98t68 71t96 27q114 0 200 -43t142 -116t84 -169t28 -202q0 -44 -8 -96t-26 -105t-45 -102t-63 -87t-84 -61t-106 -23q-108 0 -179 47t-114 119t-61 161t-18 173zM150 538q0 -78 4 -154t29 -136t76 -98t145 -38q80 0 136 29t91 78 t50 116t15 143q-10 140 -58 234t-114 142t-138 52t-130 -36t-90 -123t-16 -209z" />
<glyph unicode="1" horiz-adv-x="776" d="M48 998q2 0 26 12t61 27t84 34t93 36t87 31t71 20v-1006q18 -18 53 -21t74 -1l78 4t67 -4l-2 -82q-82 0 -162 -8t-159 -17t-158 -17t-157 -8q-22 0 -28 24t-20 52q38 8 58 11t33 5t23 2t26 2t43 6t77 16q18 54 28 125t16 152t9 167t5 170t6 163t12 143q-2 0 -9 1t-9 1 q-42 0 -81 -18t-77 -39t-77 -39t-83 -18z" />
<glyph unicode="2" horiz-adv-x="968" d="M24 174q0 20 40 28t101 19t132 33t132 71t102 135t41 222q0 58 -10 121t-36 115t-73 87t-121 35q-30 0 -54 -14t-44 -33t-38 -43t-39 -44t-46 -33t-61 -13q0 54 25 101t66 82t92 55t103 20q80 0 145 -40t110 -102t69 -137t24 -147q0 -70 -20 -138t-53 -132t-74 -122 t-85 -108q44 -38 103 -60t121 -34t123 -17t113 -5q2 -2 3 -9t1 -9q0 -22 -16 -35t-38 -19t-46 -7t-40 -1q-54 0 -102 10t-96 27t-98 38t-106 45q-54 -30 -98 -36t-100 -6q-22 0 -49 3t-50 14t-38 30t-15 53zM182 152q6 -8 17 -12t23 -4t22 4t16 12q4 10 -9 14t-29 4t-30 -4 t-10 -14z" />
<glyph unicode="3" horiz-adv-x="826" d="M46 872q0 66 41 118t101 89t130 56t128 19q28 0 54 -17t48 -43t35 -57t13 -57q0 -32 -11 -67t-27 -68t-37 -63t-39 -54q52 -16 107 -45t99 -70t72 -94t28 -115q0 -86 -29 -161t-81 -130t-124 -86t-156 -31q-22 0 -71 1t-100 9t-90 24t-39 46v44q34 0 67 -7t66 -16t67 -16 t70 -7q66 0 129 21t111 61t76 98t28 132q0 52 -24 95t-63 73t-87 47t-94 17h-21t-25 -1t-21 -2t-11 -1q-4 0 -21 -6t-36 -13t-37 -13t-22 -6t-10 4t-13 10t-11 13t-4 11q12 12 46 45t71 69t69 69t44 47q8 10 21 28t25 36t21 33t9 19q-12 64 -45 84t-78 14t-96 -33t-99 -58 t-89 -58t-65 -37z" />
<glyph unicode="4" horiz-adv-x="884" d="M26 722q0 80 8 158t18 157t17 158t7 157q8 0 20 -4t22 -11t18 -16t8 -17v-450q2 0 26 -3t58 -5t73 -3t72 3t56 12t23 26v430q6 0 23 -4t33 -11t28 -15t12 -16v-366h300q-6 -22 -10 -42q-2 -16 -6 -32t-8 -22q-40 -12 -89 -15t-91 -4t-71 0t-31 1l6 -750h-78v730 q-6 0 -24 1t-24 1q-48 0 -98 -8t-99 -16l-98 -16t-101 -8z" />
<glyph unicode="5" horiz-adv-x="844" d="M38 848q0 90 33 137t87 69t123 25t141 3q12 0 37 -1l50 -2t44 -2t23 -1l24 -68q-52 -2 -115 -2t-124 -4t-117 -13t-92 -29v-346q62 36 124 39t128 3q70 0 142 -21t130 -63t96 -103t38 -143q0 -60 -32 -118t-83 -105t-113 -76t-120 -29q-46 0 -105 1t-117 11t-103 34 t-61 72l40 36q72 -24 149 -51t157 -27q48 0 102 20t99 54t76 80t31 98q0 60 -30 108t-76 81t-103 51t-111 18q-44 0 -85 -17t-81 -34t-81 -29t-87 -4q-10 54 -18 97t-12 84t-6 80t-2 87z" />
<glyph unicode="6" horiz-adv-x="874" d="M26 406q6 62 24 158t47 198t69 195t90 149l80 -70q-36 -34 -68 -86t-58 -112t-45 -123t-33 -122t-21 -109t-7 -80q0 -10 6 -50t18 -86t30 -82t44 -36q2 0 9 1t9 1q22 64 50 127t67 112t92 81t127 32q48 0 98 -8t90 -29t66 -60t26 -99q0 -96 -41 -158t-108 -98t-154 -48 t-179 -6q-80 0 -141 38t-102 96t-63 131t-22 143zM340 90q28 0 71 4t90 14t92 27t82 41t60 57t23 75q0 40 -18 64t-45 37t-59 16t-58 3q-72 0 -118 -30t-72 -77t-37 -108t-11 -123z" />
<glyph unicode="7" horiz-adv-x="1134" d="M15 1026q-1 18 2 37t12 34t29 15h812q0 -78 -11 -153t-23 -150t-22 -153t-10 -156h290v-40l-344 -76v-384q-50 -16 -69 20t-19 98t7 134t11 128q-66 0 -119 -10t-119 -26l-24 78l256 78l4 27t11 69t15 97l16 110t16 107t14 88q2 6 -1 14t-3 10q-24 0 -83 3t-126 6t-127 5 t-84 0q-42 -2 -92 -7t-86 -25t-47 -63t21 -123l-7 -3q-7 -3 -15 -6t-15 -6l-7 -3q-26 0 -39 25t-18 59t-5 68v50q0 6 -1 24z" />
<glyph unicode="8" horiz-adv-x="776" d="M38 862q0 66 27 114t72 80t100 47t113 15q18 0 48 -7t64 -21t67 -33t57 -41t33 -47t-5 -49l-154 -268l20 -16t50 -41t66 -56t66 -62t51 -60t21 -47q0 -74 -35 -142t-90 -120t-124 -82t-141 -30q-54 0 -85 20t-47 53t-20 76t-4 91q0 44 13 85t28 79t28 76t13 82q0 2 -1 8 t-1 10q-10 8 -48 39t-78 73t-72 89t-32 85zM114 860q0 -24 23 -54t56 -55t70 -43t63 -18q32 0 64 32t56 75t40 85t16 60q0 36 -19 56t-46 30t-57 12t-54 2q-36 0 -75 -11t-69 -34t-49 -57t-19 -80zM266 164q0 -30 9 -50t30 -30t63 -10t93 24t93 64t72 88t30 94q0 44 -18 80 t-48 62t-69 40t-81 14q-54 0 -88 -31t-53 -77t-26 -99t-7 -97v-72z" />
<glyph unicode="9" horiz-adv-x="720" d="M26 666q0 68 22 128t63 107t98 74t127 27q26 0 72 -5t90 -19t77 -36t29 -58q14 -192 27 -391t13 -395v-21v-30v-29v-18q-48 -16 -69 15t-26 89t-1 135t2 154t-13 146t-47 113q-38 -38 -71 -62t-66 -37t-69 -18t-82 -5q-36 0 -67 6t-56 21t-39 42t-14 67zM104 670 q0 -20 10 -32t25 -18t32 -7t33 -1q38 0 68 6t57 19t57 36t66 55v14t1 17t2 17t1 12q0 66 -38 102t-102 36q-46 0 -85 -24t-67 -61t-44 -83t-16 -88z" />
<glyph unicode=":" horiz-adv-x="314" d="M54 710q0 18 8 30t26 16t48 -2t74 -26q-20 -30 -41 -54t-53 -24q-26 0 -44 18t-18 42zM130 230q0 30 14 54t48 24t48 -25t14 -55q0 -34 -15 -55t-67 -21q-16 0 -24 9t-12 21t-5 26t-1 22z" />
<glyph unicode=";" horiz-adv-x="266" d="M44 462q0 42 16 65t64 49q18 -4 27 -16t13 -27t4 -30v-27q0 -20 -1 -37t-9 -29t-25 -19t-47 -7q-16 0 -24 9t-12 22t-5 25t-1 22zM118 -278q0 4 2 23t4 23t8 15t13 24t13 24t6 15q0 6 -6 29t-13 48t-13 48t-8 29q-2 4 -2 24v24q30 0 54 -19t38 -47t21 -60t7 -58 q0 -24 -10 -48t-27 -45t-39 -35t-48 -14z" />
<glyph unicode="&#x3c;" horiz-adv-x="720" d="M64 326q0 4 1 11t3 7l422 576h46q0 -48 -21 -102t-54 -107t-75 -103t-81 -93t-72 -77t-51 -54v-76q18 -6 51 -21t75 -34t87 -39t87 -40t75 -36t47 -22q6 -4 18 -14t24 -22t23 -24t13 -18q-12 -24 -24 -32t-32 -8q-16 0 -64 22t-110 55t-130 72t-125 76t-95 65t-38 38z " />
<glyph unicode="=" horiz-adv-x="700" d="M102 412v58q50 6 115 15t134 15t139 10t136 4v-80zM110 260q20 6 67 12t104 12t120 9t116 4t90 -3t45 -16v-48l-30 -1t-78 -2t-109 -3t-120 -4t-112 -7t-87 -9q-2 0 -2 9v19t-1 19t-3 9z" />
<glyph unicode="&#x3e;" horiz-adv-x="652" d="M58 920v116q16 -14 49 -41t75 -61t87 -72t87 -71t75 -60t51 -39q18 -14 44 -25t51 -26t43 -34t18 -49q0 -4 -1 -11t-3 -11q-14 -18 -40 -57t-60 -88t-72 -104t-72 -104t-61 -88t-39 -57q-18 -22 -34 -35t-44 -13v86l306 460z" />
<glyph unicode="?" horiz-adv-x="644" d="M0 960q26 40 62 69t78 49t88 30t92 10q36 0 86 -9t97 -30t80 -54t33 -83q0 -52 -34 -108t-79 -106t-95 -90t-82 -62v-180q-36 0 -56 22t-29 53t-11 66t-2 59q0 44 23 74t58 53t76 43t75 43t58 55t24 78q0 32 -22 52t-53 30t-65 13t-56 3q-42 0 -80 -18t-74 -42t-69 -42 t-65 -18q-22 0 -34 9t-24 31zM306 58q0 22 8 34t30 24q24 -12 33 -24t9 -34t-9 -34t-33 -24q-22 12 -30 24t-8 34z" />
<glyph unicode="@" horiz-adv-x="1412" d="M38 512q0 104 29 202t81 187t125 163t160 128t186 84t205 30q66 0 135 -16t132 -46t117 -74t90 -99t51 -122t3 -143q0 -84 -25 -147t-59 -120t-67 -111t-49 -120q-2 -6 2 -18t10 -24t13 -23t13 -13q-56 -68 -112 -113t-117 -72t-131 -38t-156 -11q-118 0 -232 29t-204 91 t-145 160t-55 236zM146 536q-6 -124 37 -212t120 -140t178 -70t205 -4h103t109 11t101 36t77 73q-14 -4 -46 -6t-69 -2t-70 2t-47 6q-8 2 -29 20t-46 39t-48 38t-29 17q-10 0 -44 -10t-73 -24t-72 -27t-43 -15q-32 -8 -59 12t-48 52t-33 69t-12 59q0 64 27 144t73 150 t109 119t135 49q48 0 84 -19t61 -51t37 -73t12 -87q0 -36 -6 -69t-14 -67t-14 -69t-6 -69q0 -20 6 -40t18 -36t30 -26t40 -10q102 0 172 48t115 121t64 162t19 171q0 100 -32 178t-91 133t-141 84t-184 29q-146 0 -270 -58t-214 -155t-141 -222t-51 -261zM400 374 q108 0 176 33t105 92t50 141t13 178q-100 0 -166 -35t-105 -95t-56 -142t-17 -172z" />
<glyph unicode="A" horiz-adv-x="796" d="M42 38q0 6 1 23t1 35t2 34t2 22q12 116 19 235t17 231t27 214t49 185t80 142t120 87q74 0 129 -43t96 -115t69 -166t46 -197t28 -208t14 -197t5 -166t1 -116h-48l-76 422q-10 10 -45 12q-12 1 -25 1q-26 0 -57 -3q-47 -4 -102 -11t-104 -10q-37 -2 -68 -2h-21 q-40 1 -58 13v-422h-102zM192 530q98 0 200 15t192 31q2 8 3 26t2 40t2 42t1 26q0 66 -7 126t-28 117t-60 107t-105 94q-52 0 -87 -37t-57 -96t-34 -131t-16 -141t-5 -128t-1 -91z" />
<glyph unicode="B" horiz-adv-x="980" d="M38 1076q6 66 49 99t99 45t116 12h102q70 0 129 -7t103 -32t70 -71t26 -126q0 -40 -3 -71t-11 -60t-24 -62t-42 -75q82 -26 136 -49t84 -56t41 -80t11 -121q0 -88 -38 -166t-101 -136t-147 -91t-178 -33q-20 0 -54 7t-74 18t-82 26t-76 33t-55 36t-21 36v846q-8 2 -19 12 t-20 22t-15 24t-6 20zM190 744q0 -16 2 -33t7 -30t17 -22t32 -9q68 0 140 26t131 72t98 109t39 141q0 8 -4 23t-18 31t-42 31t-75 25t-117 12h-24q-62 0 -146 -8q-4 -4 -9 -26t-10 -55t-8 -72l-6 -78t-5 -75t-2 -62zM208 245q2 -43 24 -77t72 -59t138 -35q74 0 147 27 t130 74t93 112t36 143q0 52 -18 88t-48 59t-71 33t-87 10q-58 0 -104 -3t-91 -12t-92 -26t-107 -43q1 -16 1 -32q0 -33 -5 -68q-8 -52 -14 -100q-4 -36 -4 -69v-22z" />
<glyph unicode="C" horiz-adv-x="872" d="M26 518q0 62 13 139t39 156t65 154t90 134t116 95t143 36q56 0 95 -22t63 -58t35 -81t11 -91q-44 0 -66 27t-41 60t-44 60t-75 27q-66 0 -117 -36t-89 -93t-63 -129t-40 -144t-21 -139t-6 -113q-4 -36 -4 -74q0 -33 3 -67q7 -73 33 -134t76 -102t132 -47q52 0 116 17 t127 40t121 50t98 47v-78q-2 0 -25 -9t-60 -23t-84 -30t-93 -33t-89 -32t-73 -25q-2 0 -8 -1t-10 -1q-110 0 -181 47t-113 122t-58 168t-16 183z" />
<glyph unicode="D" horiz-adv-x="1076" d="M38 1076q0 18 16 28t36 12t39 2h23q6 0 17 -1t24 -2t23 -2t14 -1q66 -24 151 -56t175 -74t176 -95t154 -120t110 -147t42 -178q0 -84 -32 -151t-85 -116t-123 -84t-143 -56t-147 -31t-138 -10q-14 0 -48 1t-70 3t-65 3t-31 1l-4 74l-76 922q-4 4 -10 14t-12 23t-11 24 t-5 17zM190 992q0 -12 1 -27t1 -27v-18q2 -30 5 -96t6 -150t8 -175t9 -174t7 -150t3 -99q12 0 39 -1t57 -2t57 -2t39 -1q92 0 182 23t161 70t116 122t45 181q0 78 -36 149t-95 131t-135 108t-157 83t-162 53t-151 18v-16z" />
<glyph unicode="E" horiz-adv-x="1008" d="M28 1076q32 46 85 79t118 55t140 34t147 18t140 8t120 2q4 0 18 -1t30 -2t29 -1h19q8 -44 -9 -61t-44 -20t-57 2t-44 1q-20 -2 -63 -11t-95 -20t-111 -24t-112 -24t-95 -21t-62 -14q-32 -12 -36 -30t-4 -42q0 -42 5 -94t12 -103t14 -93t9 -62q8 -2 30 -2h30q46 0 90 8 t88 18t90 17t94 7v-74q-20 0 -56 -3t-79 -11t-87 -17t-80 -19t-59 -20t-23 -20v-416q94 0 187 6t187 13t188 13t188 6q0 -24 -16 -39t-37 -24t-45 -13l-36 -6q-8 -2 -50 -6t-104 -12t-138 -16t-150 -16t-140 -15t-110 -11q-6 -2 -18 -2q0 268 -17 541t-81 537z" />
<glyph unicode="F" horiz-adv-x="824" d="M28 1112q2 8 12 20t22 25t24 23t20 10q24 6 75 19t115 29t135 32t136 31t116 27t75 16q10 2 33 4t49 4t49 4t31 2q0 -38 -9 -55t-26 -23t-39 -6t-50 -6q-20 -6 -66 -18t-102 -27t-119 -31t-120 -32t-102 -29t-67 -19q-30 -34 -34 -62t-4 -66q0 -86 11 -163t27 -169 q4 0 11 -1t11 -1q54 0 105 13t102 29t104 29t109 13q8 0 27 -1t37 -6t28 -13t4 -22l-516 -156v-548q-36 0 -56 9t-28 26t-10 40t-4 53q-4 34 -10 106t-13 163t-15 191t-16 191t-14 163t-8 106q-6 2 -14 12t-14 22t-10 24q-3 8 -3 13q0 3 1 5z" />
<glyph unicode="G" horiz-adv-x="1124" d="M38 400q0 94 19 198t56 207t92 198t129 167t166 115t204 43q42 0 100 -9t111 -30t89 -60t36 -99q0 -22 -21 -21t-52 15t-70 36t-75 42t-66 34t-46 10q-96 0 -174 -37t-141 -99t-110 -143t-78 -169t-46 -175t-15 -165q-5 -34 -5 -64q0 -55 16 -99q25 -69 75 -114t120 -67 t145 -25h22q64 0 127 14q74 17 135 51t100 84t45 112q0 64 -25 108t-66 74t-94 48t-108 28t-110 14t-101 10v36q0 4 53 14t126 22t151 24t132 18l10 1t22 1h24h20h15h23t23 -1t15 -1q2 -28 5 -89t7 -136t8 -159t8 -159t7 -135t5 -90v-30t1 -47t1 -46v-31h-42l-76 308 q-78 -40 -138 -64t-116 -37t-113 -17t-131 -4q-98 0 -176 23t-133 70t-85 120t-30 177zM844 632l116 -78v122q-30 0 -62 -15t-54 -29z" />
<glyph unicode="H" horiz-adv-x="772" d="M44 -4v28v65v86v91v80v56q0 144 1 272t6 253t13 254t22 279h58v-768h436q-2 72 -2 155t-2 168t-3 166t-1 153v126v84q6 0 21 -3t30 -8t27 -14t12 -23v-1498l-62 12q-4 0 -6 26t-3 65t-2 90t-2 100t-2 93t-1 74v76t-2 110l-438 -78l-4 -570h-96z" />
<glyph unicode="I" horiz-adv-x="200" d="M28 1382v24q0 24 17 39t41 15h10h10q10 -168 18 -319t13 -297t7 -291t2 -303q0 -22 3 -60t6 -74t6 -65t3 -31l-86 -16q-4 82 -8 189t-7 228t-6 250t-8 255t-10 243t-11 213z" />
<glyph unicode="J" horiz-adv-x="902" d="M38 308q0 26 3 46t35 30q34 -14 50 -43t27 -65t20 -74t27 -68t52 -47q25 -13 63 -13q14 0 29 2q104 10 176 37t119 67t74 94t40 120t16 143t3 165q0 90 -13 178t-28 175t-28 174t-13 175q0 10 1 17t10 10q5 2 13 2q5 0 11 -1q15 -2 43 -12q2 -2 9 -27t15 -63t16 -84 t15 -92t13 -87t8 -69q8 -120 20 -244q10 -106 10 -207v-33q-2 -116 -25 -215t-83 -170t-166 -108q-80 -28 -194 -28q-37 0 -78 3q-60 0 -113 27t-92 71t-62 100t-23 114z" />
<glyph unicode="K" horiz-adv-x="950" d="M64 990q-1 35 -1 66q0 62 3 108v57v87t1 87t1 57h54l2 -41t5 -110t7 -162t9 -198t10 -216t10 -216t9 -199t8 -164v-13t-1 -26t-2 -27t-1 -18q0 -18 -1 -29t-8 -19t-24 -13t-45 -9q-2 26 -6 105t-9 187t-9 234t-7 246t-5 226zM182 644v84l538 732h76l-422 -616 q34 -8 82 -33t94 -57t83 -69t49 -71l192 -586q-12 0 -23 -4t-22 -7q-7 -2 -12 -2q-4 0 -8 1q-9 2 -13 12l-192 548q-58 98 -120 135q-59 35 -113 35h-6q-57 -2 -105 -34t-78 -68z" />
<glyph unicode="L" horiz-adv-x="980" d="M48 1344h76l76 -1268q178 0 357 23t367 43l8 -66q-2 0 -37 -5t-92 -12t-129 -15l-144 -16t-138 -16t-114 -12q-2 0 -10 -1t-18 -1h-20h-16q-44 0 -72 47t-46 128t-26 186t-12 219q-3 91 -3 184v46q1 116 1 219t-1 187t-7 130z" />
<glyph unicode="M" horiz-adv-x="960" d="M70 1316q14 0 27 2t23 3h4q8 0 14 -3q8 -4 14 -18l270 -608l230 576q4 10 15 17t24 13t27 9t24 3q2 0 2 -6t4 -42t13 -113t29 -218t51 -358t79 -535q-8 -18 -21 -24q-10 -4 -18 -4h-6q-11 2 -20 9t-11 19l-152 1074l-232 -576h-76l-192 384v-882l-88 -12q-4 70 -7 176 t-6 229t-5 253t-4 250t-5 220t-7 162z" />
<glyph unicode="N" horiz-adv-x="1066" d="M26 1225q-1 34 -1 59.5t1 43.5q0 24 18 40t42 16t55 -11t41 -29l720 -1162q0 92 -5 198t-9 218t-5 225v37q0 93 4 183q5 107 20 203t43 174q28 10 44 11h10q9 0 14 -1q8 -2 9 -10t1 -16v-12v-10q-4 -12 -9 -44t-13 -95t-14 -163t-12 -248t-9 -352q-2 -122 -2 -269 q0 -98 1 -207l-58 -4l-768 1190q0 -6 -1 -26t-1 -41v-40v-25q0 -130 6 -260t14 -261t14 -263t6 -264l-72 4q-2 38 -7 106t-12 157t-15 191t-17 207t-15 207t-11 189t-7 154z" />
<glyph unicode="O" horiz-adv-x="884" d="M36 664q0 66 9 140t30 145t54 136t80 114t110 78t143 29q70 0 124 -39t94 -102t66 -143t43 -161t23 -156t6 -129q-8 -118 -34 -217t-71 -174t-111 -123t-160 -64q-90 0 -154 32t-110 84t-74 120t-43 142t-20 149t-5 139zM112 664q0 -48 2 -108t11 -121t27 -120t49 -104 t78 -73t113 -28q16 -1 31 -1q75 0 127 25q62 30 100 92t58 150t32 200q0 44 -4 110t-15 138t-30 145t-50 132t-74 95t-103 36q-62 0 -112 -29t-89 -76t-68 -107t-47 -123t-27 -124t-9 -109z" />
<glyph unicode="P" horiz-adv-x="776" d="M38 1036v10v18v20v16q0 64 49 111t119 76t146 44t130 15t109 -18t97 -51t65 -84q17 -38 17 -84q0 -16 -2 -33q-10 -102 -67 -180t-140 -131t-180 -80t-187 -27q0 -74 6 -147t13 -147t13 -147t6 -147q0 -22 -4 -41t-36 -29l-40 38q0 2 -6 56t-17 140t-24 195t-25 219 t-23 212t-19 176zM150 1028q0 -42 1 -78t6 -70t13 -70t22 -82q62 10 148 38t165 76t133 111t54 141q0 42 -20 75t-51 55t-69 34t-74 12q-58 0 -117 -14t-106 -44t-76 -76t-29 -108z" />
<glyph unicode="Q" horiz-adv-x="1076" d="M50 476q0 70 17 158t50 181t81 182t111 158t138 111t163 42q60 0 117 -46t106 -117t89 -157t69 -170t45 -152t16 -102q0 -74 -11 -138t-35 -123t-61 -114t-87 -111q8 -12 25 -45t35 -70t34 -69t22 -46q2 -4 4 -19t2 -19h-84l-114 192q-80 -7 -159 -7h-20q-89 1 -171 16 t-151 48t-121 87t-81 135t-29 195zM128 476q0 -90 31 -165t86 -127t129 -81t160 -29h42t57 4t52 17t23 39q0 58 -29 104t-64 89t-64 84t-29 89h68l230 -306q42 30 71 73t48 92t27 101t8 100q0 84 -21 165t-55 153t-75 133t-80 108t-70 75t-45 36q-122 -30 -215 -107 t-157 -180t-96 -225t-32 -242z" />
<glyph unicode="R" horiz-adv-x="1036" d="M-34 996q0 50 30 97t78 86t107 70t119 53t114 34t92 12q56 0 106 -4t87 -23t59 -59t22 -108q0 -62 -22 -121t-56 -113t-76 -103t-84 -91q94 -58 152 -117t94 -118t55 -118t30 -121t22 -126t31 -130h-76q-8 36 -20 95t-31 128t-46 139t-65 127t-87 93t-115 36 q-26 0 -68 -4t-82 -13t-70 -25t-30 -38v-508q-8 0 -24 4t-32 11t-28 15t-12 18v998q-24 -4 -42 -21t-29 -41t-17 -48t-8 -44q-8 0 -22 9t-26 21t-21 25t-9 23zM236 640q48 0 100 24t103 65t99 92t84 105t58 108t22 96q0 46 -15 73t-41 42t-60 19t-72 4q-14 0 -39 -1t-57 -5 t-63 -12t-58 -22t-44 -33t-17 -47v-508z" />
<glyph unicode="S" horiz-adv-x="980" d="M26 860q0 72 36 139t92 119t125 83t137 31q56 0 117 -14t113 -43t85 -76t33 -113q-48 0 -88 27t-80 57t-84 57t-102 27q-48 0 -97 -24t-88 -62t-64 -85t-25 -97q0 -20 1 -43t9 -44t25 -35t49 -14h538q34 0 59 -21t42 -53t28 -72t18 -78t9 -71t2 -51q0 -78 -22 -147 t-66 -124t-110 -90t-152 -43q-17 -2 -38 -2q-31 0 -71 4q-67 6 -135 23t-128 48t-88 79q10 24 31 30t45 -30q0 -4 19 -11t48 -16t68 -18t77 -16t74 -12t62 -5q68 0 125 29t98 75t63 105t22 121q0 18 -6 63t-20 90t-37 81t-55 36q-172 -20 -293 -20q-25 0 -48 1 q-133 5 -211 31t-109 71t-33 103z" />
<glyph unicode="T" horiz-adv-x="768" d="M6 1086l32 104q2 2 31 5t77 8t108 11t123 12t124 12t113 12h18h40h42h26q48 0 66 -18t18 -78l-364 -42q-1 -42 -1 -85q0 -87 5 -179q8 -138 20 -279t23 -279t11 -264q0 -18 -11 -25t-26 -9q-6 -1 -12 -1q-9 0 -19 2q-16 3 -28 7q-6 26 -12 90t-12 150t-12 186l-12 200 t-12 191t-10 160t-7 107t-5 28z" />
<glyph unicode="U" horiz-adv-x="1036" d="M45 859v12q0 143 23 281l78 -8q-12 -144 -12 -268q0 -95 7 -177q17 -189 55 -315t88 -192t96 -76q68 0 121 36t94 94t70 132t47 150t26 147t8 123q0 68 -4 121t-13 105t-20 107t-25 127l98 72q46 -290 79 -497t57 -346t38 -222t23 -130t12 -66t3 -31h-82l-116 462 q-80 -202 -158 -312t-152 -147q-42 -21 -82 -21q-30 0 -58 12q-66 28 -121 103t-94 189t-62 250t-24 285z" />
<glyph unicode="V" horiz-adv-x="1058" d="M28 1304l60 60l642 -1134l220 1190h64l-218 -1382l-48 -50z" />
<glyph unicode="W" horiz-adv-x="1228" d="M28 1460q6 0 20 3t20 3q40 0 53 -17t23 -67l230 -1038l154 500q8 24 23 32t35 8q16 -16 46 -59t65 -100t73 -122t73 -123t63 -105t44 -67q6 -10 21 -27t33 -35t36 -34t26 -20q-2 66 -6 157t-8 197t-5 221v38q0 96 4 190q5 113 17 218t32 193q4 14 11 21t16 9t24 1t33 -1 q0 -22 -2 -53t-6 -88t-8 -153t-9 -248t-9 -371t-8 -523q-86 68 -160 152t-140 179t-129 194t-127 195q-6 -22 -19 -70t-30 -108t-36 -126t-37 -126t-32 -107t-20 -67q-4 -20 -12 -43t-18 -35t-22 -6t-24 44z" />
<glyph unicode="X" horiz-adv-x="980" d="M36 1304q17 7 34 7q14 0 28 -5q30 -10 52 -40q12 -16 36 -52t55 -81t64 -96t63 -96l54 -81l36 -54l230 498q33 8 53 8q15 0 24 -4q21 -10 18 -37t-25 -68t-53 -92t-64 -106t-60 -112t-41 -108q-9 -32 -9 -62q0 -17 3 -33q38 -68 95 -144t117 -155t116 -159t94 -158 q2 -2 2 -7t-7 -11t-23 -12t-48 -6l-404 562l-268 -852l-58 58l270 884z" />
<glyph unicode="Y" horiz-adv-x="908" d="M8 1460l40 36q74 -80 129 -147t99 -126t80 -113t75 -109t85 -112t108 -121q12 56 23 125t23 143t26 151t32 148t39 133t49 106q2 2 9 2h11q6 0 17 -2t21 -7t16 -13q4 -5 4 -10q0 -4 -2 -8q-22 -46 -45 -124t-44 -175t-39 -210t-33 -229t-27 -231t-18 -215q-5 -86 -5 -158 v-24q1 -82 9 -132q-4 -22 -7 -33t-13 -17t-30 -7t-56 -1v672q-30 44 -81 108t-109 139t-120 155t-115 155t-93 140t-58 111z" />
<glyph unicode="Z" horiz-adv-x="1316" d="M28 1304l40 40l41 4t107 11t150 15t169 17t164 16t137 13q2 0 19 1t23 1h20t28 -4t23 -12t1 -24l-246 -538h264q14 -32 4 -52t-34 -32t-61 -17t-77 -9t-78 -8t-66 -10q-38 -66 -76 -140t-71 -150t-58 -155t-39 -155q4 0 16 -1l24 -2t23 -1h15q98 0 192 16t189 34t190 34 t197 16v-78q-112 0 -220 -21t-215 -47t-214 -47t-217 -21q-12 0 -30 3t-32 10t-24 17t-10 28v10t2 10l208 640l-318 -22l30 94l342 48l276 468h-23t-35 1t-35 1h-23q-78 0 -155 -6t-155 -14t-155 -14t-155 -6q-24 0 -42 4t-30 34z" />
<glyph unicode="[" horiz-adv-x="596" d="M60 1364v24q0 66 23 101t61 51t87 18t101 2q18 0 34 1t31 -2t27 -12t20 -27q2 -8 3 -18t5 -18q0 -12 4 -22h-268q-2 -38 -7 -109t-11 -167t-12 -208t-11 -232t-7 -238t1 -226t12 -198t25 -152h308q22 0 30 -20t8 -36v-11v-9q-20 -4 -62 -10t-92 -13t-103 -12t-93 -5 q-26 0 -44 3t-28 37q-4 34 -6 110t-4 178t-5 222t-6 244t-6 244t-5 222t-5 178t-5 110z" />
<glyph unicode="\" horiz-adv-x="902" d="M-16 1304h102q8 -12 57 -79t143 -211t235 -374t333 -564l-38 -76z" />
<glyph unicode="]" d="M16 1572q36 32 71 35t81 3q42 0 77 -2t70 -6t74 -12t87 -18q6 -32 14 -101t18 -163t20 -205t21 -225t21 -226t19 -206t16 -163t9 -101q0 -2 1 -17t2 -34t1 -38v-29q0 -70 -11 -107t-42 -53t-84 -20t-137 -8v76q14 -6 42 -5t59 7t57 15t34 21l1 9t2 22l2 26t1 21 q0 10 -1 27t-2 35t-2 33t-1 19q-4 48 -11 123t-13 167t-15 193t-16 200t-14 190t-12 161t-10 115t-5 49l-40 114q-6 0 -31 1t-60 4t-78 7t-84 13t-75 22t-56 31z" />
<glyph unicode="^" horiz-adv-x="596" d="M46 1148l268 364q36 -36 63 -78t51 -88t48 -94t54 -96q0 -14 -6 -19t-17 -8t-24 -6t-29 -11q-26 44 -41 70t-27 49t-29 49t-49 72q-26 -34 -52 -62t-50 -55t-49 -55t-53 -62z" />
<glyph unicode="_" horiz-adv-x="902" d="M62 52l24 58l720 6v-78q-20 6 -73 4t-123 -4t-150 -6t-156 -3t-140 5t-102 18z" />
<glyph unicode="`" horiz-adv-x="506" d="M176 1236l56 72q36 -36 55 -65t33 -58t30 -63t46 -82q0 -14 -6 -19t-17 -8t-24 -6t-29 -11q-26 44 -40 70t-27 48t-30 49t-47 73z" />
<glyph unicode="a" d="M38 172q0 114 63 166t165 52q40 0 75 -2t67 -10t63 -24t65 -46q0 6 1 25t1 41v41v27q-2 36 -2 93t-9 117t-36 114t-87 82q-42 0 -78 -14t-72 -30t-72 -29t-78 -13q0 50 31 83t75 51t92 24t84 6q36 -6 67 -14t58 -32t50 -73t40 -137t30 -223t21 -331q1 -4 1 -8 q0 -21 -18 -37q-21 -19 -57 -32t-81 -22t-91 -13t-88 -6t-70 -2q-36 0 -73 12t-68 35t-50 56t-19 73zM123 170q5 -36 47 -65t102 -38q19 -3 40 -3q43 0 90 13q70 19 134 75q-24 58 -48 89t-52 47t-62 20t-76 4q-100 -28 -140 -67q-36 -35 -36 -67q0 -4 1 -8z" />
<glyph unicode="b" horiz-adv-x="750" d="M28 1304h78q8 -72 17 -159t15 -178t8 -182q1 -30 1 -59q0 -58 -3 -112q32 28 59 49t54 37t54 24t63 8q72 0 132 -35t102 -92t65 -126t23 -135q-4 -112 -46 -179t-111 -103t-162 -42q-40 -3 -81 -3q-55 0 -114 5v94q36 -32 66 -37t72 -5q66 0 120 20t93 57t60 89t21 114 q0 54 -6 96t-27 76t-61 65t-108 61q-4 2 -18 3t-20 1q-32 0 -64 -19t-58 -48t-44 -64t-26 -65q-4 -24 -11 -85t-16 -131t-15 -132t-10 -86l-62 12z" />
<glyph unicode="c" horiz-adv-x="750" d="M38 342q0 74 24 164t70 167t114 129t158 52q13 2 25 2q29 0 49 -11q28 -15 43 -47t20 -73t6 -84q0 -22 0.5 -41.5t-0.5 -38.5q-1 -37 3 -61h-50q-2 12 -7 57t-17 93t-33 86t-59 38q-56 0 -105 -44t-85 -106t-58 -128t-22 -110q2 -50 14 -109t39 -107t71 -78 q31 -21 73 -21q17 0 35 3q48 0 92 20t86 42t85 42t91 20q0 -52 -38 -91t-93 -63t-116 -36t-103 -12q-68 0 -125 28t-99 75t-65 110t-23 133z" />
<glyph unicode="d" horiz-adv-x="668" d="M6 290q0 54 18 119t52 120t82 91t112 36q48 0 85 -9t70 -30t62 -50t61 -67l-12 1026q45 17 62 17q3 0 5 -1q13 -4 13 -34q0 -4 -1 -12t-1 -10q-2 -38 -3 -108q0 -35 -0.5 -75.5t0.5 -86.5q1 -92 3 -199t4 -216t5 -216t4 -199q0 -46 0.5 -87t-0.5 -76q-1 -71 -3 -107 q-22 -46 -61 -70t-84 -35t-93 -13t-90 -2q-134 0 -212 79t-78 215zM86 344q0 -50 8 -99t28 -87t56 -61t92 -23h82t92 11t74 35t30 68q0 52 -15 119t-46 128t-78 104t-111 43q-42 0 -80 -22t-67 -56t-47 -76t-18 -84z" />
<glyph unicode="e" horiz-adv-x="674" d="M47 354v17q0 51 5 99q0 60 26 133t71 136t102 106t119 43q34 0 67 -14t64 -37t56 -52t39 -61q15 -34 15 -65q0 -28 -17 -49l-422 -78q-8 -2 -14 -19t-10 -43t-7 -57t-5 -60t-2 -52v-35q0 -56 27 -91t69 -53t95 -24t105 -6t98 4t76 4q0 -8 -6 -18t-14 -19t-16 -16t-10 -9 q-16 -4 -49 -11t-70 -13t-69 -10t-44 -4q-29 -6 -54 -6q-29 0 -54 8q-46 14 -78 48t-52 83t-30 105t-11 116zM188 626q22 -3 45 -3q31 0 63 5q56 8 102 25t76 40q29 22 29 45q0 25 -38 45q-37 19 -123 29q-18 0 -47 -19t-54 -48t-42 -62q-13 -24 -13 -44q0 -7 2 -13z" />
<glyph unicode="f" horiz-adv-x="746" d="M20 576l270 116q-29 233 -29 406q0 50 2 95q11 201 58 324t124 180t171 71q74 0 141 -29t118 -79t82 -116t31 -140q-32 0 -59 21t-51 53t-48 69t-53 69t-63 53t-80 21q-40 -8 -79 -33t-72 -71t-59 -117t-40 -175t-15 -245v-15q0 -136 17 -308l248 2q6 -26 7 -45t-29 -31 q-22 -8 -56 -15t-69 -12t-65 -8t-42 -5q-1 -31 -1 -62q0 -60 3 -117q4 -85 6 -162q1 -31 1 -60q0 -44 -2 -84q-3 -67 -21 -129h-11h-19h-19h-9q-8 0 -17 -2t-16 -3h-3q-5 0 -8 2q-4 3 -4 15q18 128 24 212q5 72 5 127v18q-1 61 -3 108q-1 23 -1 48t1 51q-26 0 -56 -12 t-62 -27t-63 -27t-57 -12q-10 0 -13 8t-5 20t-3 25t-7 27z" />
<glyph unicode="g" horiz-adv-x="710" d="M-244 -474q0 54 18 82t84 28q-6 -28 -15 -56t-16 -52t-6 -38t15 -10q64 -42 140 -60t150 -18q112 2 193 46t134 114t82 161t36 188q3 36 3 72q0 61 -8 123q-12 98 -38 180q-34 -38 -69 -80t-75 -75t-85 -55t-101 -22q-58 0 -87 20t-39 55q-9 32 -9 73v8q1 46 1 98 q0 48 3 108t14 121t30 120t51 106t80 75t114 28q42 0 81 -7t72 -25t57 -48t38 -76q8 -90 20 -195t20 -218t8 -227t-15 -220t-50 -199t-98 -164t-157 -114t-226 -47q-56 0 -118 7t-114 28t-85 60t-33 105zM138 258q-1 -9 -1 -19q0 -18 3 -37q4 -28 17 -48t43 -22q48 0 89 22 t74 60t58 85t42 97t26 97t9 83q3 21 3 41q0 18 -2 35q-5 38 -23 68t-48 49t-72 19q-48 0 -84 -27t-60 -69t-38 -95t-21 -106t-10 -102t-3 -81q0 -22 -2 -50z" />
<glyph unicode="h" horiz-adv-x="690" d="M54 1382l66 -10l52 -656q14 12 36 36t52 45t66 36q32 13 68 13h10q82 -8 131 -66t74 -142t33 -183q6 -72 6 -139q0 -25 -1 -50q-3 -90 -10 -160t-11 -96l-72 10q0 18 1 57t3 92t2 111t1 109q0 26 0.5 48.5t-0.5 42.5q-1 40 -3 56v9q0 51 -22 99q-24 52 -64 79 q-30 20 -69 20q-13 0 -27 -2q-56 -9 -120 -79q-56 -84 -82 -165t-34 -160q-6 -63 -6 -129v-33q1 -42 1 -85.5t-1 -89.5l-78 12q6 22 9 81t5 142t3 185q0 51 0.5 103.5t-0.5 107.5q-1 109 -3 219t-5 210t-6 184t-5 138z" />
<glyph unicode="i" horiz-adv-x="290" d="M18 1134q0 14 2 31t9 31t18 24t27 10q24 0 48 -2t46 -9t36 -22t14 -43q0 -48 -36 -85t-88 -37q-40 0 -58 31t-18 71zM128 1114q0 -10 6 -10q8 0 8 10t-8 10q-6 0 -6 -10zM134 776q24 0 41 2h3q15 0 26 -20q6 -90 14 -183t16 -187t11 -189q2 -57 2 -112q0 -37 -1 -73 q0 -12 -6 -15t-17 -2t-26 2t-33 -3z" />
<glyph unicode="j" horiz-adv-x="422" d="M-448 -630q0 20 3 34t12 16t25 -9t40 -43q0 -26 37 -42t85 -25t97 -11t71 -2q98 0 167 35t114 94t66 138t21 165q0 124 -17 239t-45 230t-64 234t-72 251q-10 42 -10 69q0 12 2 21q6 30 21 39t34 3t31 -18q34 -126 68 -259t64 -271t48 -278t18 -276q0 -94 -24 -183 t-75 -157t-127 -110t-182 -42q-48 0 -118 2t-135 17t-110 46t-45 93zM1 1229q1 35 1 65q26 0 56 -7t56 -22t43 -38t17 -55q0 -78 -82 -78q-38 0 -58 20t-27 50q-6 26 -6 56v9zM86 1173q0 -9 6 -9q8 0 8 9t-8 9q-6 0 -6 -9z" />
<glyph unicode="k" horiz-adv-x="774" d="M26 1484q28 0 50 -11t36 -37q4 -42 9 -119t11 -177t13 -214t13 -226q6 10 12 18t8 10q22 24 52 56t63 66t66 67l60 60t45 43t22 16l76 -38q-34 -30 -78 -70t-86 -85t-81 -94t-63 -97q0 -2 -1 -9t-1 -11q0 -2 1 -9t1 -9l462 -538q0 -2 1 -8t1 -10q0 -38 -40 -58l-500 576 q-2 2 -5 7t-7 11l22 -388q0 -10 1 -38t2 -61t2 -62t1 -39q-26 0 -48 11t-34 37q-2 42 -9 129t-15 196t-16 231t-15 231t-13 196t-8 129q-2 18 -3 63t-3 96t-3 96t-1 63z" />
<glyph unicode="l" horiz-adv-x="290" d="M82 1392q0 8 1 32t2 49t2 48t1 33q28 -4 49 -15t33 -39q0 -38 3 -105t6 -155t7 -190t8 -206t7 -206t6 -190t5 -156t4 -104q0 -4 -1 -14t-2 -24t-2 -27t-1 -19q-2 -12 -2 -29t-4 -33t-13 -29t-29 -15l-34 42q-2 2 -5 75t-8 190t-9 264t-9 297t-9 288t-6 238z" />
<glyph unicode="m" horiz-adv-x="1124" d="M38 728v27v25q24 0 52 -12t40 -48q16 68 49 110t76 58q33 12 68 12q11 0 22 -1q47 -5 88 -29t72 -62t43 -88q22 62 59 115t82 89t94 50q24 7 46 6q24 0 46 -7q43 -15 76 -64t47 -141q4 -26 10 -77t13 -115t16 -135t16 -135t13 -115t10 -75q0 -20 -2 -44t-9 -41t-22 -22 q-3 -1 -6 -1q-14 0 -39 18q0 24 -6 78t-12 125t-15 150t-18 149t-15 124t-12 76q-30 92 -63 128q-30 32 -59 32h-7q-33 -4 -63 -42t-54 -96t-45 -129t-32 -141t-14 -132q-1 -14 -1 -27q0 -44 8 -75l-78 -16q1 46 1 88q0 133 -14 227q-19 123 -52 189t-75 79q-13 4 -25 4 q-29 0 -58 -21q-41 -30 -75 -100t-51 -169q-14 -80 -14 -177q0 -23 1 -46q4 -124 42 -266h-76l-5 38t-12 97t-15 134t-16 152t-16 148t-14 121z" />
<glyph unicode="n" horiz-adv-x="810" d="M28 837v11q30 24 51 16t35 -35t20 -67t9 -80t3 -73v-47q4 34 12 80t24 94t39 95t57 83t77 56q36 17 81 17q9 0 18 -1q88 -4 145 -48t90 -118t48 -170t20 -204q4 -77 3 -156v-63q-2 -111 -2 -213q-18 -4 -36 -13q-16 -8 -28 -8h-2q-12 1 -17 18q-2 7 -2 18q0 18 5 49 q2 36 7 111q4 62 4 137v30q-1 92 -11 190t-37 179t-77 132t-130 51q-82 -34 -137 -128t-88 -220t-48 -273t-17 -287q-4 2 -15 2t-24 1t-24 3t-13 4q-4 32 -7 93t-6 138t-5 161t-4 160t-5 137t-9 93q0 2 -1 10t-2 18t-1 17z" />
<glyph unicode="o" horiz-adv-x="742" d="M48 366q0 46 8 107t26 123t45 122t65 107t88 76t112 29q64 0 119 -44t94 -114t59 -156q17 -72 17 -141q0 -14 -1 -27q0 -120 -46 -214t-117 -152t-152 -78q-32 -8 -62 -8q-47 0 -90 19q-71 31 -118 117t-47 234zM122 358q6 -122 42 -188t87 -87q26 -11 55 -11q27 0 56 10 q60 20 112 71t89 128t41 173q1 15 1 30q0 56 -12 110q-15 68 -42 121t-66 84t-89 31q-48 0 -86 -24t-69 -65t-53 -93t-37 -104t-22 -101t-7 -85z" />
<glyph unicode="p" horiz-adv-x="908" d="M28 556q0 68 42 125t104 98t132 64t128 23q92 0 167 -31t128 -85t82 -126t29 -154v-8q0 -99 -47 -182q-49 -86 -128 -147t-176 -92q-77 -25 -152 -25q-20 0 -39 2q2 -29 2 -61q0 -48 -4 -104q-6 -93 -16 -203t-25 -233t-31 -253q0 -2 -12 -2t-25 3l-26 6t-15 1 q14 166 22 336q6 136 6 273v68q-2 171 -18 339t-50 330q-8 -6 -22 -4t-26 7t-21 14t-9 21zM182 594q4 -20 11 -58t16 -86t18 -100t18 -100t16 -87t11 -59q24 4 68 8t94 16t103 33t99 59t81 95t47 141q0 78 -28 134t-76 93t-113 54t-137 17q-38 -2 -82 -11t-78 -27t-54 -48 q-15 -23 -15 -54q0 -10 1 -20z" />
<glyph unicode="q" d="M26 368q0 48 9 103t29 110t49 106t67 89t86 61t104 23t102 -18t79 -51t52 -82t19 -109q0 -100 -9 -199t-19 -198t-19 -199t-9 -200q-4 -23 -4 -44q0 -47 18 -88q26 -60 69 -105t94 -72t93 -33q-8 -6 -25 -12t-35 -12t-35 -10t-21 -4q-40 4 -80 24t-73 52t-55 72t-22 82 v538q-34 -30 -63 -53t-59 -38t-61 -23t-69 -8q-56 0 -95 29t-66 74t-39 96t-12 99zM104 386q0 -26 8 -66t24 -77t42 -64t62 -27q68 0 123 38t92 96t56 125t19 125q0 34 -6 77t-25 82t-51 66t-82 27q-40 0 -75 -24t-64 -62t-52 -84t-38 -91t-24 -83t-9 -58z" />
<glyph unicode="r" horiz-adv-x="612" d="M26 715v39v26q24 10 42 4t30 -22t18 -37t10 -41q26 44 75 71t105 36q36 6 72 6l40 -2q56 -5 95 -24t55 -52q6 -13 6 -28q0 -22 -14 -49q-52 30 -109 48q-43 14 -84 14q-14 0 -27 -2q-54 -6 -100 -41t-76 -111t-37 -201q-2 -28 -2 -60q0 -107 19 -251h-76l-3 33t-6 87 t-8 120t-9 134t-7 131t-7 109q0 6 -1 24t-1 39z" />
<glyph unicode="s" horiz-adv-x="788" d="M34 590q0 78 33 127t85 78t116 41t130 12q30 0 69 -3t72 -16t56 -41t23 -78q-4 -34 -11 -41t-20 4t-31 31t-43 39t-60 29q-18 5 -37.5 5t-41.5 -5q-46 0 -92 -9t-83 -31t-60 -60t-23 -96q0 -30 27 -41t72 -11t102 3t117 3t116 -9t99 -36t67 -77q19 -40 19 -99 q0 -15 -1 -31q0 -58 -33 -110t-84 -91t-113 -61q-49 -17 -95 -17q-13 0 -25 1q-24 2 -65 13t-80 31t-67 49t-28 69q36 0 67 -14t61 -31t61 -30t67 -13q42 0 87 15t83 42t62 66t24 85q2 14 1 34t-13 41t-40 40t-81 29t-133 11h-10q-77 0 -188 -15q-30 0 -58 17t-50 42t-36 54 t-14 55z" />
<glyph unicode="t" horiz-adv-x="760" d="M26 824l282 20q6 70 8 100t1 51t-2 48t-1 85q38 6 62 6q9 0 17 -1q27 -3 37 -15t9 -35t-6 -57t-8 -82q-1 -16 -1 -33q0 -35 4 -75l240 8v-98q-16 0 -50 -2t-73 -4t-72 -4t-49 -8q-16 -72 -34 -154t-24 -162q-2 -30 -2 -58q0 -47 6 -91q10 -69 50 -114t114 -62 q28 -6 63 -6q57 0 133 17q-4 -30 -23 -49t-44 -30t-53 -16t-50 -5q-102 0 -162 37t-90 97t-38 137q-6 56 -6 114q0 22 1 43q3 80 11 158t8 142q-18 6 -49 5t-66 -4t-67 -7t-54 -4q-10 0 -13 29t-9 79z" />
<glyph unicode="u" horiz-adv-x="916" d="M38 776q0 10 13 20t32 16t37 8t26 -6q12 -248 47 -395t80 -215t97 -69h2q51 0 100 44q50 45 93 123t70 168t33 180q1 19 1 38q0 67 -17 122l120 14q2 -30 11 -99t20 -156t25 -181t24 -175t18 -138t8 -71h-86l-94 346q-28 -70 -68 -134t-87 -112t-99 -75q-44 -23 -87 -23 q-8 0 -16 1q-51 5 -99 47t-89 133t-71 235t-44 354z" />
<glyph unicode="v" horiz-adv-x="796" d="M20 884l62 62l440 -800l188 774q14 -6 30 -9t29 -6t21 -7t8 -14q-26 -128 -49 -240t-49 -218t-56 -213t-70 -223h-78z" />
<glyph unicode="w" horiz-adv-x="1134" d="M28 920l52 54l332 -744l152 490l386 -528q18 98 23 197q4 82 4 165v33q-1 99 -2 201v29q0 87 5 175l86 -32v-254v-175t-1 -115t-2 -76t-5 -59t-10 -60t-14 -81t-20 -126q-62 48 -120 120t-109 144t-97 133t-84 89l-186 -474z" />
<glyph unicode="x" horiz-adv-x="788" d="M20 920l38 40l308 -346l192 384l78 -56l-196 -424v-9t2 -9q26 -36 75 -101t101 -135t95 -136t55 -102l-76 -38l-288 396q-24 -16 -51 -65t-54 -108t-49 -113t-36 -82l-80 22l158 438z" />
<glyph unicode="y" horiz-adv-x="768" d="M20 862q44 40 70 45t30 1q14 -20 47 -74t76 -126t91 -152t91 -152t74 -128t43 -78l92 742l100 -50l-216 -1716l-90 6q0 100 18 206t37 212t32 212q7 60 7 119q0 45 -4 89z" />
<glyph unicode="z" horiz-adv-x="960" d="M28 884q2 0 41 5t100 13t136 18t149 18t140 15t110 9l-178 -440l190 14l4 -94l-280 -20l-116 -330q97 -4 193 -4q48 0 96 1q143 3 289 3v-66q-6 0 -48 -2t-108 -6t-144 -8t-156 -7t-147 -3t-111 4l142 418h-110l-8 90l190 10l164 322l-528 -34z" />
<glyph unicode="{" horiz-adv-x="596" d="M20 460q22 64 55 115t64 102t52 108t21 135q0 42 -6 81t-14 78t-15 79t-7 80q0 54 27 102t69 83t94 56t104 21q14 0 33 -2t34 -10t25 -21t10 -35q-40 0 -95 -10t-104 -34t-84 -62t-35 -94q0 -42 7 -84t16 -84t16 -84t7 -86q0 -52 -14 -96t-29 -87t-29 -85t-14 -90 q0 -8 1 -22t3 -14q36 -92 55 -155t33 -110t25 -84t33 -75t59 -83t101 -109q6 -8 6 -20t-6 -24t-16 -21t-20 -11q-72 0 -116 25t-69 67t-37 97t-21 114t-20 116t-33 105t-61 82t-105 46z" />
<glyph unicode="|" horiz-adv-x="290" d="M58 1526q0 2 1 18t2 35l2 38t1 29v28t8 44t26 33t54 -3l1 -53t3 -144t3 -214t3 -261t5 -285t4 -287t3 -266t2 -224q0 -18 -3 -31t-12 -21t-24 -13t-43 -5q-2 2 -3 51t-3 133t-5 196t-6 238t-6 260t-6 260t-4 241t-3 203z" />
<glyph unicode="}" d="M16 1320q0 44 29 74t71 49t87 27t75 8q66 0 114 -26t78 -69t45 -98t15 -113q0 -72 -9 -141t-18 -129t-15 -109t2 -83q64 -66 97 -148t48 -171t19 -182t8 -183q0 -54 -15 -99t-46 -78t-78 -51t-111 -18v46q54 14 86 30t49 39t21 51t4 64q0 28 -7 82t-19 122t-29 141 t-35 136t-36 112t-34 67q16 172 17 289t-8 192t-26 116t-37 61t-41 25t-37 11q-36 0 -68 -6t-64 -15t-64 -16t-68 -7z" />
<glyph unicode="~" horiz-adv-x="622" d="M86 1004q0 94 30 132t98 38q38 -18 63 -43l46 -46t38 -33t37 -4t46 41t62 103q12 0 27 -10t15 -30q-32 -82 -63 -123t-59 -52t-56 1t-54 34t-50 46t-48 42q-22 16 -35 5t-23 -34t-18 -50t-16 -43t-18 -13t-22 39z" />
<glyph unicode="&#xa1;" horiz-adv-x="316" d="M64 8v-22.5v-12.5q0 -17 2.5 -23.5t10.5 -7t22.5 -1.5t36.5 -9l103 860q-3 2 -16 6t-18 4q-22 0 -34.5 -8.5t-19 -24.5t-9 -37.5t-6.5 -45.5q-2 -9 -5.5 -48.5t-11 -97t-14.5 -127.5t-14.5 -139t-14.5 -131t-11 -103l-1 -10v-22zM149.5 1069q2.5 -29 21 -49.5t42.5 -24 t51.5 14t49.5 68.5q0 18 -6.5 38t-18.5 35.5t-29 27t-37 11.5q-44 -28 -60 -60t-13.5 -61zM225 1097.5q0 8.5 3.5 14t10.5 3.5q17 -4 17 -18t-17 -19q-7 0 -10.5 5.5t-3.5 14z" />
<glyph unicode="&#xa2;" horiz-adv-x="750" d="M38 342q0 68 19 148t57 153t95 129t131 74l4 86v27t8 43t26 33t56 -1v-49v-131q36 0 59 -21t34 -53t15 -71t5 -79t0 -74t3 -56h-50q-2 10 -5 41t-10 68t-18 75t-31 62q2 -132 3 -301t3 -351q32 14 63 32t62 34t64 27t69 11q0 -40 -24 -73t-61 -57t-82 -39t-91 -25 q0 -12 1 -25t1 -27q-2 -18 -6 -21t-14 0t-27 8t-41 5q-6 4 -6 52q-68 0 -125 28t-99 75t-65 110t-23 133zM114 386q2 -50 14 -109t39 -107t71 -78t108 -18h2q-2 54 -3 129t-1 164t-2 190t-4 209q-48 -16 -89 -63t-71 -104t-47 -115t-17 -98z" />
<glyph unicode="&#xa3;" horiz-adv-x="980" d="M25 558q1 16 9 46q2 2 10 4t34 4q14 2 38 2q-10 150 0 250q16 128 57 189t93 77t108 -4t100 -51t68 -66t14 -50t-63 0t-163 81q-42 24 -67 -6t-36 -98t-13 -166q0 -70 4 -148q34 4 80 8q18 2 43 5t49 2t43 -5t26 -14t-3 -25t-44 -39q-48 -6 -78 -9t-57 -4t-55 -3 q6 -96 14 -194q12 -112 24 -210q90 40 173 53t159 7t146 -27t134 -53l-12 -72q-22 12 -71 21t-112 14t-133 6t-135 -5t-117 -19t-80 -33q-68 300 -90 504h-16q-12 -2 -24 -3t-14 -1q-12 0 -23 1t-16 8t-4 23z" />
<glyph unicode="&#xa4;" horiz-adv-x="888" d="M46 -34l132 198q-16 38 -24 88t-8 114q0 36 5 81t15 94t28 97t40 94l-116 188l38 40l128 -144q38 50 89 82t117 32q46 0 86 -23t74 -63l78 98l80 -58l-98 -132q36 -66 53 -146t13 -158q0 -114 -42 -208q46 -66 83 -123t49 -91l-78 -38l-112 156q-48 -58 -108 -95 t-122 -48t-120 8t-100 71q-38 -44 -65 -79t-35 -55zM214 372q4 -122 41 -188t89 -87t112 -1t112 71t88 128t42 173q0 72 -13 140t-41 121t-67 84t-89 31q-48 0 -87 -25t-69 -65t-52 -92t-37 -104t-22 -101t-7 -85z" />
<glyph unicode="&#xa5;" horiz-adv-x="698" d="M-22 1476l36 38l396 -746q18 82 48 184t66 206t77 197t81 161q4 2 10 2h10q6 0 17 -2t22 -7t17 -12t0 -19q-24 -52 -66 -138t-84 -195t-77 -234t-49 -255v-72q46 2 94 4t92 2v-80l-190 -8v-130q82 2 143 0t73 -16v-48l-17 -1t-47 -2t-69 -2t-83 -1l-2 -264q-2 -22 -5 -33 t-14 -17t-30 -7t-53 -1v316q-66 -2 -123 -7t-95 -9q-2 0 -2 8v19t-1 20t-3 11q26 6 87 14t137 14v132l-232 -8v58q48 6 107 12t125 14v78q-32 44 -69 110t-75 142t-76 158t-72 159t-61 143t-43 112z" />
<glyph unicode="&#xa6;" horiz-adv-x="290" d="M86 987q0 65 1 122t2 108t-1 109q0 8 1 32t2 49t2 48t1 33q28 -4 49 -15t33 -39q2 -80 9 -229t15 -375l-112 6q-2 86 -2 151zM100 772l96 4q4 -96 7 -187t6 -169t4 -139t3 -93q0 -4 -1 -14t-2 -24t-2 -27t-1 -19q-2 -12 -2 -29t-4 -33t-13 -29t-29 -15l-34 42q-2 2 -4 64 t-6 164t-9 233t-9 271z" />
<glyph unicode="&#xa7;" horiz-adv-x="794" d="M62 924q0 76 33 126t85 80t117 41t131 11q30 0 68 -3t72 -17t56 -41t22 -77q-2 -34 -10 -41t-20 3t-31 31t-44 39t-60 28t-77 2q-48 0 -99 -9t-90 -32t-61 -61t-10 -96q8 -36 40 -51t80 -19t106 0t116 4t112 -6t93 -30t60 -70t13 -124q0 -22 -11 -50t-27 -55t-35 -53 t-37 -44q26 -12 46 -26t33 -36t19 -54t4 -76q0 -58 -37 -103t-92 -74t-121 -41t-122 0q-26 4 -60 17t-71 31t-73 40t-62 47t-40 50t-8 49q36 0 79 -25t86 -56t86 -55t79 -24q42 0 91 6t92 21t71 45t28 74q-2 12 -2 27t-8 33t-27 40t-61 48q-42 -20 -86 -25t-86 -11 q-56 -6 -111 9t-99 47t-71 76t-27 94t31 101t105 99q-4 0 -9 -1t-11 -1q-30 0 -58 16t-50 41t-36 54t-14 57zM170 520q0 -18 27 -46t81 -46t135 -14t187 52q38 28 62 66t24 84q-2 76 -66 113t-162 29q-48 0 -99 -15t-93 -45t-69 -75t-27 -103z" />
<glyph unicode="&#xa8;" horiz-adv-x="694" d="M92 1088q-6 30 2 46t24 24t36 10t36 2t35 -2t35 -10t24 -24t0 -46q-6 -28 -34 -54t-60 -26q-16 0 -32 7t-29 19t-22 26t-15 28zM388 1088q-8 30 1 46t25 24t36 10t36 2q14 0 34 -2t36 -10t24 -24t0 -46q-2 -14 -12 -28t-23 -26t-29 -19t-30 -7q-34 0 -62 26t-36 54z" />
<glyph unicode="&#xa9;" horiz-adv-x="1040" d="M46 548q-2 90 20 187t72 180t134 141t204 68q86 -2 159 -35t131 -87t103 -125t72 -149t39 -161t6 -159q-12 -140 -63 -240t-125 -163t-164 -93t-182 -32q-90 0 -154 31t-110 84t-74 121t-43 142t-20 149t-5 141zM122 548q0 -50 3 -110t12 -122t26 -120t48 -103t78 -73 t115 -28q94 -14 179 2t153 66t113 137t57 211q8 50 -1 116t-35 137t-66 140t-91 124t-111 88t-124 33q-90 -10 -157 -66t-111 -131t-66 -157t-22 -144zM254 452q0 60 22 138t60 147t92 116t114 47q34 6 56 -9t35 -44t21 -66t12 -74t6 -69t4 -52l-62 -16q0 10 -3 46t-12 75 t-24 69t-41 30q-40 0 -73 -35t-60 -85t-42 -104t-15 -90q2 -38 11 -85t28 -86t50 -62t75 -13q34 0 64 15t60 33t60 33t64 15q0 -42 -27 -76t-66 -58t-82 -38t-73 -14q-48 0 -94 28t-81 72t-57 100t-22 112z" />
<glyph unicode="&#xaa;" horiz-adv-x="448" d="M22 353q0 64 40.5 93.5t106.5 29.5q26 0 48.5 -1t43 -5.5t40.5 -14t41 -25.5q0 3 1 13.5t1 23v23.5v15q-2 20 -2 52.5t-5.5 66t-23 64t-55.5 46.5q-27 0 -50.5 -8t-46.5 -17t-46 -16.5t-50 -7.5q0 29 20 47.5t48 28.5t59 13.5t54 3.5q23 -4 43 -8.5t37.5 -18t32 -41 t25.5 -77t19.5 -125.5t13.5 -187q3 -14 -10.5 -25t-37 -18t-52.5 -12t-58.5 -7.5t-56.5 -3.5t-45 -1q-23 0 -46.5 6.5t-43.5 19.5t-32.5 31.5t-12.5 41.5zM77 352q3 -20 30 -36.5t65.5 -21.5t83.5 5.5t86 42.5q-15 32 -30.5 49.5t-33.5 26.5t-39.5 11.5t-48.5 2.5 q-65 -16 -90.5 -38t-22.5 -42z" />
<glyph unicode="&#xab;" horiz-adv-x="952" d="M64 326q0 4 1 11t3 7l422 576h46q0 -48 -21 -102t-54 -107t-75 -103t-81 -93t-72 -77t-51 -54v-76q18 -6 51 -21t75 -34t87 -39t87 -40t75 -36t47 -22q6 -4 18 -14t24 -22t23 -24t13 -18q-12 -24 -24 -32t-32 -8q-16 0 -64 22t-110 55t-130 72t-125 76t-95 65t-38 38z M308 388q0 4 1 10t3 8l422 576h48q0 -50 -22 -104t-55 -106t-74 -102t-81 -93t-73 -78t-49 -53v-78q16 -6 49 -21t75 -33t88 -39t87 -40t74 -35t47 -24q6 -2 18 -12t24 -23t22 -24t14 -17q-12 -24 -24 -32t-32 -8q-16 0 -64 22t-110 55t-130 72t-125 75t-95 65t-38 39z" />
<glyph unicode="&#xac;" horiz-adv-x="776" d="M64 598q64 -18 144 -10t163 22t166 23t157 -9q-6 -58 -7 -87t1 -57t6 -68t6 -120q-16 -22 -40 -18t-52 4v88v170l-540 -38z" />
<glyph unicode="&#xad;" horiz-adv-x="778" d="M28 422l40 38q0 2 45 9t115 15t158 16t178 16q8 0 32 1t49 2t48 2t33 1q0 -26 -11 -48t-35 -34q-48 -6 -120 -13t-148 -15t-148 -16t-120 -12q-4 0 -19 -1t-23 -1q-26 0 -44 4t-30 36z" />
<glyph unicode="&#xae;" horiz-adv-x="1036" d="M52 560q0 66 9 139t30 144t54 136t80 114t110 79t143 30q82 20 157 -8t137 -88t110 -144t78 -178t39 -189t-7 -173q-12 -142 -63 -242t-125 -163t-164 -93t-182 -32q-88 0 -153 31t-110 84t-73 121t-44 142t-21 149t-5 141zM128 560q0 -48 3 -109t12 -123t26 -120 t48 -103t78 -73t115 -28q94 -14 179 2t153 66t113 137t57 213q14 54 6 132t-33 159t-64 160t-91 139t-115 92t-133 22q-62 0 -112 -28t-89 -76t-68 -108t-48 -123t-28 -123t-9 -108zM252 706q0 38 37 72t86 60t101 41t84 15q30 0 60 -8t54 -25t40 -42t16 -61q0 -30 -10 -59 t-28 -56t-39 -51t-41 -44q74 -44 110 -85t52 -82t23 -84t23 -91l-68 -12q-8 24 -19 73t-32 97t-55 83t-86 35q-14 0 -38 -3t-47 -9t-40 -15t-17 -19v-228q-4 0 -16 -1t-25 -3t-22 -1t-9 5l8 514q-28 -6 -34 -29t-6 -43q-6 0 -16 7t-20 17t-18 19t-8 13zM418 512q38 0 81 26 t81 63t63 79t25 76q0 44 -29 56t-71 12q-12 0 -37 -2t-49 -8t-44 -18t-20 -32v-252z" />
<glyph unicode="&#xaf;" horiz-adv-x="902" d="M62 972l24 56l720 6v-76q-20 4 -73 3t-123 -3t-150 -6t-156 -3t-140 5t-102 18z" />
<glyph unicode="&#xb0;" horiz-adv-x="460" d="M18 519q0 27 5.5 63.5t17.5 74t30.5 73t44 64t59 45.5t75.5 17q43 0 79.5 -26t63 -68t40 -93.5t10.5 -100.5q0 -72 -31 -128t-78.5 -91t-102 -47t-102.5 7t-79.5 70t-31.5 140zM68 514q4 -73 28 -112.5t58.5 -52t75 -0.5t75.5 42.5t59.5 76.5t27.5 104q3 43 -7 83.5 t-28.5 72t-44.5 50t-60 18.5q-32 0 -57.5 -14t-46.5 -38.5t-35.5 -56t-25 -62.5t-15 -60t-4.5 -51z" />
<glyph unicode="&#xb1;" horiz-adv-x="654" d="M30 558l236 14v240q34 12 64 12t44 -12l6 -220h232v-88q-70 -6 -130 -11t-102 -5l-8 -196q10 0 20 1t22 3q8 0 32 1t50 2t49 2t33 1q0 -28 -12 -50t-36 -34q-96 -10 -183 -15t-183 -13q-4 0 -20 -1t-24 -1q-26 0 -44 4t-28 38l38 36q2 4 42 6t130 10q-2 32 -3 54t-1 42 v42t-2 52h-206z" />
<glyph unicode="&#xb2;" horiz-adv-x="644" d="M22 372q0 12 26.5 17t66.5 11.5t87 20t87.5 43t67.5 82t27 135.5q0 35 -6.5 73.5t-24 70t-48.5 53t-80 21.5q-19 0 -35 -8.5t-29.5 -20.5t-25 -26.5t-25.5 -26.5t-30.5 -20t-40.5 -8q0 33 16.5 61.5t43.5 50t61 33.5t68 12q53 0 96 -24.5t72.5 -62t45.5 -83t16 -89.5 q0 -43 -13 -84t-35 -80t-49 -74.5t-56 -65.5q29 -23 68 -36.5t80 -21t81 -10.5t75 -3q1 -1 1.5 -5.5t0.5 -5.5q0 -13 -10.5 -21t-25 -11.5t-30.5 -4t-26 -0.5q-36 0 -67.5 6t-63.5 16t-65 23t-70 28q-35 -19 -64.5 -22.5t-66.5 -3.5q-14 0 -32 2t-33 8.5t-25 18t-10 32.5z M126 358q4 -4 11.5 -6.5t15.5 -2.5t14.5 2.5t10.5 6.5q2 7 -6.5 9t-19 2t-19.5 -2t-7 -9z" />
<glyph unicode="&#xb3;" horiz-adv-x="522" d="M38 830q0 41 24.5 73.5t60.5 56t77.5 35t76.5 11.5q17 0 32.5 -10.5t29 -27t21 -35.5t7.5 -36q0 -20 -6.5 -41.5t-16 -42.5t-22 -39.5t-23.5 -33.5q31 -10 64 -28.5t59.5 -44t43 -58.5t16.5 -72q0 -54 -17.5 -101t-48.5 -81.5t-74 -54t-94 -19.5q-13 0 -42 1t-60 6 t-54 15t-23 29v27q20 0 40 -4.5t39.5 -10t40 -10t41.5 -4.5q40 0 78 13.5t66.5 38.5t45.5 61t17 83q0 32 -14.5 59t-38 46t-52 29.5t-56.5 10.5h-12.5t-15 -0.5t-13 -1.5t-6.5 -1q-2 0 -12 -3.5t-21.5 -8t-22.5 -8t-13 -3.5q-3 0 -6.5 2.5t-7.5 6t-6.5 8t-2.5 6.5 q7 8 27.5 28.5t42.5 43t41.5 43.5t26.5 29q5 7 12.5 18t15 22.5t12.5 20.5t5 12q-7 40 -26.5 52.5t-46.5 8.5t-57.5 -20.5t-59.5 -36t-53.5 -36.5t-38.5 -23z" />
<glyph unicode="&#xb4;" horiz-adv-x="362" d="M42 1034q70 90 108 146l57 84t25 33t11 -3t17 -25t44 -31q-26 -36 -52 -63t-51 -54t-49 -56t-52 -61z" />
<glyph unicode="&#xb5;" horiz-adv-x="916" d="M38 776q0 10 13 20t32 16t37 8t26 -6q12 -248 47 -395t80 -215t97 -69t102 44t93 123t70 168t33 180t-16 160l120 14q2 -30 11 -99t20 -156t25 -181t24 -175t18 -138t8 -71h-86l-94 346q-26 -66 -67 -126t-89 -104t-102 -68t-107 -22t-103 37t-90 109l-12 -232l-25 -5 t-28 -4t-23 4t-8 23q0 32 3 91t6 133t3 158v164t-5 150t-13 118z" />
<glyph unicode="&#xb6;" horiz-adv-x="744" d="M20 630q0 272 272 272h90t98 -2t103 -9t103 -23q6 -110 12 -169t9 -90t4 -48t2 -45t1 -82v-160q0 -22 2 -60t5 -74t5 -64t2 -30l-84 -18q-4 82 -6 143t-4 114t-4 101t-4 106t-6 129t-10 169q-8 0 -16 2t-17 2t-17 4v-8v-8q6 -94 12 -170t11 -149t7 -151t2 -176v-19 t-1 -29t-1 -30v-18q-48 -14 -68 6t-24 63t1 101t5 120t-11 121t-47 103q-40 -42 -71 -66t-61 -36t-63 -17t-79 -5q-36 0 -64 16t-47 43t-30 63t-11 78z" />
<glyph unicode="&#xb7;" horiz-adv-x="344" d="M117 459q3 31 22 54t46 26t58 -16t55 -71q0 -22 -7 -43t-20 -38t-32 -28t-41 -11q-48 28 -66 62t-15 65zM200 431q0 -9 3 -16t13 -5q18 6 18 21t-18 19q-10 2 -13 -4t-3 -15z" />
<glyph unicode="&#xb8;" horiz-adv-x="648" d="M184 -76q-10 60 7 97t37 40t29 -31t-19 -118q0 -30 25 -37t62 -5t81 5t81 -8t62 -44t25 -103q0 -44 -20 -77t-52 -54t-71 -29t-77 -2q-16 0 -44 9t-54 24t-46 39t-20 54q24 0 45 -10t42 -24t42 -24t45 -10q28 -4 62 11t61 40t39 54t-5 49t-71 28t-160 -6q-18 0 -38 12 t-35 33t-24 44t-9 43z" />
<glyph unicode="&#xb9;" horiz-adv-x="516" d="M33 800q1 0 16.5 6.5t39.5 14.5t54 18.5t59.5 19.5t56 17t46.5 11v-546q11 -10 33.5 -11.5t47.5 -0.5t50.5 2t43.5 -2l-2 -45q-52 0 -103.5 -4.5t-102.5 -9l-102 -9t-101 -4.5q-14 0 -18 13t-13 28q25 5 37.5 6.5t21 2.5t15 1t16.5 1t27.5 3t49.5 9q12 29 18.5 67.5 t10.5 82.5t5.5 91t3 92.5t4 88.5t7.5 78q-1 0 -5.5 0.5t-5.5 0.5q-27 0 -52 -10t-49.5 -21.5t-50 -21t-53.5 -9.5z" />
<glyph unicode="&#xba;" horiz-adv-x="460" d="M18 519q0 27 5.5 63.5t17.5 74t30.5 73t44 64t59 45.5t75.5 17q43 0 79.5 -26t63 -68t40 -93.5t10.5 -100.5q0 -72 -31 -128t-78.5 -91t-102 -47t-102.5 7t-79.5 70t-31.5 140zM68 514q4 -73 28 -112.5t58.5 -52t75 -0.5t75.5 42.5t59.5 76.5t27.5 104q3 43 -7 83.5 t-28.5 72t-44.5 50t-60 18.5q-32 0 -57.5 -14t-46.5 -38.5t-35.5 -56t-25 -62.5t-15 -60t-4.5 -51z" />
<glyph unicode="&#xbb;" horiz-adv-x="964" d="M58 920v116q16 -14 49 -41t75 -61t87 -72t87 -71t75 -60t51 -39q18 -14 44 -25t51 -26t43 -34t18 -49q0 -4 -1 -11t-3 -11q-14 -18 -40 -57t-60 -88t-72 -104t-72 -104t-61 -88t-39 -57q-18 -22 -34 -35t-44 -13v86l306 460zM330 958v116q14 -14 47 -42t75 -61t88 -71 t88 -72t75 -61t49 -39q18 -14 45 -25t51 -25t42 -33t18 -51v-10t-2 -10q-14 -18 -40 -58t-61 -89t-72 -103t-71 -104t-61 -89t-41 -57q-16 -20 -32 -34t-44 -14v88l306 460z" />
<glyph unicode="&#xbc;" horiz-adv-x="1260" d="M42 795q1 0 16 6t38 13.5t52 17.5t58 18.5t54.5 15.5t43.5 10v-509q11 -9 33 -10.5t46 -0.5t48.5 2t41.5 -2l-1 -42q-51 0 -100.5 -4t-99 -8.5t-98.5 -8.5t-97 -4q-14 0 -17.5 12t-12.5 26q23 4 35.5 6t20.5 3t14.5 1t16.5 1t26.5 3t47.5 8q12 27 18 63t10 77t5.5 84.5 t3 86t4 82.5t7.5 72q-2 0 -6 0.5t-5 0.5q-27 0 -51 -9t-47.5 -19.5t-48 -19.5t-51.5 -9zM294 44l216 1042q3 12 7.5 27t10.5 20t14.5 -4t21.5 -43l-228 -1102zM460 394q0 43 6 86t13 86t12 86.5t5 86.5q5 0 13.5 -2.5t15.5 -6t12.5 -8.5t5.5 -10v-246q2 0 19 -1.5t40.5 -3 t51 -2t51 2t39.5 6.5t16 14v236q4 0 16 -2t23.5 -6t20 -8.5t8.5 -8.5v-201h211q-4 -12 -7 -23q-1 -9 -4 -17.5t-6 -11.5q-28 -7 -62.5 -8.5t-64 -2t-50 0t-21.5 0.5l4 -411h-55v400q-4 0 -17 0.5t-17 0.5q-34 0 -69 -4.5t-69.5 -9t-69 -8.5t-71.5 -4z" />
<glyph unicode="&#xbd;" horiz-adv-x="1324" d="M72 834q2 0 17 6.5t38 15t53 19t59 20t54.5 17.5t44.5 11v-562q12 -10 34 -11.5t46.5 -0.5l49 2t42.5 -2l-1 -46q-52 0 -102.5 -4.5t-100.5 -9.5t-99.5 -9.5t-98.5 -4.5q-14 0 -18 13.5t-13 28.5q24 5 36.5 6.5t21 2.5t15 1t16.5 1.5t27 3.5t48 9q12 30 18 69.5t10 85 t6 93.5t3 95t3.5 91t7.5 80q-1 0 -5.5 0.5t-5.5 0.5q-27 0 -51.5 -10t-48.5 -21.5t-48.5 -22t-52.5 -10.5zM416 26l308 1038q4 12 10 27t15 20t21 -4t30 -43l-324 -1098zM468 84q0 13 26 18t65.5 12t85.5 21.5t86 46t66.5 87t26.5 142.5q0 37 -6.5 78t-23.5 74.5t-47.5 56 t-78.5 22.5q-20 0 -35.5 -9t-28.5 -21.5t-24.5 -28t-25.5 -28.5t-30 -21t-39 -8q0 34 16 64.5t42.5 53t60 35.5t67.5 13q52 0 94 -26t71.5 -66t45 -88t15.5 -94t-13 -89.5t-34.5 -84.5t-48 -78.5t-55.5 -69.5q29 -25 67 -39t78.5 -22t80 -11t73.5 -3q2 -1 2.5 -5.5t0.5 -6.5 q0 -14 -10.5 -22.5t-25 -12t-30 -4.5t-25.5 -1q-35 0 -66.5 6.5t-62.5 17.5t-63.5 24.5t-69.5 29.5q-35 -20 -63.5 -23.5t-64.5 -3.5q-15 0 -32.5 2t-32.5 9t-24.5 19t-9.5 34zM570 70q4 -5 11.5 -7.5t15 -2.5t14 2.5t10.5 7.5q3 6 -5.5 8.5t-19 2.5t-19.5 -2.5t-7 -8.5z " />
<glyph unicode="&#xbe;" horiz-adv-x="2140" d="M46 872q0 66 41 118t101 89t130 56t128 19q28 0 54 -17t48 -43t35 -57t13 -57q0 -32 -11 -67t-27 -68t-37 -63t-39 -54q52 -16 107 -45t99 -70t72 -94t28 -115q0 -86 -29 -161t-81 -130t-124 -86t-156 -31q-22 0 -71 1t-100 9t-90 24t-39 46v44q34 0 67 -7t66 -16t67 -16 t70 -7q66 0 129 21t111 61t76 98t28 132q0 52 -24 95t-63 73t-87 47t-94 17h-21t-25 -1t-21 -2t-11 -1q-4 0 -21 -6t-36 -13t-37 -13t-22 -6t-10 4t-13 10t-11 13t-4 11q12 12 46 45t71 69t69 69t44 47q8 10 21 28t25 36t21 33t9 19q-12 64 -45 84t-78 14t-96 -33t-99 -58 t-89 -58t-65 -37zM834 38l308 1038q4 12 10 27t15 20t21 -4t30 -43l-324 -1098zM1284 722q0 80 8 158t18 157t17 158t7 157q8 0 20 -4t22 -11t18 -16t8 -17v-450q2 0 26 -3t58 -5t73 -3t72 3t56 12t23 26v430q6 0 23 -4t33 -11t28 -15t12 -16v-366h300q-6 -22 -10 -42 q-2 -16 -6 -32t-8 -22q-40 -12 -89 -15t-91 -4t-71 0t-31 1l6 -750h-78v730q-6 0 -24 1t-24 1q-48 0 -98 -8t-99 -16l-98 -16t-101 -8z" />
<glyph unicode="&#xbf;" horiz-adv-x="644" d="M46 125q23 -38 55.5 -65.5t70 -47t79 -29t82.5 -9.5q33 0 77.5 9t87 29t72 51t29.5 79q0 50 -30.5 103t-71 101t-85.5 86t-73 59v172q-33 0 -51 -21t-26 -50.5t-9.5 -63t-1.5 -56.5q0 -42 20.5 -70.5t52 -50.5t68 -41t67 -41t52.5 -52.5t22 -74.5q0 -30 -20 -49t-48 -29 t-58.5 -12.5t-49.5 -2.5q-38 0 -72 17t-66.5 40t-62 40t-58.5 17q-20 0 -30.5 -8.5t-21.5 -29.5zM321 985q0 -21 7 -32.5t27 -23.5q21 12 29.5 23.5t8.5 32.5t-8.5 32.5t-29.5 22.5q-20 -11 -27 -22.5t-7 -32.5z" />
<glyph unicode="&#xc0;" horiz-adv-x="796" d="M42 38q0 6 1 23t1 35t2 34t2 22q12 116 19 235t17 231t27 214t49 185t80 142t120 87q74 0 129 -43t96 -115t69 -166t46 -197t28 -208t14 -197t5 -166t1 -116h-48l-76 422q-10 10 -45 12t-82 -2t-102 -11t-104 -10t-89 -2t-58 13v-422h-102zM192 530q98 0 200 15t192 31 q2 8 3 26t2 40t2 42t1 26q0 66 -7 126t-28 117t-60 107t-105 94q-52 0 -87 -37t-57 -96t-34 -131t-16 -141t-5 -128t-1 -91zM288 1544l56 72q36 -36 55 -65t33 -58t30 -63t46 -82q0 -14 -6 -19t-17 -8t-24 -6t-29 -11q-26 44 -40 70t-27 48t-30 49t-47 73z" />
<glyph unicode="&#xc1;" horiz-adv-x="796" d="M42 38q0 6 1 23t1 35t2 34t2 22q12 116 19 235t17 231t27 214t49 185t80 142t120 87q74 0 129 -43t96 -115t69 -166t46 -197t28 -208t14 -197t5 -166t1 -116h-48l-76 422q-10 10 -45 12t-82 -2t-102 -11t-104 -10t-89 -2t-58 13v-422h-102zM192 530q98 0 200 15t192 31 q2 8 3 26t2 40t2 42t1 26q0 66 -7 126t-28 117t-60 107t-105 94q-52 0 -87 -37t-57 -96t-34 -131t-16 -141t-5 -128t-1 -91zM256 1342q70 90 108 146l57 84t25 33t11 -3t17 -25t44 -31q-26 -36 -52 -63t-51 -54t-49 -56t-52 -61z" />
<glyph unicode="&#xc2;" horiz-adv-x="796" d="M42 38q0 6 1 23t1 35t2 34t2 22q12 116 19 235t17 231t27 214t49 185t80 142t120 87q74 0 129 -43t96 -115t69 -166t46 -197t28 -208t14 -197t5 -166t1 -116h-48l-76 422q-10 10 -45 12t-82 -2t-102 -11t-104 -10t-89 -2t-58 13v-422h-102zM156 1456l268 364 q36 -36 63 -78t51 -88t48 -94t54 -96q0 -14 -6 -19t-17 -8t-24 -6t-29 -11q-26 44 -41 70t-27 49t-29 49t-49 72q-26 -34 -52 -62t-50 -55t-49 -55t-53 -62zM192 530q98 0 200 15t192 31q2 8 3 26t2 40t2 42t1 26q0 66 -7 126t-28 117t-60 107t-105 94q-52 0 -87 -37 t-57 -96t-34 -131t-16 -141t-5 -128t-1 -91z" />
<glyph unicode="&#xc3;" horiz-adv-x="796" d="M42 38q0 6 1 23t1 35t2 34t2 22q12 116 19 235t17 231t27 214t49 185t80 142t120 87q74 0 129 -43t96 -115t69 -166t46 -197t28 -208t14 -197t5 -166t1 -116h-48l-76 422q-10 10 -45 12t-82 -2t-102 -11t-104 -10t-89 -2t-58 13v-422h-102zM166 1312q0 94 30 132t98 38 q38 -18 63 -43l46 -46t38 -33t37 -4t46 41t62 103q12 0 27 -10t15 -30q-32 -82 -63 -123t-59 -52t-56 1t-54 34t-50 46t-48 42q-22 16 -35 5t-23 -34t-18 -50t-16 -43t-18 -13t-22 39zM192 530q98 0 200 15t192 31q2 8 3 26t2 40t2 42t1 26q0 66 -7 126t-28 117t-60 107 t-105 94q-52 0 -87 -37t-57 -96t-34 -131t-16 -141t-5 -128t-1 -91z" />
<glyph unicode="&#xc4;" horiz-adv-x="796" d="M42 38q0 6 1 23t1 35t2 34t2 22q12 116 19 235t17 231t27 214t49 185t80 142t120 87q74 0 129 -43t96 -115t69 -166t46 -197t28 -208t14 -197t5 -166t1 -116h-48l-76 422q-10 10 -45 12t-82 -2t-102 -11t-104 -10t-89 -2t-58 13v-422h-102zM154 1396q-6 30 2 46t24 24 t36 10t36 2t35 -2t35 -10t24 -24t0 -46q-6 -28 -34 -54t-60 -26q-16 0 -32 7t-29 19t-22 26t-15 28zM192 530q98 0 200 15t192 31q2 8 3 26t2 40t2 42t1 26q0 66 -7 126t-28 117t-60 107t-105 94q-52 0 -87 -37t-57 -96t-34 -131t-16 -141t-5 -128t-1 -91zM450 1396 q-8 30 1 46t25 24t36 10t36 2q14 0 34 -2t36 -10t24 -24t0 -46q-2 -14 -12 -28t-23 -26t-29 -19t-30 -7q-34 0 -62 26t-36 54z" />
<glyph unicode="&#xc5;" horiz-adv-x="796" d="M56 14q0 6 1 23t2 35t2 34t1 22q12 116 19 235t18 231t28 214t48 185t79 141q36 44 84 70l-2 2q-22 12 -36 31t-20 41t-6 44q0 14 2 37t11 43t25 35t44 15q72 0 108 -41t36 -95q0 -18 -6 -39t-18 -39q-12 -16 -28 -30q30 -10 56 -30q56 -42 97 -114t69 -166t46 -197 t27 -208t14 -197t6 -166t1 -116h-48l-78 422q-10 10 -44 12t-82 -2t-102 -11t-104 -10t-90 -2t-58 13v-422h-102zM206 506q98 0 200 15t194 31q2 8 2 26t2 40t3 42t1 26q0 66 -7 126t-28 117t-61 107t-104 94q-52 0 -88 -37t-57 -96t-33 -131t-17 -141t-6 -128t-1 -91z M314 1322q20 -54 40 -69t38 -7t32 31t22 49q-6 42 -31 62t-50 19t-42 -22t-9 -63z" />
<glyph unicode="&#xc6;" horiz-adv-x="1588" d="M42 38q0 6 1 23t1 35t2 34t2 22q12 116 19 235t17 231t27 214t49 185t80 142t120 87q74 0 129 -43t95 -115l14 -24q0 4 -2 12q32 46 85 79t119 55t140 34t147 18t140 8t119 2q6 0 19 -1t29 -2t29 -1h19q8 -44 -9 -61t-44 -20t-56 2t-45 1q-20 -2 -62 -11t-95 -20 t-111 -24t-112 -24t-96 -21t-60 -14q-34 -12 -38 -30t-4 -42q0 -42 6 -94t12 -103t13 -93t11 -62q6 -2 28 -2h30q46 0 90 8t89 18t90 17t93 7v-74q-18 0 -55 -3t-80 -11t-87 -17t-80 -19t-59 -20t-23 -20v-416q96 0 189 6t186 13t187 13t188 6q0 -24 -15 -39t-37 -24 t-45 -13t-37 -6q-8 -2 -50 -6t-104 -12t-138 -16t-150 -16t-140 -15t-110 -11q-6 -2 -18 -2v74l-70 388q-10 10 -45 12t-82 -2t-102 -11t-104 -10t-89 -2t-58 13v-422h-102zM192 530q98 0 200 15t192 31q2 8 3 26t2 40t2 42t1 26q0 66 -7 126t-28 117t-60 107t-105 94 q-52 0 -87 -37t-57 -96t-34 -131t-16 -141t-5 -128t-1 -91z" />
<glyph unicode="&#xc7;" horiz-adv-x="872" d="M26 518q0 62 13 139t39 156t65 154t90 134t116 95t143 36q56 0 95 -22t63 -58t35 -81t11 -91q-44 0 -66 27t-41 60t-44 60t-75 27q-66 0 -117 -36t-89 -93t-63 -129t-40 -144t-21 -139t-6 -113q-8 -68 -1 -141t33 -134t76 -102t132 -47q52 0 116 17t127 40t121 50t98 47 v-78q-2 0 -25 -9t-60 -23t-83 -30l-94 -34q-46 -16 -89 -31t-73 -25h-8q-4 -2 -6 0q6 -36 -18 -116q0 -32 24 -38t62 -4t81 5t81 -8t63 -44t25 -103q0 -44 -21 -77t-52 -54t-70 -29t-79 -4q-16 2 -44 10t-54 24t-45 39t-19 55q24 0 45 -10t42 -24t42 -24t45 -10q26 -6 61 10 t62 41t39 53t-6 49t-72 29t-158 -8q-20 0 -39 13t-34 33t-24 44t-9 44q-12 60 6 98l4 8q-72 8 -124 42q-70 48 -112 123t-58 168t-16 183z" />
<glyph unicode="&#xc8;" horiz-adv-x="1008" d="M28 1076q32 46 85 79t118 55t140 34t147 18t140 8t120 2q4 0 18 -1t30 -2t29 -1h19q8 -44 -9 -61t-44 -20t-57 2t-44 1q-20 -2 -63 -11t-95 -20t-111 -24t-112 -24t-95 -21t-62 -14q-32 -12 -36 -30t-4 -42q0 -42 5 -94t12 -103t14 -93t9 -62q8 -2 30 -2h30q46 0 90 8 t88 18t90 17t94 7v-74q-20 0 -56 -3t-79 -11t-87 -17t-80 -19t-59 -20t-23 -20v-416q94 0 187 6t187 13t188 13t188 6q0 -24 -16 -39t-37 -24t-45 -13l-36 -6q-8 -2 -50 -6t-104 -12t-138 -16t-150 -16t-140 -15t-110 -11q-6 -2 -18 -2q0 268 -17 541t-81 537zM394 1544 l56 72q36 -36 55 -65t33 -58t30 -63t46 -82q0 -14 -6 -19t-17 -8t-24 -6t-29 -11q-26 44 -40 70t-27 48t-30 49t-47 73z" />
<glyph unicode="&#xc9;" horiz-adv-x="1008" d="M28 1076q32 46 85 79t118 55t140 34t147 18t140 8t120 2q4 0 18 -1t30 -2t29 -1h19q8 -44 -9 -61t-44 -20t-57 2t-44 1q-20 -2 -63 -11t-95 -20t-111 -24t-112 -24t-95 -21t-62 -14q-32 -12 -36 -30t-4 -42q0 -42 5 -94t12 -103t14 -93t9 -62q8 -2 30 -2h30q46 0 90 8 t88 18t90 17t94 7v-74q-20 0 -56 -3t-79 -11t-87 -17t-80 -19t-59 -20t-23 -20v-416q94 0 187 6t187 13t188 13t188 6q0 -24 -16 -39t-37 -24t-45 -13l-36 -6q-8 -2 -50 -6t-104 -12t-138 -16t-150 -16t-140 -15t-110 -11q-6 -2 -18 -2q0 268 -17 541t-81 537zM362 1342 q70 90 108 146l57 84t25 33t11 -3t17 -25t44 -31q-26 -36 -52 -63t-51 -54t-49 -56t-52 -61z" />
<glyph unicode="&#xca;" horiz-adv-x="1008" d="M28 1076q32 46 85 79t118 55t140 34t147 18t140 8t120 2q4 0 18 -1t30 -2t29 -1h19q8 -44 -9 -61t-44 -20t-57 2t-44 1q-20 -2 -63 -11t-95 -20t-111 -24t-112 -24t-95 -21t-62 -14q-32 -12 -36 -30t-4 -42q0 -42 5 -94t12 -103t14 -93t9 -62q8 -2 30 -2h30q46 0 90 8 t88 18t90 17t94 7v-74q-20 0 -56 -3t-79 -11t-87 -17t-80 -19t-59 -20t-23 -20v-416q94 0 187 6t187 13t188 13t188 6q0 -24 -16 -39t-37 -24t-45 -13l-36 -6q-8 -2 -50 -6t-104 -12t-138 -16t-150 -16t-140 -15t-110 -11q-6 -2 -18 -2q0 268 -17 541t-81 537zM260 1456 l268 364q36 -36 63 -78t51 -88t48 -94t54 -96q0 -14 -6 -19t-17 -8t-24 -6t-29 -11q-26 44 -41 70t-27 49t-29 49t-49 72q-26 -34 -52 -62t-50 -55t-49 -55t-53 -62z" />
<glyph unicode="&#xcb;" horiz-adv-x="1008" d="M28 1076q32 46 85 79t118 55t140 34t147 18t140 8t120 2q4 0 18 -1t30 -2t29 -1h19q8 -44 -9 -61t-44 -20t-57 2t-44 1q-20 -2 -63 -11t-95 -20t-111 -24t-112 -24t-95 -21t-62 -14q-32 -12 -36 -30t-4 -42q0 -42 5 -94t12 -103t14 -93t9 -62q8 -2 30 -2h30q46 0 90 8 t88 18t90 17t94 7v-74q-20 0 -56 -3t-79 -11t-87 -17t-80 -19t-59 -20t-23 -20v-416q94 0 187 6t187 13t188 13t188 6q0 -24 -16 -39t-37 -24t-45 -13l-36 -6q-8 -2 -50 -6t-104 -12t-138 -16t-150 -16t-140 -15t-110 -11q-6 -2 -18 -2q0 268 -17 541t-81 537zM258 1396 q-6 30 2 46t24 24t36 10t36 2t35 -2t35 -10t24 -24t0 -46q-6 -28 -34 -54t-60 -26q-16 0 -32 7t-29 19t-22 26t-15 28zM554 1396q-8 30 1 46t25 24t36 10t36 2q14 0 34 -2t36 -10t24 -24t0 -46q-2 -14 -12 -28t-23 -26t-29 -19t-30 -7q-34 0 -62 26t-36 54z" />
<glyph unicode="&#xcc;" horiz-adv-x="200" d="M-28 1778l56 72q36 -36 55 -65t33 -58t30 -63t46 -82q0 -14 -6 -19t-17 -8t-24 -6t-29 -11q-26 44 -40 70t-27 48t-30 49t-47 73zM28 1382v24q0 24 17 39t41 15h10h10q10 -168 18 -319t13 -297t7 -291t2 -303q0 -22 3 -60t6 -74t6 -65t3 -31l-86 -16q-4 82 -8 189t-7 228 t-6 250t-8 255t-10 243t-11 213z" />
<glyph unicode="&#xcd;" horiz-adv-x="200" d="M-22 1600q70 90 108 146l57 84t25 33t11 -3t17 -25t44 -31q-26 -36 -52 -63t-51 -54t-49 -56t-52 -61zM28 1382v24q0 24 17 39t41 15h10h10q10 -168 18 -319t13 -297t7 -291t2 -303q0 -22 3 -60t6 -74t6 -65t3 -31l-86 -16q-4 82 -8 189t-7 228t-6 250t-8 255t-10 243 t-11 213z" />
<glyph unicode="&#xce;" horiz-adv-x="200" d="M-130 1586l268 364q36 -36 63 -78t51 -88t48 -94t54 -96q0 -14 -6 -19t-17 -8t-24 -6t-29 -11q-26 44 -41 70t-27 49t-29 49t-49 72q-26 -34 -52 -62t-50 -55t-49 -55t-53 -62zM28 1382v24q0 24 17 39t41 15h10h10q10 -168 18 -319t13 -297t7 -291t2 -303q0 -22 3 -60 t6 -74t6 -65t3 -31l-86 -16q-4 82 -8 189t-7 228t-6 250t-8 255t-10 243t-11 213z" />
<glyph unicode="&#xcf;" horiz-adv-x="200" d="M-166 1656q-6 30 2 46t24 24t36 10t36 2t35 -2t35 -10t24 -24t0 -46q-6 -28 -34 -54t-60 -26q-16 0 -32 7t-29 19t-22 26t-15 28zM28 1382v24q0 24 17 39t41 15h10h10q10 -168 18 -319t13 -297t7 -291t2 -303q0 -22 3 -60t6 -74t6 -65t3 -31l-86 -16q-4 82 -8 189t-7 228 t-6 250t-8 255t-10 243t-11 213zM130 1656q-8 30 1 46t25 24t36 10t36 2q14 0 34 -2t36 -10t24 -24t0 -46q-2 -14 -12 -28t-23 -26t-29 -19t-30 -7q-34 0 -62 26t-36 54z" />
<glyph unicode="&#xd0;" horiz-adv-x="1076" d="M2 404l40 40l3 3t9 3t23 5l45 9l-46 534q-4 4 -10 14t-12 23t-11 24t-5 17q0 18 16 28t36 12t39 2h23q6 0 17 -1t24 -2t23 -2t14 -1q66 -24 151 -56t175 -74t176 -95t154 -120t110 -147t42 -178q0 -84 -32 -151t-85 -116t-123 -84t-143 -56t-147 -31t-138 -10 q-14 0 -48 1t-70 3t-65 3t-31 1l-4 74l-24 292h-10q-2 0 -19 -1t-25 -1q-24 0 -42 4t-30 34zM190 992q0 -12 1 -27t1 -27v-18q2 -24 3 -71t4 -107t6 -130t7 -140l68 6q16 8 49 9t58 -8t33 -27t-24 -50q-32 -4 -57 -7t-45 -6t-39 -6t-39 -5q4 -100 8 -182t6 -120q12 0 39 -1 t57 -2t57 -2t39 -1q92 0 182 23t161 70t116 122t45 181q0 78 -36 149t-95 131t-135 108t-157 83t-162 53t-151 18v-16z" />
<glyph unicode="&#xd1;" horiz-adv-x="1066" d="M26 1225q-2 67 0 103q0 24 18 40t42 16t55 -11t41 -29l720 -1162q0 92 -5 198t-9 218t-5 225t4 220t20 203t43 174q28 10 44 11t24 -1t9 -10t1 -16v-12v-10q-4 -12 -9 -44t-13 -95t-14 -163t-12 -248t-9 -352t-1 -476l-58 -4l-768 1190q0 -6 -1 -26t-1 -41v-40v-25 q0 -130 6 -260t14 -261t14 -263t6 -264l-72 4q-2 38 -7 106t-12 157t-15 191t-17 207t-15 207t-11 189t-7 154zM292 1462q0 94 30 132t98 38q38 -18 63 -43l46 -46t38 -33t37 -4t46 41t62 103q12 0 27 -10t15 -30q-32 -82 -63 -123t-59 -52t-56 1t-54 34t-50 46t-48 42 q-22 16 -35 5t-23 -34t-18 -50t-16 -43t-18 -13t-22 39z" />
<glyph unicode="&#xd2;" horiz-adv-x="884" d="M36 664q0 66 9 140t30 145t54 136t80 114t110 78t143 29q70 0 124 -39t94 -102t66 -143t43 -161t23 -156t6 -129q-8 -118 -34 -217t-71 -174t-111 -123t-160 -64q-90 0 -154 32t-110 84t-74 120t-43 142t-20 149t-5 139zM112 664q0 -48 2 -108t11 -121t27 -120t49 -104 t78 -73t113 -28q96 -6 158 24t100 92t58 150t32 200q0 44 -4 110t-15 138t-30 145t-50 132t-74 95t-103 36q-62 0 -112 -29t-89 -76t-68 -107t-47 -123t-27 -124t-9 -109zM330 1622l56 72q36 -36 55 -65t33 -58t30 -63t46 -82q0 -14 -6 -19t-17 -8t-24 -6t-29 -11 q-26 44 -40 70t-27 48t-30 49t-47 73z" />
<glyph unicode="&#xd3;" horiz-adv-x="884" d="M36 664q0 66 9 140t30 145t54 136t80 114t110 78t143 29q70 0 124 -39t94 -102t66 -143t43 -161t23 -156t6 -129q-8 -118 -34 -217t-71 -174t-111 -123t-160 -64q-90 0 -154 32t-110 84t-74 120t-43 142t-20 149t-5 139zM112 664q0 -48 2 -108t11 -121t27 -120t49 -104 t78 -73t113 -28q96 -6 158 24t100 92t58 150t32 200q0 44 -4 110t-15 138t-30 145t-50 132t-74 95t-103 36q-62 0 -112 -29t-89 -76t-68 -107t-47 -123t-27 -124t-9 -109zM296 1378q70 90 108 146l57 84t25 33t11 -3t17 -25t44 -31q-26 -36 -52 -63t-51 -54t-49 -56t-52 -61 z" />
<glyph unicode="&#xd4;" horiz-adv-x="884" d="M36 664q0 66 9 140t30 145t54 136t80 114t110 78t143 29q70 0 124 -39t94 -102t66 -143t43 -161t23 -156t6 -129q-8 -118 -34 -217t-71 -174t-111 -123t-160 -64q-90 0 -154 32t-110 84t-74 120t-43 142t-20 149t-5 139zM112 664q0 -48 2 -108t11 -121t27 -120t49 -104 t78 -73t113 -28q96 -6 158 24t100 92t58 150t32 200q0 44 -4 110t-15 138t-30 145t-50 132t-74 95t-103 36q-62 0 -112 -29t-89 -76t-68 -107t-47 -123t-27 -124t-9 -109zM198 1456l268 364q36 -36 63 -78t51 -88t48 -94t54 -96q0 -14 -6 -19t-17 -8t-24 -6t-29 -11 q-26 44 -41 70t-27 49t-29 49t-49 72q-26 -34 -52 -62t-50 -55t-49 -55t-53 -62z" />
<glyph unicode="&#xd5;" horiz-adv-x="884" d="M36 664q0 66 9 140t30 145t54 136t80 114t110 78t143 29q70 0 124 -39t94 -102t66 -143t43 -161t23 -156t6 -129q-8 -118 -34 -217t-71 -174t-111 -123t-160 -64q-90 0 -154 32t-110 84t-74 120t-43 142t-20 149t-5 139zM112 664q0 -48 2 -108t11 -121t27 -120t49 -104 t78 -73t113 -28q96 -6 158 24t100 92t58 150t32 200q0 44 -4 110t-15 138t-30 145t-50 132t-74 95t-103 36q-62 0 -112 -29t-89 -76t-68 -107t-47 -123t-27 -124t-9 -109zM214 1426q0 94 30 132t98 38q38 -18 63 -43l46 -46t38 -33t37 -4t46 41t62 103q12 0 27 -10t15 -30 q-32 -82 -63 -123t-59 -52t-56 1t-54 34t-50 46t-48 42q-22 16 -35 5t-23 -34t-18 -50t-16 -43t-18 -13t-22 39z" />
<glyph unicode="&#xd6;" horiz-adv-x="884" d="M36 664q0 66 9 140t30 145t54 136t80 114t110 78t143 29q70 0 124 -39t94 -102t66 -143t43 -161t23 -156t6 -129q-8 -118 -34 -217t-71 -174t-111 -123t-160 -64q-90 0 -154 32t-110 84t-74 120t-43 142t-20 149t-5 139zM112 664q0 -48 2 -108t11 -121t27 -120t49 -104 t78 -73t113 -28q96 -6 158 24t100 92t58 150t32 200q0 44 -4 110t-15 138t-30 145t-50 132t-74 95t-103 36q-62 0 -112 -29t-89 -76t-68 -107t-47 -123t-27 -124t-9 -109zM202 1454q-6 30 2 46t24 24t36 10t36 2t35 -2t35 -10t24 -24t0 -46q-6 -28 -34 -54t-60 -26 q-16 0 -32 7t-29 19t-22 26t-15 28zM498 1454q-8 30 1 46t25 24t36 10t36 2q14 0 34 -2t36 -10t24 -24t0 -46q-2 -14 -12 -28t-23 -26t-29 -19t-30 -7q-34 0 -62 26t-36 54z" />
<glyph unicode="&#xd7;" horiz-adv-x="562" d="M108 682l92 62l114 -130l108 198l78 -56l-112 -238l130 -152l-76 -40l-110 138q-20 -36 -31 -60t-18 -45l-14 -42t-21 -47l-78 20l90 250z" />
<glyph unicode="&#xd8;" horiz-adv-x="884" d="M36 664q0 66 9 140t30 145t54 136t80 114t110 78t143 29q68 0 122 -38l6 16q6 14 14 32t21 24t31 -4t42 -52l-32 -98q8 -10 14 -20q40 -64 66 -144t43 -161t23 -156t6 -129q-8 -118 -34 -217t-71 -174t-111 -123t-160 -64q-90 0 -154 32l-16 8l-28 -84l-86 74l26 76 l-8 10q-44 52 -72 120t-43 142t-20 149t-5 139zM112 664q0 -48 2 -108t11 -121t27 -120t48 -103q6 -12 14 -20l346 1006q-40 34 -96 34q-62 0 -112 -29t-89 -76t-68 -107t-47 -123t-27 -124t-9 -109zM302 126q40 -16 90 -16q96 -6 158 24t100 92t58 150t32 200q0 44 -4 110 t-15 138t-30 145t-51 131l-2 6z" />
<glyph unicode="&#xd9;" horiz-adv-x="1036" d="M45 859q-1 149 23 293l78 -8q-22 -256 -5 -445t55 -315t88 -192t96 -76q68 0 121 36t94 94t70 132t47 150t26 147t8 123q0 68 -4 121t-13 105t-20 107t-25 127l98 72q46 -290 79 -497t57 -346t38 -222t23 -130t12 -66t3 -31h-82l-116 462q-80 -202 -158 -312t-152 -147 t-140 -9t-121 103t-94 189t-62 250t-24 285zM314 1602l56 72q36 -36 55 -65t33 -58t30 -63t46 -82q0 -14 -6 -19t-17 -8t-24 -6t-29 -11q-26 44 -40 70t-27 48t-30 49t-47 73z" />
<glyph unicode="&#xda;" horiz-adv-x="1036" d="M45 859q-1 149 23 293l78 -8q-22 -256 -5 -445t55 -315t88 -192t96 -76q68 0 121 36t94 94t70 132t47 150t26 147t8 123q0 68 -4 121t-13 105t-20 107t-25 127l98 72q46 -290 79 -497t57 -346t38 -222t23 -130t12 -66t3 -31h-82l-116 462q-80 -202 -158 -312t-152 -147 t-140 -9t-121 103t-94 189t-62 250t-24 285zM376 1342q70 90 108 146l57 84t25 33t11 -3t17 -25t44 -31q-26 -36 -52 -63t-51 -54t-49 -56t-52 -61z" />
<glyph unicode="&#xdb;" horiz-adv-x="1036" d="M45 859q-1 149 23 293l78 -8q-22 -256 -5 -445t55 -315t88 -192t96 -76q68 0 121 36t94 94t70 132t47 150t26 147t8 123q0 68 -4 121t-13 105t-20 107t-25 127l98 72q46 -290 79 -497t57 -346t38 -222t23 -130t12 -66t3 -31h-82l-116 462q-80 -202 -158 -312t-152 -147 t-140 -9t-121 103t-94 189t-62 250t-24 285zM124 1434l268 364q36 -36 63 -78t51 -88t48 -94t54 -96q0 -14 -6 -19t-17 -8t-24 -6t-29 -11q-26 44 -41 70t-27 49t-29 49t-49 72q-26 -34 -52 -62t-50 -55t-49 -55t-53 -62z" />
<glyph unicode="&#xdc;" horiz-adv-x="1036" d="M45 859q-1 149 23 293l78 -8q-22 -256 -5 -445t55 -315t88 -192t96 -76q68 0 121 36t94 94t70 132t47 150t26 147t8 123q0 68 -4 121t-13 105t-20 107t-25 127l98 72q46 -290 79 -497t57 -346t38 -222t23 -130t12 -66t3 -31h-82l-116 462q-80 -202 -158 -312t-152 -147 t-140 -9t-121 103t-94 189t-62 250t-24 285zM138 1396q-6 30 2 46t24 24t36 10t36 2t35 -2t35 -10t24 -24t0 -46q-6 -28 -34 -54t-60 -26q-16 0 -32 7t-29 19t-22 26t-15 28zM434 1396q-8 30 1 46t25 24t36 10t36 2q14 0 34 -2t36 -10t24 -24t0 -46q-2 -14 -12 -28t-23 -26 t-29 -19t-30 -7q-34 0 -62 26t-36 54z" />
<glyph unicode="&#xdd;" horiz-adv-x="908" d="M8 1460l40 36q74 -80 129 -147t99 -126t80 -113t75 -109t85 -112t108 -121q12 56 23 125t23 143t26 151t32 148t39 133t49 106q2 2 9 2h11q6 0 17 -2t21 -7t16 -13t2 -18q-22 -46 -45 -124t-44 -175t-39 -210t-33 -229t-27 -231t-18 -215t-5 -182t9 -132q-4 -22 -7 -33 t-13 -17t-30 -7t-56 -1v672q-30 44 -81 108t-109 139t-120 155t-115 155t-93 140t-58 111zM350 1650q70 90 108 146l57 84t25 33t11 -3t17 -25t44 -31q-26 -36 -52 -63t-51 -54t-49 -56t-52 -61z" />
<glyph unicode="&#xde;" horiz-adv-x="686" d="M38 1128h78q-2 -64 -1 -97t1 -51v-27v-22t-2 -40t-4 -79q32 26 59 48t53 38t53 24t63 8q72 0 132 -36t102 -92t65 -125t23 -135q-4 -114 -46 -181t-111 -102t-161 -42t-196 1v94q36 -32 67 -37t71 -5q66 0 120 20t93 58t60 89t21 113q0 54 -6 96t-27 77t-60 65t-107 60 q-4 2 -19 4t-21 2q-32 0 -63 -19t-57 -48t-45 -64t-27 -67q-2 -14 -5 -66t-5 -121t-5 -147t-5 -147t-4 -120t-4 -67l-62 12z" />
<glyph unicode="&#xdf;" horiz-adv-x="900" d="M80 392q-4 122 0 241t20 214t47 155t83 68q68 8 143 10t137 -16t103 -60t41 -122q0 -40 -9 -79t-32 -72t-63 -60t-104 -45q84 6 156 -15t126 -64t86 -104t32 -135q0 -86 -52 -148t-132 -101t-178 -59t-188 -22l10 92q68 6 150 18t152 38t116 71t46 119t-29 119t-75 70 t-103 34t-112 12t-103 3t-76 6l14 114q52 6 103 18t93 34t69 60t27 98q0 8 1 22t-6 29t-25 30t-58 24t-105 11t-163 -8q-6 -18 -16 -88t-17 -173t-10 -228t3 -256t25 -259t53 -232l-104 -12q-6 0 -17 55t-23 146t-22 208t-14 239z" />
<glyph unicode="&#xe0;" d="M38 172q0 114 63 166t165 52q40 0 75 -2t67 -10t63 -24t65 -46q0 6 1 25t1 41v41v27q-2 36 -2 93t-9 117t-36 114t-87 82q-42 0 -78 -14t-72 -30t-72 -29t-78 -13q0 50 31 83t75 51t92 24t84 6q36 -6 67 -14t58 -32t50 -73t40 -137t30 -223t21 -331q4 -26 -17 -45 t-57 -32t-81 -22t-91 -13t-88 -6t-70 -2q-36 0 -73 12t-68 35t-50 56t-19 73zM123 170q5 -36 47 -65t102 -38t130 10t134 75q-24 58 -48 89t-52 47t-62 20t-76 4q-100 -28 -140 -67t-35 -75zM236 1236l56 72q36 -36 55 -65t33 -58t30 -63t46 -82q0 -14 -6 -19t-17 -8t-24 -6 t-29 -11q-26 44 -40 70t-27 48t-30 49t-47 73z" />
<glyph unicode="&#xe1;" d="M38 172q0 114 63 166t165 52q40 0 75 -2t67 -10t63 -24t65 -46q0 6 1 25t1 41v41v27q-2 36 -2 93t-9 117t-36 114t-87 82q-42 0 -78 -14t-72 -30t-72 -29t-78 -13q0 50 31 83t75 51t92 24t84 6q36 -6 67 -14t58 -32t50 -73t40 -137t30 -223t21 -331q4 -26 -17 -45 t-57 -32t-81 -22t-91 -13t-88 -6t-70 -2q-36 0 -73 12t-68 35t-50 56t-19 73zM123 170q5 -36 47 -65t102 -38t130 10t134 75q-24 58 -48 89t-52 47t-62 20t-76 4q-100 -28 -140 -67t-35 -75zM206 1034q70 90 108 146l57 84t25 33t11 -3t17 -25t44 -31q-26 -36 -52 -63 t-51 -54t-49 -56t-52 -61z" />
<glyph unicode="&#xe2;" d="M38 172q0 114 63 166t165 52q40 0 75 -2t67 -10t63 -24t65 -46q0 6 1 25t1 41v41v27q-2 36 -2 93t-9 117t-36 114t-87 82q-42 0 -78 -14t-72 -30t-72 -29t-78 -13q0 50 31 83t75 51t92 24t84 6q36 -6 67 -14t58 -32t50 -73t40 -137t30 -223t21 -331q4 -26 -17 -45 t-57 -32t-81 -22t-91 -13t-88 -6t-70 -2q-36 0 -73 12t-68 35t-50 56t-19 73zM102 1148l268 364q36 -36 63 -78t51 -88t48 -94t54 -96q0 -14 -6 -19t-17 -8t-24 -6t-29 -11q-26 44 -41 70t-27 49t-29 49t-49 72q-26 -34 -52 -62t-50 -55t-49 -55t-53 -62zM123 170 q5 -36 47 -65t102 -38t130 10t134 75q-24 58 -48 89t-52 47t-62 20t-76 4q-100 -28 -140 -67t-35 -75z" />
<glyph unicode="&#xe3;" d="M38 172q0 114 63 166t165 52q40 0 75 -2t67 -10t63 -24t65 -46q0 6 1 25t1 41v41v27q-2 36 -2 93t-9 117t-36 114t-87 82q-42 0 -78 -14t-72 -30t-72 -29t-78 -13q0 50 31 83t75 51t92 24t84 6q36 -6 67 -14t58 -32t50 -73t40 -137t30 -223t21 -331q4 -26 -17 -45 t-57 -32t-81 -22t-91 -13t-88 -6t-70 -2q-36 0 -73 12t-68 35t-50 56t-19 73zM112 1004q0 94 30 132t98 38q38 -18 63 -43l46 -46t38 -33t37 -4t46 41t62 103q12 0 27 -10t15 -30q-32 -82 -63 -123t-59 -52t-56 1t-54 34t-50 46t-48 42q-22 16 -35 5t-23 -34t-18 -50 t-16 -43t-18 -13t-22 39zM123 170q5 -36 47 -65t102 -38t130 10t134 75q-24 58 -48 89t-52 47t-62 20t-76 4q-100 -28 -140 -67t-35 -75z" />
<glyph unicode="&#xe4;" d="M38 172q0 114 63 166t165 52q40 0 75 -2t67 -10t63 -24t65 -46q0 6 1 25t1 41v41v27q-2 36 -2 93t-9 117t-36 114t-87 82q-42 0 -78 -14t-72 -30t-72 -29t-78 -13q0 50 31 83t75 51t92 24t84 6q36 -6 67 -14t58 -32t50 -73t40 -137t30 -223t21 -331q4 -26 -17 -45 t-57 -32t-81 -22t-91 -13t-88 -6t-70 -2q-36 0 -73 12t-68 35t-50 56t-19 73zM100 1088q-6 30 2 46t24 24t36 10t36 2t35 -2t35 -10t24 -24t0 -46q-6 -28 -34 -54t-60 -26q-16 0 -32 7t-29 19t-22 26t-15 28zM123 170q5 -36 47 -65t102 -38t130 10t134 75q-24 58 -48 89 t-52 47t-62 20t-76 4q-100 -28 -140 -67t-35 -75zM396 1088q-8 30 1 46t25 24t36 10t36 2q14 0 34 -2t36 -10t24 -24t0 -46q-2 -14 -12 -28t-23 -26t-29 -19t-30 -7q-34 0 -62 26t-36 54z" />
<glyph unicode="&#xe5;" d="M38 172q0 114 63 166t165 52q40 0 75 -2t67 -10t63 -24t65 -46q0 6 1 25t1 41v68q-2 36 -2 93t-9 117t-36 114t-87 82q-42 0 -78 -14t-72 -30t-72 -29t-78 -13q0 50 31 83t75 51q38 14 80 22q-12 8 -22 20q-14 20 -20 43t-6 43q0 16 3 38t12 42t24 35t43 15q74 0 110 -41 t36 -95q0 -16 -6 -37t-20 -41q-10 -12 -22 -22l30 -6q32 -8 59 -32t50 -73t40 -137t30 -223t21 -331q4 -26 -17 -45t-57 -32t-81 -22t-91 -13t-88 -6t-70 -2q-36 0 -73 12t-68 35t-50 56t-19 73zM123 170q5 -36 47 -65t102 -38t130 10t134 75q-24 58 -48 89t-52 47t-62 20 t-76 4q-100 -28 -140 -67t-35 -75zM284 1024q18 -52 39 -67t39 -8t31 31t21 48q-6 42 -31 63t-50 19t-42 -23t-7 -63z" />
<glyph unicode="&#xe6;" horiz-adv-x="1160" d="M38 172q0 114 63 166t165 52q40 0 75 -2t67 -10t63 -24t65 -46q0 6 1 25t1 41v68q-2 36 -2 93t-9 117t-36 114t-87 82q-42 0 -78 -14t-72 -30t-72 -29t-78 -13q0 50 31 83t75 51t92 24t84 6q36 -6 67 -14t58 -32t50 -73t39 -139l4 -20q22 48 52 92q46 62 104 105t118 43 q34 0 68 -14t64 -37t55 -52t39 -61t15 -62t-17 -52l-422 -78q-6 -2 -12 -19t-11 -43t-8 -57t-5 -61q0 -24 -2 -44q2 -42 6 -90q6 -24 20 -42q28 -36 70 -54t95 -24t105 -6t98 4t76 4q0 -8 -6 -18t-14 -19t-15 -16t-11 -9q-14 -4 -48 -11t-71 -13t-69 -10t-42 -4 q-64 -12 -110 2t-78 48q-8 8 -16 18q-20 -18 -54 -30q-36 -12 -81 -21t-91 -13t-88 -6t-70 -2q-36 0 -73 12t-68 35t-50 56t-19 73zM123 170q5 -36 47 -65t102 -38t130 10t134 75q-24 58 -48 89t-52 47t-62 20t-76 4q-100 -28 -140 -67t-35 -75zM696 626q52 -6 108 2t102 25 t76 40t29 47t-37 43t-124 29q-18 0 -46 -19t-54 -48t-42 -62t-12 -57z" />
<glyph unicode="&#xe7;" horiz-adv-x="750" d="M38 342q0 74 24 164t70 167t114 129t158 52q46 6 74 -9t43 -47t20 -73t6 -84t0 -80t3 -61h-50q-2 12 -7 57t-17 93t-33 86t-59 38q-56 0 -105 -44t-85 -106t-58 -128t-22 -110q2 -50 14 -109t39 -107t71 -78t108 -18q48 0 92 20t86 42t85 42t91 20q0 -52 -38 -91t-93 -63 t-116 -36t-103 -12q-36 0 -68 6q-2 -34 -20 -90q0 -30 25 -37t62 -5t81 5t81 -8t62 -44t25 -103q0 -44 -20 -77t-52 -54t-71 -29t-77 -2q-16 0 -44 9t-54 24t-46 39t-20 54q24 0 45 -10t42 -24t42 -24t45 -10q28 -4 62 11t61 40t39 54t-5 49t-71 28t-160 -6q-18 0 -38 12 t-35 33t-24 44t-9 43q-10 60 6 96l4 6q-54 30 -92 72q-42 48 -65 111t-23 133z" />
<glyph unicode="&#xe8;" horiz-adv-x="674" d="M47 354q-1 60 5 116q0 60 26 133t71 136t102 106t119 43q34 0 67 -14t64 -37t56 -52t39 -61t15 -62t-17 -52l-422 -78q-8 -2 -14 -19t-10 -43t-7 -57t-5 -60t-2 -52v-35q0 -56 27 -91t69 -53t95 -24t105 -6t98 4t76 4q0 -8 -6 -18t-14 -19t-16 -16t-10 -9q-16 -4 -49 -11 t-70 -13t-69 -10t-44 -4q-62 -12 -108 2t-78 48t-52 83t-30 105t-11 116zM188 626q52 -6 108 2t102 25t76 40t29 47t-38 43t-123 29q-18 0 -47 -19t-54 -48t-42 -62t-11 -57zM226 1236l56 72q36 -36 55 -65t33 -58t30 -63t46 -82q0 -14 -6 -19t-17 -8t-24 -6t-29 -11 q-26 44 -40 70t-27 48t-30 49t-47 73z" />
<glyph unicode="&#xe9;" horiz-adv-x="674" d="M47 354q-1 60 5 116q0 60 26 133t71 136t102 106t119 43q34 0 67 -14t64 -37t56 -52t39 -61t15 -62t-17 -52l-422 -78q-8 -2 -14 -19t-10 -43t-7 -57t-5 -60t-2 -52v-35q0 -56 27 -91t69 -53t95 -24t105 -6t98 4t76 4q0 -8 -6 -18t-14 -19t-16 -16t-10 -9q-16 -4 -49 -11 t-70 -13t-69 -10t-44 -4q-62 -12 -108 2t-78 48t-52 83t-30 105t-11 116zM188 626q52 -6 108 2t102 25t76 40t29 47t-38 43t-123 29q-18 0 -47 -19t-54 -48t-42 -62t-11 -57zM194 1034q70 90 108 146l57 84t25 33t11 -3t17 -25t44 -31q-26 -36 -52 -63t-51 -54t-49 -56 t-52 -61z" />
<glyph unicode="&#xea;" horiz-adv-x="674" d="M47 354q-1 60 5 116q0 60 26 133t71 136t102 106t119 43q34 0 67 -14t64 -37t56 -52t39 -61t15 -62t-17 -52l-422 -78q-8 -2 -14 -19t-10 -43t-7 -57t-5 -60t-2 -52v-35q0 -56 27 -91t69 -53t95 -24t105 -6t98 4t76 4q0 -8 -6 -18t-14 -19t-16 -16t-10 -9q-16 -4 -49 -11 t-70 -13t-69 -10t-44 -4q-62 -12 -108 2t-78 48t-52 83t-30 105t-11 116zM98 976l268 364q36 -36 63 -78t51 -88t48 -94t54 -96q0 -14 -6 -19t-17 -8t-24 -6t-29 -11q-26 44 -41 70t-27 49t-29 49t-49 72q-26 -34 -52 -62t-50 -55t-49 -55t-53 -62zM188 626q52 -6 108 2 t102 25t76 40t29 47t-38 43t-123 29q-18 0 -47 -19t-54 -48t-42 -62t-11 -57z" />
<glyph unicode="&#xeb;" horiz-adv-x="674" d="M47 354q-1 60 5 116q0 60 26 133t71 136t102 106t119 43q34 0 67 -14t64 -37t56 -52t39 -61t15 -62t-17 -52l-422 -78q-8 -2 -14 -19t-10 -43t-7 -57t-5 -60t-2 -52v-35q0 -56 27 -91t69 -53t95 -24t105 -6t98 4t76 4q0 -8 -6 -18t-14 -19t-16 -16t-10 -9q-16 -4 -49 -11 t-70 -13t-69 -10t-44 -4q-62 -12 -108 2t-78 48t-52 83t-30 105t-11 116zM92 1088q-6 30 2 46t24 24t36 10t36 2t35 -2t35 -10t24 -24t0 -46q-6 -28 -34 -54t-60 -26q-16 0 -32 7t-29 19t-22 26t-15 28zM188 626q52 -6 108 2t102 25t76 40t29 47t-38 43t-123 29 q-18 0 -47 -19t-54 -48t-42 -62t-11 -57zM388 1088q-8 30 1 46t25 24t36 10t36 2q14 0 34 -2t36 -10t24 -24t0 -46q-2 -14 -12 -28t-23 -26t-29 -19t-30 -7q-34 0 -62 26t-36 54z" />
<glyph unicode="&#xec;" horiz-adv-x="290" d="M38 1236l56 72q36 -36 55 -65t33 -58t30 -63t46 -82q0 -14 -6 -19t-17 -8t-24 -6t-29 -11q-26 44 -40 70t-27 48t-30 49t-47 73zM134 776q24 0 41 2t29 -20q6 -90 14 -183t16 -187t11 -189t1 -185q0 -12 -6 -15t-17 -2t-26 2t-33 -3z" />
<glyph unicode="&#xed;" horiz-adv-x="290" d="M6 1034q70 90 108 146l57 84t25 33t11 -3t17 -25t44 -31q-26 -36 -52 -63t-51 -54t-49 -56t-52 -61zM134 776q24 0 41 2t29 -20q6 -90 14 -183t16 -187t11 -189t1 -185q0 -12 -6 -15t-17 -2t-26 2t-33 -3z" />
<glyph unicode="&#xee;" horiz-adv-x="290" d="M-92 1148l268 364q36 -36 63 -78t51 -88t48 -94t54 -96q0 -14 -6 -19t-17 -8t-24 -6t-29 -11q-26 44 -41 70t-27 49t-29 49t-49 72q-26 -34 -52 -62t-50 -55t-49 -55t-53 -62zM134 776q24 0 41 2t29 -20q6 -90 14 -183t16 -187t11 -189t1 -185q0 -12 -6 -15t-17 -2t-26 2 t-33 -3z" />
<glyph unicode="&#xef;" horiz-adv-x="290" d="M-96 1088q-6 30 2 46t24 24t36 10t36 2t35 -2t35 -10t24 -24t0 -46q-6 -28 -34 -54t-60 -26q-16 0 -32 7t-29 19t-22 26t-15 28zM134 776q24 0 41 2t29 -20q6 -90 14 -183t16 -187t11 -189t1 -185q0 -12 -6 -15t-17 -2t-26 2t-33 -3zM200 1088q-8 30 1 46t25 24t36 10 t36 2q14 0 34 -2t36 -10t24 -24t0 -46q-2 -14 -12 -28t-23 -26t-29 -19t-30 -7q-34 0 -62 26t-36 54z" />
<glyph unicode="&#xf0;" horiz-adv-x="662" d="M38 290q0 60 19 99t50 61t68 30t73 8q60 8 103 -9t76 -55t56 -95t39 -127q16 54 11 110t-23 114t-43 120t-45 128q-24 4 -51 1t-51 -8t-46 -10t-36 -1q-16 14 -24 37t-8 53q38 12 79 18t99 12q-26 64 -54 125t-58 117l84 58q30 -54 60 -129t84 -151q18 4 42 18t45 27 t36 21t17 -2l30 -84q-20 -12 -36 -23t-32 -20t-35 -17t-47 -18q44 -56 71 -128t36 -148t0 -150t-38 -136t-77 -105t-114 -57q-72 -6 -135 6t-113 49t-80 101t-32 160zM98 290q0 -44 20 -77t53 -58t73 -41t79 -27t75 -15t56 -4q0 64 -15 125t-43 110t-70 78t-96 29 q-20 0 -43 -3t-43 -15t-33 -37t-13 -65z" />
<glyph unicode="&#xf1;" horiz-adv-x="810" d="M28 837v11q30 24 51 16t35 -35t20 -67t9 -80t3 -73v-47q4 34 12 80t24 94t39 95t57 83t77 56t99 16q88 -4 145 -48t90 -118t48 -170t20 -204t3 -219t-2 -213q-18 -4 -36 -13t-30 -8t-17 18t3 67q2 36 7 111t4 167t-11 190t-37 179t-77 132t-130 51q-82 -34 -137 -128 t-88 -220t-48 -273t-17 -287q-4 2 -15 2t-24 1t-24 3t-13 4q-4 32 -7 93t-6 138t-5 161t-4 160t-5 137t-9 93q0 2 -1 10t-2 18t-1 17zM200 1156q0 94 30 132t98 38q38 -18 63 -43l46 -46t38 -33t37 -4t46 41t62 103q12 0 27 -10t15 -30q-32 -82 -63 -123t-59 -52t-56 1 t-54 34t-50 46t-48 42q-22 16 -35 5t-23 -34t-18 -50t-16 -43t-18 -13t-22 39z" />
<glyph unicode="&#xf2;" horiz-adv-x="742" d="M48 366q0 46 8 107t26 123t45 122t65 107t88 76t112 29q64 0 119 -44t94 -114t59 -156t16 -168q0 -120 -46 -214t-117 -152t-152 -78t-152 11t-118 117t-47 234zM122 358q6 -122 42 -188t87 -87t111 -1t112 71t89 128t41 173q4 72 -11 140t-42 121t-66 84t-89 31 q-48 0 -86 -24t-69 -65t-53 -93t-37 -104t-22 -101t-7 -85zM260 1236l56 72q36 -36 55 -65t33 -58t30 -63t46 -82q0 -14 -6 -19t-17 -8t-24 -6t-29 -11q-26 44 -40 70t-27 48t-30 49t-47 73z" />
<glyph unicode="&#xf3;" horiz-adv-x="742" d="M48 366q0 46 8 107t26 123t45 122t65 107t88 76t112 29q64 0 119 -44t94 -114t59 -156t16 -168q0 -120 -46 -214t-117 -152t-152 -78t-152 11t-118 117t-47 234zM122 358q6 -122 42 -188t87 -87t111 -1t112 71t89 128t41 173q4 72 -11 140t-42 121t-66 84t-89 31 q-48 0 -86 -24t-69 -65t-53 -93t-37 -104t-22 -101t-7 -85zM230 1034q70 90 108 146l57 84t25 33t11 -3t17 -25t44 -31q-26 -36 -52 -63t-51 -54t-49 -56t-52 -61z" />
<glyph unicode="&#xf4;" horiz-adv-x="742" d="M48 366q0 46 8 107t26 123t45 122t65 107t88 76t112 29q64 0 119 -44t94 -114t59 -156t16 -168q0 -120 -46 -214t-117 -152t-152 -78t-152 11t-118 117t-47 234zM122 358q6 -122 42 -188t87 -87t111 -1t112 71t89 128t41 173q4 72 -11 140t-42 121t-66 84t-89 31 q-48 0 -86 -24t-69 -65t-53 -93t-37 -104t-22 -101t-7 -85zM128 1148l268 364q36 -36 63 -78t51 -88t48 -94t54 -96q0 -14 -6 -19t-17 -8t-24 -6t-29 -11q-26 44 -41 70t-27 49t-29 49t-49 72q-26 -34 -52 -62t-50 -55t-49 -55t-53 -62z" />
<glyph unicode="&#xf5;" horiz-adv-x="742" d="M48 366q0 46 8 107t26 123t45 122t65 107t88 76t112 29q64 0 119 -44t94 -114t59 -156t16 -168q0 -120 -46 -214t-117 -152t-152 -78t-152 11t-118 117t-47 234zM122 358q6 -122 42 -188t87 -87t111 -1t112 71t89 128t41 173q4 72 -11 140t-42 121t-66 84t-89 31 q-48 0 -86 -24t-69 -65t-53 -93t-37 -104t-22 -101t-7 -85zM140 1004q0 94 30 132t98 38q38 -18 63 -43l46 -46t38 -33t37 -4t46 41t62 103q12 0 27 -10t15 -30q-32 -82 -63 -123t-59 -52t-56 1t-54 34t-50 46t-48 42q-22 16 -35 5t-23 -34t-18 -50t-16 -43t-18 -13t-22 39z " />
<glyph unicode="&#xf6;" horiz-adv-x="742" d="M48 366q0 46 8 107t26 123t45 122t65 107t88 76t112 29q64 0 119 -44t94 -114t59 -156t16 -168q0 -120 -46 -214t-117 -152t-152 -78t-152 11t-118 117t-47 234zM122 358q6 -122 42 -188t87 -87t111 -1t112 71t89 128t41 173q4 72 -11 140t-42 121t-66 84t-89 31 q-48 0 -86 -24t-69 -65t-53 -93t-37 -104t-22 -101t-7 -85zM126 1088q-6 30 2 46t24 24t36 10t36 2t35 -2t35 -10t24 -24t0 -46q-6 -28 -34 -54t-60 -26q-16 0 -32 7t-29 19t-22 26t-15 28zM422 1088q-8 30 1 46t25 24t36 10t36 2q14 0 34 -2t36 -10t24 -24t0 -46 q-2 -14 -12 -28t-23 -26t-29 -19t-30 -7q-34 0 -62 26t-36 54z" />
<glyph unicode="&#xf7;" horiz-adv-x="568" d="M28 422l40 38q0 2 18 4t57 5t101 8t152 11q8 0 26 2t37 3t36 3t27 2q0 -28 -11 -49t-37 -35q-48 -4 -87 -8t-77 -8t-78 -7t-88 -7q-4 0 -19 -1t-23 -1q-26 0 -44 4t-30 36zM194 660q0 18 8 30t26 16t48 -2t74 -26q-20 -30 -41 -54t-53 -24q-26 0 -44 18t-18 42zM270 180 q0 30 14 54t48 24t48 -25t14 -55q0 -34 -15 -55t-67 -21q-16 0 -24 9t-12 21t-5 26t-1 22z" />
<glyph unicode="&#xf8;" horiz-adv-x="742" d="M48 366q0 46 8 107t26 123t45 122t65 107t88 76t112 29q26 0 52 -8l20 72q4 12 10 27t15 20t22 -4t31 -43l-32 -108v-2q56 -42 95 -112t59 -156t16 -168q0 -120 -46 -214t-117 -152t-153 -78q-60 -14 -116 -2l-30 -104l-60 60l22 74q-50 36 -86 100q-46 86 -46 234z M122 358q6 -122 42 -188q18 -34 40 -54l212 714h-20q-48 0 -86 -24t-69 -65t-53 -93t-37 -104t-22 -101t-7 -85zM270 76q44 -10 92 6q60 20 112 71t89 128t41 173q4 72 -11 140t-42 121t-67 85z" />
<glyph unicode="&#xf9;" horiz-adv-x="916" d="M38 776q0 10 13 20t32 16t37 8t26 -6q12 -248 47 -395t80 -215t97 -69t102 44t93 123t70 168t33 180t-16 160l120 14q2 -30 11 -99t20 -156t25 -181t24 -175t18 -138t8 -71h-86l-94 346q-28 -70 -68 -134t-87 -112t-99 -75t-103 -22t-99 47t-89 133t-71 235t-44 354z M348 1236l56 72q36 -36 55 -65t33 -58t30 -63t46 -82q0 -14 -6 -19t-17 -8t-24 -6t-29 -11q-26 44 -40 70t-27 48t-30 49t-47 73z" />
<glyph unicode="&#xfa;" horiz-adv-x="916" d="M38 776q0 10 13 20t32 16t37 8t26 -6q12 -248 47 -395t80 -215t97 -69t102 44t93 123t70 168t33 180t-16 160l120 14q2 -30 11 -99t20 -156t25 -181t24 -175t18 -138t8 -71h-86l-94 346q-28 -70 -68 -134t-87 -112t-99 -75t-103 -22t-99 47t-89 133t-71 235t-44 354z M316 1034q70 90 108 146l57 84t25 33t11 -3t17 -25t44 -31q-26 -36 -52 -63t-51 -54t-49 -56t-52 -61z" />
<glyph unicode="&#xfb;" horiz-adv-x="916" d="M38 776q0 10 13 20t32 16t37 8t26 -6q12 -248 47 -395t80 -215t97 -69t102 44t93 123t70 168t33 180t-16 160l120 14q2 -30 11 -99t20 -156t25 -181t24 -175t18 -138t8 -71h-86l-94 346q-28 -70 -68 -134t-87 -112t-99 -75t-103 -22t-99 47t-89 133t-71 235t-44 354z M216 1148l268 364q36 -36 63 -78t51 -88t48 -94t54 -96q0 -14 -6 -19t-17 -8t-24 -6t-29 -11q-26 44 -41 70t-27 49t-29 49t-49 72q-26 -34 -52 -62t-50 -55t-49 -55t-53 -62z" />
<glyph unicode="&#xfc;" horiz-adv-x="916" d="M38 776q0 10 13 20t32 16t37 8t26 -6q12 -248 47 -395t80 -215t97 -69t102 44t93 123t70 168t33 180t-16 160l120 14q2 -30 11 -99t20 -156t25 -181t24 -175t18 -138t8 -71h-86l-94 346q-28 -70 -68 -134t-87 -112t-99 -75t-103 -22t-99 47t-89 133t-71 235t-44 354z M214 1088q-6 30 2 46t24 24t36 10t36 2t35 -2t35 -10t24 -24t0 -46q-6 -28 -34 -54t-60 -26q-16 0 -32 7t-29 19t-22 26t-15 28zM510 1088q-8 30 1 46t25 24t36 10t36 2q14 0 34 -2t36 -10t24 -24t0 -46q-2 -14 -12 -28t-23 -26t-29 -19t-30 -7q-34 0 -62 26t-36 54z" />
<glyph unicode="&#xfd;" horiz-adv-x="768" d="M20 862q44 40 70 45t30 1q14 -20 47 -74t76 -126t91 -152t91 -152t74 -128t43 -78l92 742l100 -50l-216 -1716l-90 6q0 100 18 206t37 212t32 212t3 208zM242 1034q70 90 108 146l57 84t25 33t11 -3t17 -25t44 -31q-26 -36 -52 -63t-51 -54t-49 -56t-52 -61z" />
<glyph unicode="&#xfe;" horiz-adv-x="806" d="M52 1190q0 10 16 18t35 11t34 1t15 -12v-175t-1 -111t-2 -62t1 -26t5 -4l9 6q54 26 121 30t134 -13t131 -51t114 -84t83 -113t41 -135q0 -104 -57 -191t-147 -148t-196 -92t-200 -25l-12 -228l-78 8zM181 180q1 -44 3 -64q26 4 70 5t97 9t110 25t105 51t84 89t50 139 q0 78 -26 138t-72 100t-108 61t-134 21q-40 -2 -76 1t-61 0t-37 -21t-4 -60q2 -20 2 -64t-1 -99t-1 -116t-1 -116t0 -99z" />
<glyph unicode="&#xff;" horiz-adv-x="768" d="M20 862q44 40 70 45t30 1q14 -20 47 -74t76 -126t91 -152t91 -152t74 -128t43 -78l92 742l100 -50l-216 -1716l-90 6q0 100 18 206t37 212t32 212t3 208zM138 1088q-6 30 2 46t24 24t36 10t36 2t35 -2t35 -10t24 -24t0 -46q-6 -28 -34 -54t-60 -26q-16 0 -32 7t-29 19 t-22 26t-15 28zM434 1088q-8 30 1 46t25 24t36 10t36 2q14 0 34 -2t36 -10t24 -24t0 -46q-2 -14 -12 -28t-23 -26t-29 -19t-30 -7q-34 0 -62 26t-36 54z" />
<glyph unicode="&#x152;" horiz-adv-x="1634" d="M36 664q0 66 9 140t30 145t54 136t80 114t110 78t143 29q70 0 124 -39t94 -101q6 -10 10 -18q24 24 54 44q54 34 119 55t139 33t147 19t141 9t120 2q4 0 18 -1t29 -2t29 -2t20 -1q8 -42 -10 -59t-45 -20t-56 2t-43 1q-20 -2 -63 -11t-95 -21t-111 -24t-112 -24t-95 -21 t-62 -15q-32 -10 -36 -29t-4 -43q0 -40 4 -92l10 -82v-6q18 -80 24 -156v-6l2 -8q8 -2 28 -2h30q48 0 92 8t88 17t90 17t94 8v-74q-20 0 -57 -4t-79 -11t-87 -16t-81 -19t-58 -20t-22 -20v-416q94 0 187 6t187 13t188 13t188 6q0 -26 -16 -41t-38 -23t-45 -12t-37 -6 q-6 -2 -48 -6t-105 -12t-138 -16l-150 -16t-141 -15t-108 -11q-6 -2 -18 -2q0 114 -4 230q-18 -44 -40 -82q-46 -74 -112 -122t-160 -64q-90 0 -154 32t-110 84t-74 120t-43 142t-20 149t-5 139zM112 664q0 -48 2 -108t11 -121t27 -120t49 -104t78 -73t113 -28q96 -6 158 24 t100 92t58 150t32 200v14q-14 198 -52 390q-20 66 -48 120q-30 60 -73 96t-103 36q-62 0 -112 -29t-89 -76t-68 -107t-47 -123t-27 -124t-9 -109z" />
<glyph unicode="&#x153;" horiz-adv-x="1212" d="M48 366q0 46 8 107t26 123t45 122t65 107t88 76t112 29q64 0 119 -44t93 -116q28 -50 46 -108q22 40 48 78q44 62 102 105t120 43q32 0 66 -14t65 -37t55 -52t39 -61t15 -62t-18 -52l-420 -78q-8 -2 -14 -19t-11 -43t-8 -57t-4 -60t-2 -52t-1 -35q0 -56 27 -91t69 -53 t95 -24t105 -6t99 4t77 4q0 -8 -6 -18t-15 -19l-16 -16t-11 -9q-14 -4 -48 -11t-71 -13t-69 -10t-42 -4q-64 -12 -109 2t-78 48t-53 82q-12 32 -22 66q-42 -70 -96 -116q-72 -58 -153 -78t-152 11t-118 117t-47 234zM122 358q6 -122 42 -188t87 -87t111 -1t112 71t88 127 q24 48 34 104q0 44 6 86v40q0 44 -10 84q-14 68 -41 121t-66 84t-89 31q-48 0 -86 -24t-69 -65t-53 -93t-37 -104t-22 -101t-7 -85zM736 626q52 -6 109 2t102 25t75 40t30 47t-37 43t-125 29q-18 0 -46 -19t-54 -48t-42 -62t-12 -57z" />
<glyph unicode="&#x178;" horiz-adv-x="908" d="M8 1460l40 36q74 -80 129 -147t99 -126t80 -113t75 -109t85 -112t108 -121q12 56 23 125t23 143t26 151t32 148t39 133t49 106q2 2 9 2h11q6 0 17 -2t21 -7t16 -13t2 -18q-22 -46 -45 -124t-44 -175t-39 -210t-33 -229t-27 -231t-18 -215t-5 -182t9 -132q-4 -22 -7 -33 t-13 -17t-30 -7t-56 -1v672q-30 44 -81 108t-109 139t-120 155t-115 155t-93 140t-58 111zM198 1652q-6 30 2 46t24 24t36 10t36 2t35 -2t35 -10t24 -24t0 -46q-6 -28 -34 -54t-60 -26q-16 0 -32 7t-29 19t-22 26t-15 28zM494 1652q-8 30 1 46t25 24t36 10t36 2q14 0 34 -2 t36 -10t24 -24t0 -46q-2 -14 -12 -28t-23 -26t-29 -19t-30 -7q-34 0 -62 26t-36 54z" />
<glyph unicode="&#x2c6;" horiz-adv-x="596" d="M46 1148l268 364q36 -36 63 -78t51 -88t48 -94t54 -96q0 -14 -6 -19t-17 -8t-24 -6t-29 -11q-26 44 -41 70t-27 49t-29 49t-49 72q-26 -34 -52 -62t-50 -55t-49 -55t-53 -62z" />
<glyph unicode="&#x2dc;" horiz-adv-x="622" d="M86 1004q0 94 30 132t98 38q38 -18 63 -43l46 -46t38 -33t37 -4t46 41t62 103q12 0 27 -10t15 -30q-32 -82 -63 -123t-59 -52t-56 1t-54 34t-50 46t-48 42q-22 16 -35 5t-23 -34t-18 -50t-16 -43t-18 -13t-22 39z" />
<glyph unicode="&#x2000;" horiz-adv-x="975" />
<glyph unicode="&#x2001;" horiz-adv-x="1950" />
<glyph unicode="&#x2002;" horiz-adv-x="975" />
<glyph unicode="&#x2003;" horiz-adv-x="1950" />
<glyph unicode="&#x2004;" horiz-adv-x="650" />
<glyph unicode="&#x2005;" horiz-adv-x="487" />
<glyph unicode="&#x2006;" horiz-adv-x="325" />
<glyph unicode="&#x2007;" horiz-adv-x="325" />
<glyph unicode="&#x2008;" horiz-adv-x="243" />
<glyph unicode="&#x2009;" horiz-adv-x="390" />
<glyph unicode="&#x200a;" horiz-adv-x="108" />
<glyph unicode="&#x2010;" horiz-adv-x="778" d="M28 422l40 38q0 2 45 9t115 15t158 16t178 16q8 0 32 1t49 2t48 2t33 1q0 -26 -11 -48t-35 -34q-48 -6 -120 -13t-148 -15t-148 -16t-120 -12q-4 0 -19 -1t-23 -1q-26 0 -44 4t-30 36z" />
<glyph unicode="&#x2011;" horiz-adv-x="778" d="M28 422l40 38q0 2 45 9t115 15t158 16t178 16q8 0 32 1t49 2t48 2t33 1q0 -26 -11 -48t-35 -34q-48 -6 -120 -13t-148 -15t-148 -16t-120 -12q-4 0 -19 -1t-23 -1q-26 0 -44 4t-30 36z" />
<glyph unicode="&#x2012;" horiz-adv-x="778" d="M28 422l40 38q0 2 45 9t115 15t158 16t178 16q8 0 32 1t49 2t48 2t33 1q0 -26 -11 -48t-35 -34q-48 -6 -120 -13t-148 -15t-148 -16t-120 -12q-4 0 -19 -1t-23 -1q-26 0 -44 4t-30 36z" />
<glyph unicode="&#x2013;" horiz-adv-x="618" d="M28 422l40 38q0 2 18 4t57 5t101 8t152 11q8 0 32 2t50 3t49 1h33q0 -26 -12 -48t-36 -36q-96 -8 -184 -13t-184 -13q-4 0 -19 -1t-23 -1q-26 0 -44 4t-30 36z" />
<glyph unicode="&#x2014;" horiz-adv-x="878" d="M11 414q1 16 9 46q4 4 54 6t127 3t172 3t187 4t172 6t130 10q0 -28 -10 -49t-36 -35q-38 -2 -99 -3t-133 -4t-151 -6t-151 -6t-132 -5t-94 -2q-12 0 -23 1t-17 8t-5 23z" />
<glyph unicode="&#x2018;" horiz-adv-x="182" d="M28 1382q0 10 16 24t24 14q50 -32 64 -85t14 -109q0 -12 1 -29t-1 -34t-11 -31t-29 -20q-16 6 -30 44t-25 84t-17 88t-6 54z" />
<glyph unicode="&#x2019;" horiz-adv-x="182" d="M28 1382q0 10 16 24t24 14q50 -32 64 -85t14 -109q0 -12 1 -29t-1 -34t-11 -31t-29 -20q-16 6 -30 44t-25 84t-17 88t-6 54z" />
<glyph unicode="&#x201a;" horiz-adv-x="246" d="M56 134q0 10 15 25t23 15q52 -34 67 -86t15 -108v-30t-2 -35t-12 -31t-28 -18q-18 4 -31 42t-24 84t-17 88t-6 54z" />
<glyph unicode="&#x201c;" horiz-adv-x="432" d="M38 1208q0 26 3 64t16 73t36 60t59 25v-340q-54 0 -84 33t-30 85zM266 1266v38t7 41t21 33t40 14q0 -12 2 -41t3 -61t3 -60t2 -40q0 -4 7 -21t14 -36t13 -36t6 -21q0 -6 -5 -12t-11 -12t-12 -11t-12 -5q-26 34 -42 61t-24 53t-10 53t-2 63z" />
<glyph unicode="&#x201d;" horiz-adv-x="500" d="M38 1268q0 8 15 22t23 14q62 -36 90 -99t28 -131q0 -16 -2 -36t-8 -39t-18 -31t-32 -12q-2 0 -9 1t-9 3q-2 14 -7 47t-11 69t-12 69t-10 45q0 4 -6 15t-13 24t-13 24t-6 15zM260 1318q56 0 94 -35t61 -85t33 -105t10 -95h-74q-4 48 -24 88t-42 78t-40 74t-18 80z" />
<glyph unicode="&#x201e;" horiz-adv-x="432" d="M44 190q4 46 8 82t10 54t15 12t19 -48t24 -124t32 -216q-26 0 -46 28t-35 66t-21 79t-6 67zM266 126v38t7 41t21 33t40 14q0 -12 2 -41t3 -61t3 -60t2 -40q0 -4 7 -20t14 -36t13 -37t6 -21q0 -6 -5 -12t-11 -12t-12 -11t-12 -5q-26 34 -42 61t-24 53t-10 54t-2 62z" />
<glyph unicode="&#x2022;" horiz-adv-x="384" d="M120 446q-8 30 0 55t23 45t33 30t34 10q14 0 34 -8t36 -24t25 -39t1 -53q-4 -14 -14 -30t-24 -32t-31 -27t-31 -11q-32 0 -55 28t-31 56z" />
<glyph unicode="&#x2026;" horiz-adv-x="884" d="M64 76q-8 30 1 47t25 25t36 9t36 1q14 0 34 -1t36 -9t24 -25t0 -47q-2 -14 -12 -27t-23 -25t-29 -20t-30 -8q-16 0 -32 8t-30 20t-23 25t-13 27zM360 76q-8 30 0 47t24 25t36 9t36 1q14 0 34 -1t36 -9t25 -25t1 -47q-4 -14 -13 -27t-23 -25t-30 -20t-30 -8q-34 0 -61 27 t-35 53zM654 76q-8 30 0 47t25 25t36 9t37 1q14 0 34 -1t35 -9t24 -25t1 -47q-4 -14 -13 -27t-22 -25t-29 -20t-30 -8q-18 0 -33 8t-29 20t-24 25t-12 27z" />
<glyph unicode="&#x202f;" horiz-adv-x="390" />
<glyph unicode="&#x2039;" horiz-adv-x="720" d="M64 326q0 4 1 11t3 7l422 576h46q0 -48 -21 -102t-54 -107t-75 -103t-81 -93t-72 -77t-51 -54v-76q18 -6 51 -21t75 -34t87 -39t87 -40t75 -36t47 -22q6 -4 18 -14t24 -22t23 -24t13 -18q-12 -24 -24 -32t-32 -8q-16 0 -64 22t-110 55t-130 72t-125 76t-95 65t-38 38z " />
<glyph unicode="&#x203a;" horiz-adv-x="652" d="M58 920v116q16 -14 49 -41t75 -61t87 -72t87 -71t75 -60t51 -39q18 -14 44 -25t51 -26t43 -34t18 -49q0 -4 -1 -11t-3 -11q-14 -18 -40 -57t-60 -88t-72 -104t-72 -104t-61 -88t-39 -57q-18 -22 -34 -35t-44 -13v86l306 460z" />
<glyph unicode="&#x205f;" horiz-adv-x="487" />
<glyph unicode="&#x20ac;" horiz-adv-x="992" d="M22 620v58q52 6 118 14l32 2q12 58 32 118q26 80 65 155t90 134t116 95t143 36q74 -12 143 -33t111 -46t48 -52t-42 -53q-44 0 -75 17t-60 36t-63 36t-84 17q-66 0 -117 -36t-89 -93t-63 -129t-41 -144l-8 -48q66 6 134 12q70 4 136 4v-82l-282 -10v-14q-6 -68 -6 -114 q0 -2 -2 -6q32 4 62 6q64 4 117 4t91 -4t46 -14v-50q0 -2 -30 -2t-78 -1t-110 -5l-102 -2q0 -34 4 -68q8 -72 34 -133t76 -102t132 -47q52 0 116 17t127 40t121 50t98 47v-78q-2 -6 -25 -21t-62 -33t-86 -37t-96 -35t-94 -24t-79 -4q-110 0 -181 47t-113 122t-58 169 q-8 42 -10 86l-34 -4q-52 -4 -86 -8q-2 0 -2 8v20q0 10 -2 20q-2 6 -4 8q20 6 68 12q24 4 54 6v34q0 48 8 106z" />
<glyph unicode="&#x2122;" horiz-adv-x="1728" d="M6 1086l32 104q2 2 31 5t77 8t108 11t123 12t124 12t113 12l30 3t66 8t67 8t37 3q8 0 14 -1t12 -1q0 12 -1 23t-1 23q14 0 27 2t23 3t18 -3t14 -18l270 -608l230 576q4 10 15 17t24 13t27 9t24 3q2 0 2 -6t4 -42t13 -113t29 -218t51 -358t79 -535q-8 -18 -21 -24t-24 -4 t-20 9t-11 19l-152 1074l-232 -576h-76l-192 384v-882l-88 -12q-4 60 -7 145t-5 185t-4 209t-5 216t-5 206t-4 179l-382 -54q-4 -126 4 -264t20 -279t23 -279t11 -264q0 -18 -11 -25t-26 -9t-31 1t-28 7q-6 26 -12 90t-12 150t-12 186l-12 200t-12 191t-10 160t-7 107t-5 28 z" />
<glyph unicode="&#xe000;" horiz-adv-x="1000" d="M0 0v1000h1000v-1000h-1000z" />
<glyph unicode="&#xfb01;" horiz-adv-x="944" d="M20 576l270 116q-38 300 -27 501t58 324t124 180t171 71q74 0 141 -29t118 -79t82 -116t31 -140q-32 0 -59 21t-51 53t-48 69t-53 69t-63 53t-80 21q-40 -8 -79 -33t-72 -71t-59 -117t-40 -175t-15 -245t17 -323l222 2v36q24 0 41 1t29 -21q6 -88 14 -181t16 -188 t11 -189t1 -184q0 -12 -6 -15t-17 -3t-26 1t-33 -3l-26 670q-22 -8 -56 -15t-69 -12t-65 -8t-42 -5q-2 -94 2 -179t6 -162t-1 -144t-21 -129h-58q-8 0 -17 -2t-16 -3t-11 2t-4 15q18 128 24 212t5 145t-3 108t0 99q-26 0 -56 -12t-62 -27t-63 -27t-57 -12q-10 0 -13 8t-5 20 t-3 25t-7 27zM492 1120q0 14 2 31t9 31t18 24t27 10q24 0 48 -1t46 -9t36 -23t14 -41q0 -50 -36 -87t-88 -37q-40 0 -58 31t-18 71zM602 1100q0 -10 6 -10q8 0 8 10t-8 10q-6 0 -6 -10z" />
<glyph unicode="&#xfb02;" horiz-adv-x="892" d="M20 576l270 116q-38 300 -27 501t58 324t124 180t171 71q74 0 141 -29t118 -79t82 -116t31 -140q-32 0 -59 21t-51 53t-48 69t-53 69t-63 53t-80 21q-40 -8 -79 -33t-72 -71t-59 -117t-40 -175t-15 -245t17 -323l216 2q-2 50 -4 102q-4 150 -9 288t-5 238v32t2 49t3 48 t1 33q28 -4 48 -15t32 -39q2 -38 5 -105t6 -155t7 -190t7 -206t6 -206t6 -190t6 -156t3 -104v-14t-1 -24t-3 -27t-2 -19v-29t-4 -33t-14 -29t-30 -15l-34 42q-2 2 -5 75t-7 190t-8 263q-2 58 -6 116q-18 -6 -46 -12q-34 -6 -69 -11t-65 -8t-42 -5q-2 -94 2 -179t6 -162 t-1 -144t-21 -129h-58q-8 0 -17 -2t-16 -3t-11 2t-4 15q18 128 24 212t5 145t-3 108t0 99q-26 0 -56 -12t-62 -27t-63 -27t-57 -12q-10 0 -13 8t-5 20t-3 25t-7 27z" />
</font>
</defs>
</svg>
