<?xml version="1.0" standalone="no"?>
<!DOCTYPE svg PUBLIC "-//W3C//DTD SVG 1.1//EN" "http://www.w3.org/Graphics/SVG/1.1/DTD/svg11.dtd" >
<svg xmlns="http://www.w3.org/2000/svg">
<metadata></metadata>
<defs>
<font id="quattrocentoregular" horiz-adv-x="1562" >
<font-face units-per-em="2048" ascent="1638" descent="-410" />
<missing-glyph horiz-adv-x="491" />
<glyph unicode="&#xfb01;" horiz-adv-x="1249" d="M70 0l2 29l8 8q33 0 64.5 3t48.5 19q12 12 20 32t11 65t4 120.5t1 202.5v367h-151l-8 10v37l8 8l151 31v63q0 121 22.5 219.5t72 167t127 106.5t188.5 38q92 0 172 -23.5t133 -60.5l10 -21l-24 -157h-53q-16 78 -80 119.5t-187 41.5q-84 0 -132 -27.5t-73.5 -73.5 t-32.5 -105.5t-7 -122.5v-164q229 0 402 4t284 14l12 -18q-4 -8 -7 -28.5t-4 -44t-2 -46t-1 -35.5q0 -16 -1 -31.5t-1 -36t-1.5 -49t-1.5 -73.5v-230q0 -45 1.5 -73.5t2.5 -49t2 -38t3 -37.5q4 -43 9 -64.5t21 -36.5q16 -14 46 -18t61 -4l10 -10l4 -27l-4 -8q-14 0 -43 2 t-61.5 3t-61 2t-43.5 1h-28q-14 0 -44 -1t-62 -2t-61.5 -3t-43.5 -2l-2 8l2 29l8 8q33 0 64.5 3t47.5 19q16 14 21.5 37t9.5 64q2 33 4 66.5t2 107.5v252v72.5t-1 52t-2 41t-3 39.5q-2 8 -5 18t-12 18.5t-27.5 13.5t-49.5 5h-444v-318v-144t1 -98t3 -69t4 -57q4 -31 9 -58.5 t21 -42.5q10 -8 30 -12t41.5 -6t42 -3t32.5 -1l10 -10l4 -27l-4 -8q-14 0 -46 2t-66.5 3t-66.5 2t-46 1h-49q-14 0 -44 -1t-63 -2t-62.5 -3t-43.5 -2z" />
<glyph unicode="&#xfb02;" horiz-adv-x="1241" d="M70 0l2 29l8 8q33 0 64.5 3t48.5 19q12 12 20 32t11 65t4 120.5t1 202.5v367h-151l-8 10v37l8 8l151 31v63q0 121 22.5 219.5t73 167t132.5 106.5t200 38q78 0 142.5 -13.5t124.5 -13.5q14 0 34.5 2t81.5 15l13 -19q-4 -8 -6.5 -29.5t-4.5 -46t-3 -47t-1 -35.5 q-2 -33 -3 -61.5t-2 -67.5t-1 -94v-141v-447v-141t2 -94t3 -67.5t5 -65.5q4 -43 8.5 -64.5t20.5 -36.5q16 -14 46 -18t61 -4l10 -10l4 -27l-4 -8q-14 0 -43 2t-61.5 3t-61.5 2t-43 1h-29q-14 0 -43.5 -1t-61.5 -2t-61.5 -3t-44.5 -2l-2 8l2 29l9 8q33 0 64.5 3t47.5 19 q16 14 21.5 37t9.5 64q2 27 3 53.5t2 62t1 84v119.5v750q0 111 -66.5 153.5t-187.5 42.5q-96 0 -151.5 -27.5t-83 -73.5t-35.5 -105.5t-8 -122.5v-164l260 12l10 -8v-80l-10 -10h-260v-318v-144t1 -98t3 -69t4 -57q4 -31 9 -58.5t21 -42.5q10 -8 30 -12t41.5 -6t42 -3 t32.5 -1l10 -10l4 -27l-4 -8q-14 0 -46 2t-66.5 3t-66.5 2t-46 1h-49q-14 0 -44 -1t-63 -2t-62.5 -3t-43.5 -2z" />
<glyph horiz-adv-x="0" />
<glyph unicode="&#xd;" horiz-adv-x="518" />
<glyph horiz-adv-x="0" />
<glyph horiz-adv-x="0" />
<glyph unicode=" "  horiz-adv-x="491" />
<glyph unicode="&#x09;" horiz-adv-x="491" />
<glyph unicode="&#xa0;" horiz-adv-x="491" />
<glyph unicode="!" horiz-adv-x="503" d="M156 72q0 39 27.5 68.5t68.5 29.5q37 0 66.5 -29.5t29.5 -68.5t-29.5 -67t-66.5 -28q-41 0 -68.5 28t-27.5 67zM160 1333l8 19l168 53l10 -6q0 -18 -1 -33.5t-1 -26.5q-2 -23 -4 -45t-5 -60t-7 -100.5t-9.5 -165t-10.5 -253t-9 -363.5l-10 -14l-72 -33l-12 8 q-4 203 -9.5 351.5t-9.5 254t-8 176t-8 116.5t-6 74t-4 48z" />
<glyph unicode="&#x22;" horiz-adv-x="626" d="M109 1468l2 9l137 18l4 -8q-14 -88 -19.5 -192.5t-5.5 -209.5l-4 -8l-86 -20l-4 10q-2 98 -7 201.5t-17 199.5zM381 1468l4 9l135 18l4 -8q-14 -88 -18 -192.5t-6 -209.5l-4 -8l-86 -20l-4 10q-2 98 -7.5 201.5t-17.5 199.5z" />
<glyph unicode="#" horiz-adv-x="1273" d="M86 455l18 108h252l52 244h-263l19 106h266q20 98 38.5 210t27.5 208l4 8h155l4 -8q-35 -96 -63.5 -207.5t-50.5 -210.5h274q20 98 39 210t27 208l4 8h155l5 -8q-35 -96 -64 -207.5t-51 -210.5h258l-18 -106h-263l-51 -244h268l-18 -108h-274q-23 -117 -41.5 -233 t-28.5 -214l-6 -8h-156l-2 8q35 98 63.5 214t55.5 233h-275q-23 -117 -41 -233t-28 -214l-6 -8h-156l-2 8q35 98 63.5 214t55.5 233h-246zM471 563h274l52 244h-277z" />
<glyph unicode="$" horiz-adv-x="1091" d="M100 129l35 207h51l11 -10q10 -113 87.5 -169.5t219.5 -60.5q4 78 4 156v154v227q-4 0 -6 2q-82 25 -151.5 54.5t-121 72.5t-80 100.5t-28.5 136.5q0 86 28.5 146.5t79 100.5t120 61.5t153.5 25.5q-2 51 -6 101.5t-9 95.5l5 6h124l5 -6q-6 -45 -9.5 -95.5t-7.5 -101.5 q94 -4 175 -23.5t134 -41.5l9 -23l-29 -174h-57l-9 10q-4 43 -25.5 72t-54 47.5t-70.5 26.5t-75 12q-2 -66 -2 -124v-105v-234q2 -2 6 -2q76 -23 148.5 -53.5t130 -76.5t91.5 -112.5t34 -160.5q0 -90 -32 -154.5t-86 -109t-128 -69t-158 -30.5q2 -53 6 -102t9 -96l-5 -7 h-124l-5 7q4 45 7.5 94t7.5 100q-119 2 -217.5 28.5t-175.5 67.5zM270 1024q0 -47 14.5 -80t43 -57.5t73.5 -44t107 -37.5v205v105.5t-2 123.5q-113 -10 -174.5 -64.5t-61.5 -150.5zM600 254q0 -78 2 -156q129 16 189.5 82t60.5 164q0 55 -20.5 96t-54.5 72t-80 52.5 t-97 39.5v-198v-152z" />
<glyph unicode="%" horiz-adv-x="1603" d="M90 979q0 80 20.5 149.5t58.5 122t93 82t125 29.5t125 -31t94 -82t58.5 -118.5t19.5 -143.5q0 -74 -19.5 -142.5t-57.5 -120.5t-95 -84t-131 -32q-72 0 -126 30t-91 80t-55.5 117.5t-18.5 143.5zM190 987q0 -141 55.5 -221t141.5 -80q47 0 84 23.5t61.5 64.5t38 96.5 t13.5 116.5q0 63 -14.5 117.5t-40 94.5t-63.5 62.5t-83 22.5q-47 0 -83 -22.5t-60.5 -62.5t-37 -94t-12.5 -118zM252 39l2 8q57 68 106.5 129.5t97.5 122.5t96 127t103 143l246 338q76 104 158 219t153 244l11 8h155l-2 -8q-113 -125 -199.5 -242.5t-160.5 -220.5l-246 -338 q-55 -78 -102 -143.5t-89 -126.5t-82 -122.5t-81 -129.5l-10 -8h-156zM926 348q0 80 20.5 149.5t58 122t92 82t124.5 29.5q72 0 127 -30.5t94 -82t58.5 -119t19.5 -143.5q0 -74 -19.5 -142.5t-58.5 -120.5t-96.5 -84t-131.5 -32q-72 0 -126 30t-89.5 80t-54 117.5 t-18.5 143.5zM1026 356q0 -141 54.5 -221t140.5 -80q47 0 83.5 23.5t62.5 64.5t39 96.5t13 116.5q0 63 -14 117.5t-40 94.5t-63.5 62.5t-84.5 22.5t-82 -22.5t-59.5 -62.5t-37 -94t-12.5 -118z" />
<glyph unicode="&#x26;" horiz-adv-x="1546" d="M109 352q0 61 18 123t53 116t85 98t114 69q-66 86 -94.5 150.5t-28.5 142.5q0 145 88 226t225 81q43 0 87 -8.5t82 -27.5t64.5 -50t37.5 -76l6 -20l-25 -146h-67l-9 8q-10 121 -56 168t-124 47q-90 0 -129 -52t-39 -120q0 -78 33 -149q16 -37 50 -84t95.5 -120 t156.5 -175t235 -250q51 96 51 193q0 59 -19.5 116.5t-56.5 116.5q-47 -2 -67.5 -15.5t-36.5 -35.5l-29 14q0 14 12.5 41t37 52.5t60 44t85.5 18.5q18 0 50.5 -3t72.5 -6t83 -5.5t84 -2.5q39 0 74 8.5t62 45.5l26 -17q0 -6 -10 -31.5t-31.5 -53t-56.5 -50t-86 -22.5 q-25 0 -83.5 4t-115.5 8q31 -47 46.5 -107.5t15.5 -126.5q0 -72 -18.5 -143.5t-59.5 -132.5q78 -78 155.5 -123t188.5 -49l12 -8l6 -37l-6 -8q-20 0 -52 -1t-64.5 -3t-59.5 -3t-39 -1q-61 0 -120.5 38.5t-112.5 92.5q-78 -63 -178.5 -97t-211.5 -34q-90 0 -174 23.5 t-149.5 70.5t-104 116.5t-38.5 161.5zM256 367q0 -72 30.5 -124.5t79 -86t109 -51t119.5 -17.5q78 0 154 28t135 81q-104 115 -211 227.5t-217 241.5q-51 -16 -88 -49t-61.5 -75t-37 -88t-12.5 -87z" />
<glyph unicode="'" horiz-adv-x="352" d="M109 1468l2 9l137 18l4 -8q-14 -88 -19.5 -192.5t-5.5 -209.5l-4 -8l-86 -20l-4 10q-2 98 -7 201.5t-17 199.5z" />
<glyph unicode="(" horiz-adv-x="555" d="M82 670q0 262 108.5 495.5t305.5 413.5l30 -23v-10q-86 -106 -146.5 -224t-92.5 -251q-29 -113 -35 -218t-6 -183q0 -84 7 -185.5t34.5 -214t84 -233.5t154.5 -244v-10l-30 -23q-197 176 -305.5 412t-108.5 498z" />
<glyph unicode=")" horiz-adv-x="555" d="M29 -207q98 123 153.5 244t83 234.5t34.5 214t7 184.5q0 78 -6 182t-35 219q-33 133 -92 250t-145 225v10l30 23q197 -178 305.5 -412.5t108.5 -496.5q0 -129 -28.5 -255t-82 -243t-130 -221.5t-173.5 -190.5l-30 23v10z" />
<glyph unicode="*" horiz-adv-x="899" d="M133 975q0 2 1 6t1 8q72 27 130.5 52.5t121.5 60.5q-47 25 -76.5 39t-53.5 24.5t-49.5 19.5t-64.5 21l-4 15q23 29 36 49t26 49l8 2q12 -10 24.5 -21.5t36 -29t59.5 -44t95 -69.5q-4 39 -9 73t-10.5 65.5t-13.5 63.5t-18 71l6 8q18 -4 28.5 -4h30.5h28.5t29.5 4 q2 -4 3 -4t3 -2q-14 -59 -17.5 -128t-3.5 -147q37 29 64.5 50.5t50 42t43 40t45.5 43.5q2 -6 10 -6q12 -25 23.5 -46t34.5 -50q-2 -4 -2 -8v-6q-37 -14 -68 -26.5t-59.5 -26t-57 -28t-63.5 -32.5q37 -20 66.5 -35.5t59 -28t62.5 -22.5t78 -23l4 -10q-25 -29 -37 -49.5 t-22 -52.5q-4 0 -6 -1t-5 -1q-51 43 -98 77.5t-123 83.5q6 -59 10.5 -99t7.5 -69.5t7 -53t10 -48.5l-8 -6q-20 2 -29.5 2h-25.5h-27.5t-30.5 -2l-6 6q10 61 15.5 118.5t15.5 153.5q-43 -31 -74 -52t-55.5 -39.5t-45 -36t-44.5 -37.5q-4 0 -5 1t-6 1q-12 29 -23 48t-34 46z " />
<glyph unicode="+" horiz-adv-x="1013" d="M102 436l19 107h332v331h106v-331h352l-20 -107h-332v-352h-106v352h-351z" />
<glyph unicode="," horiz-adv-x="436" d="M104 -178q29 59 38.5 106t9.5 74q0 23 -11.5 45.5t-11.5 54.5q0 16 12.5 29.5t29.5 22t38.5 12.5t40.5 4q16 0 26.5 -9t15.5 -23.5t7 -29t2 -26.5q0 -47 -19.5 -93t-46 -84t-56 -65.5t-50.5 -38.5h-12l-13 13v8z" />
<glyph unicode="-" horiz-adv-x="964" d="M137 436l19 107h673l-20 -107h-672z" />
<glyph unicode="." horiz-adv-x="444" d="M127 72q0 39 26.5 68.5t67.5 29.5q39 0 68.5 -29.5t29.5 -68.5t-29.5 -67t-68.5 -28q-41 0 -67.5 28t-26.5 67z" />
<glyph unicode="/" horiz-adv-x="888" d="M82 -109q68 137 131 301t119 318l137 377q18 51 43 118.5t48.5 140.5t45 146.5t35.5 137.5l6 8h160l2 -8q-35 -63 -65.5 -137t-59.5 -147t-53.5 -140.5t-42.5 -118.5l-139 -377q-57 -154 -112.5 -317.5t-88.5 -301.5l-6 -8h-160v8z" />
<glyph unicode="0" horiz-adv-x="1323" d="M119 659q0 145 37 273.5t106.5 223.5t170 150.5t229.5 55.5t230 -55.5t171 -150.5t106.5 -220t36.5 -262q0 -135 -35.5 -261t-105.5 -222.5t-174.5 -155t-239.5 -58.5q-133 0 -232.5 55.5t-166 148.5t-100 217t-33.5 261zM279 674q0 -137 27.5 -246t78.5 -184.5 t120.5 -116.5t153.5 -41q92 0 165 46t122 126t76 186.5t27 227.5q0 123 -28 229.5t-79 185t-124 122.5t-165 44t-161.5 -44t-116.5 -121.5t-71.5 -183t-24.5 -230.5z" />
<glyph unicode="1" horiz-adv-x="724" d="M86 1108v27l6 12q88 43 168 91t158 120h14l45 -19q-2 -16 -3 -37.5t-2 -44t-2 -43t-1 -32.5q-2 -33 -3 -61.5t-2 -67.5t-1 -94.5v-141.5v-289v-140t1 -91t2 -65.5t5 -63.5q4 -43 18.5 -64.5t30.5 -35.5q18 -14 57 -22.5t70 -8.5l10 -10l5 -27l-5 -8q-14 0 -42.5 2 t-61.5 3t-61.5 2t-42.5 1h-117q-14 0 -43 -1t-61.5 -2t-61.5 -3t-43 -2l-4 8l4 29l6 8q33 0 75 7t58 24q16 14 30.5 36.5t18.5 63.5q2 27 4 52.5t3 59t1 81v118.5v334v136t-1 87t-3 60.5t-4 58.5l-219 -55z" />
<glyph unicode="2" horiz-adv-x="1097" d="M94 10v47q45 57 122 144.5t163 184.5t170 196.5t143 181.5q47 66 79 131.5t32 138.5q0 102 -77 160.5t-189 58.5q-135 0 -219.5 -68.5t-92.5 -205.5l-8 -8h-70l-24 147l6 19q25 43 61.5 84t89 71.5t119 50t150.5 19.5q215 0 309 -95.5t94 -256.5q0 -96 -46 -176 t-113 -172q-57 -78 -134 -166t-146 -168t-117 -140.5t-48 -83.5l4 -6h160q123 0 196.5 3t114.5 19.5t60.5 48.5t34.5 91l10 12h55l-37 -264l-18 -20q-14 0 -68.5 2t-119 4t-125 4t-87.5 2h-202q-45 0 -101.5 -4t-109.5 -8z" />
<glyph unicode="3" horiz-adv-x="1114" d="M111 182l22 127h68l6 -8q2 -41 23.5 -80t61.5 -68.5t98.5 -48t133.5 -18.5q92 0 153.5 27.5t98.5 70.5t52.5 94.5t15.5 100.5q0 55 -17.5 109.5t-52.5 96.5t-88 68.5t-125 26.5h-65l-11 8l-6 57l10 11h37q59 0 105.5 23.5t78 61.5t48 88t16.5 103q0 43 -12 83t-41 71 t-79 49t-124 18t-122 -19.5t-78.5 -55t-47 -86t-24.5 -113.5l-8 -8h-68l-25 147l5 19q20 39 56 79.5t86 72.5t115.5 52.5t147.5 20.5q70 0 137.5 -19.5t119.5 -58.5t85 -98.5t33 -138.5q0 -63 -18.5 -114.5t-47 -90.5t-64.5 -64.5t-69 -38.5v-8q123 -23 195.5 -119 t72.5 -225q0 -90 -35.5 -166t-100 -130t-157 -84t-202.5 -30q-262 0 -391 187z" />
<glyph unicode="4" horiz-adv-x="1040" d="M43 502q39 68 89 149.5t105.5 167.5t112 170t104.5 154.5t86 123t56 76.5l133 19h16l25 -23q-2 -16 -3 -37.5t-2 -44t-2 -43t-1 -32.5q-2 -33 -3 -61.5t-2 -67.5t-1 -94.5v-141.5v-264h174l8 -12l-23 -84l-14 -11h-145v-94t1 -69.5t2 -57t5 -57.5q4 -43 19.5 -64.5 t31.5 -35.5t56 -22.5t71 -8.5l8 -10l4 -27l-4 -8q-14 0 -42.5 2t-60.5 3t-60.5 2t-43.5 1h-114q-14 0 -47 -1t-69 -2t-68.5 -3t-47.5 -2l-2 8l8 29l9 8q16 0 37.5 2t43 6t39 9t25.5 14q16 14 30.5 36.5t18.5 63.5q4 51 6 117.5t2 160.5h-530l-18 11zM197 553h417v260v92 t-1 100.5t-2 99.5t-3 85q-35 -41 -89 -115t-112.5 -164t-114.5 -184t-95 -174z" />
<glyph unicode="5" horiz-adv-x="1087" d="M109 164l22 145h74l6 -8q4 -92 79 -153.5t218 -61.5q92 0 155.5 26.5t102.5 71.5t56.5 105t17.5 123q0 86 -29 140t-74 86t-103.5 43t-115.5 11q-74 0 -145.5 -16.5t-130.5 -50.5h-21l-55 30l-4 15l65 653l13 16h184q55 0 163.5 3.5t250.5 13.5l18 -17l31 -221l-13 -14 h-36l-13 10q-8 45 -20 70.5t-47 38t-100.5 15.5t-178.5 3h-123q-12 0 -12 -10l-41 -459q53 20 117.5 30.5t136.5 10.5q84 0 162 -19.5t138.5 -63.5t96 -117.5t35.5 -184.5q0 -109 -37 -192.5t-103.5 -141t-158.5 -87.5t-203 -30q-143 0 -232 45.5t-144 120.5z" />
<glyph unicode="6" horiz-adv-x="1114" d="M137 621q0 125 18.5 257t71 239.5t144.5 176t239 68.5q33 0 76 -4t88 -15.5t88 -30t74 -46.5l-31 -129h-37q-20 35 -48.5 57.5t-61.5 35.5t-68 18t-65 5q-98 0 -164 -45t-107 -114.5t-58 -154.5t-17 -167q0 -23 1 -42t3 -40l6 -2q33 45 70.5 70.5t76.5 40t77 18.5t69 4 q137 0 222 -44t132 -106.5t62.5 -134t15.5 -126.5q0 -76 -23.5 -153t-76 -139.5t-135.5 -101.5t-199 -39q-123 0 -208 46.5t-137.5 130.5t-75 202.5t-22.5 264.5zM299 416q0 -49 12.5 -106.5t43 -106.5t85 -83t138.5 -34q141 0 218.5 92t77.5 236q0 47 -11 99t-41.5 95 t-86 72t-143.5 29q-147 0 -220 -80t-73 -213z" />
<glyph unicode="7" horiz-adv-x="1048" d="M74 1118l30 221l17 17q164 -8 327.5 -12.5t296.5 -4.5h281l10 -6l-10 -51q-14 -16 -48 -73.5t-77 -136.5t-92 -172t-94 -180t-82 -160t-53 -111q-47 -104 -86 -206t-76 -229l-10 -14q-49 0 -113 -4t-105 -8l-14 20q78 137 156 277.5t147.5 271.5t129 248t103.5 207 t68.5 147.5t24.5 73.5l-10 8h-279q-121 0 -193.5 -4t-111.5 -16.5t-54.5 -38t-23.5 -68.5l-12 -10h-37z" />
<glyph unicode="8" horiz-adv-x="1142" d="M119 381q0 125 60.5 224.5t187.5 142.5v8q-72 23 -125.5 86t-53.5 184q0 162 104.5 249t272.5 87q82 0 154 -21.5t124 -64.5t81.5 -106.5t29.5 -145.5q0 -61 -15 -106.5t-41 -77t-57.5 -52t-64.5 -32.5v-8q66 -20 113 -59.5t76.5 -88.5t44 -106.5t14.5 -112.5 q0 -74 -22.5 -146.5t-76 -129t-140.5 -92.5t-216 -36q-127 0 -214 35t-139 92.5t-74.5 130t-22.5 146.5zM274 371q0 -43 15.5 -93.5t50.5 -93.5t91 -70.5t140 -27.5t140.5 25.5t91.5 65.5t50 90t15 100q0 55 -16 111.5t-52 102.5t-93.5 75.5t-139.5 29.5t-138 -30.5t-90 -77 t-49.5 -101.5t-15.5 -106zM344 1036q0 -123 61.5 -186.5t165.5 -63.5q49 0 91.5 19.5t73 53.5t47 78t16.5 95q0 117 -59.5 169t-172.5 52q-119 0 -171 -56t-52 -161z" />
<glyph unicode="9" horiz-adv-x="1114" d="M100 930q0 76 23.5 152.5t76 139t134.5 101.5t201 39q123 0 207.5 -46t137 -130t75 -203t22.5 -264q0 -127 -19.5 -258t-71.5 -238.5t-144.5 -176.5t-239.5 -69q-33 0 -76 4.5t-88 14.5t-87 29.5t-73 48.5l31 129h37q41 -70 110.5 -93.5t132.5 -23.5q98 0 165 42 t107 112.5t57.5 162t17.5 187.5v16q0 8 -1 19.5t-4 23.5l-6 2q-35 -45 -72.5 -71.5t-76.5 -40t-76 -17.5t-68 -4q-139 0 -223 44t-131 106.5t-62.5 134t-15.5 127.5zM240 926q0 -47 11 -99.5t42 -95.5t86 -71.5t143 -28.5q147 0 219 80t72 213q0 49 -12.5 106t-43 106.5 t-85 83t-137.5 33.5q-139 0 -217 -92t-78 -235z" />
<glyph unicode=":" horiz-adv-x="464" d="M137 72q0 39 26.5 68.5t67.5 29.5q39 0 69 -29.5t30 -68.5t-30 -67t-69 -28q-41 0 -67.5 28t-26.5 67zM137 836q0 39 26.5 67.5t67.5 28.5q39 0 69 -29t30 -67q0 -41 -30 -69t-69 -28q-41 0 -67.5 28t-26.5 69z" />
<glyph unicode=";" horiz-adv-x="477" d="M131 -178q29 59 38 106t9 74q0 23 -11 45.5t-11 54.5q0 16 12 29.5t29.5 22t39 12.5t39.5 4q16 0 26.5 -9t16 -23.5t7.5 -29t2 -26.5q0 -47 -19.5 -93t-46 -84t-56.5 -65.5t-50 -38.5h-13l-12 13v8zM145 836q0 39 27 67.5t68 28.5q39 0 68.5 -29t29.5 -67 q0 -41 -29.5 -69t-68.5 -28q-41 0 -68 28t-27 69z" />
<glyph unicode="&#x3c;" horiz-adv-x="847" d="M90 487v11q147 86 294.5 181t289.5 200l8 -9l18 -77v-15q-111 -63 -226.5 -136t-219.5 -144v-11q104 -72 220 -143.5t226 -136.5v-14l-18 -78l-8 -9q-141 104 -288.5 199.5t-295.5 181.5z" />
<glyph unicode="=" horiz-adv-x="999" d="M154 281l18 106h674l-21 -106h-671zM154 592l18 106h674l-21 -106h-671z" />
<glyph unicode="&#x3e;" horiz-adv-x="847" d="M147 193v14q111 66 226.5 137.5t220.5 142.5v11q-104 72 -220 144.5t-227 135.5v15l19 77l8 9q141 -104 288.5 -199.5t295.5 -181.5v-11q-147 -86 -295 -181t-289 -200l-8 9z" />
<glyph unicode="?" horiz-adv-x="868" d="M94 1274l4 18q18 29 58.5 50.5t88.5 35t96 20.5t83 7q43 0 101.5 -14.5t110.5 -51t88 -100t36 -162.5q0 -63 -21.5 -121.5t-54.5 -113t-71 -103.5t-71.5 -95t-57 -87t-25.5 -78l-8 -127l-13 -14l-71 -33l-13 8q-2 51 -4 110.5t-2 88.5q0 82 43 152.5t94.5 140t94.5 143.5 t43 164q0 53 -19.5 92t-49.5 64.5t-65.5 38t-70.5 12.5q-55 0 -99.5 -18.5t-78 -50t-54 -73.5t-26.5 -87l-4 -7h-37zM307 74q0 41 27.5 68.5t66.5 27.5t69 -27.5t30 -68.5q0 -39 -30 -68t-69 -29t-66.5 29t-27.5 68z" />
<glyph unicode="@" horiz-adv-x="1478" d="M115 369q0 117 42 249t130 244.5t224 186t325 73.5q143 0 248.5 -45t174 -116.5t101.5 -161.5t33 -183q0 -90 -30 -174t-85 -148.5t-132 -103t-171 -38.5q-49 0 -79 11t-45 30.5t-20.5 47t-5.5 60.5q-35 -70 -87 -110.5t-105 -40.5q-31 0 -61.5 15t-55 46t-40 77 t-15.5 107q0 92 34.5 166t91 126t126 81t139.5 29q49 0 107.5 -16.5t93.5 -51.5l-76 -364q-4 -23 -6 -40.5t-2 -31.5q0 -29 12 -43t47 -14q55 0 101.5 31.5t80 83.5t52 120t18.5 137q0 76 -25.5 153t-80 138.5t-138.5 100t-202 38.5q-147 0 -260 -59t-189 -155.5 t-115 -216.5t-39 -238q0 -129 42 -221.5t112 -153t161 -88t189 -27.5q84 0 157 17.5t131 43t101 54.5t66 49l27 -20l-35 -70q-20 -18 -64.5 -46t-106 -53.5t-137 -43t-159.5 -17.5q-123 0 -231.5 41t-190.5 116t-130 181.5t-48 237.5zM596 369q0 -68 18.5 -99.5t47.5 -31.5 q27 0 56.5 21.5t56 55t48 74.5t29.5 80l51 256q-12 12 -51 12q-68 0 -117 -37.5t-79.5 -93t-45 -120t-14.5 -117.5z" />
<glyph unicode="A" horiz-adv-x="1382" d="M-39 -4l4 37l10 8q27 0 51.5 2t49 15.5t48 41t48.5 78.5q6 10 11 23.5t16.5 40t29 70.5t45 115t67.5 173t97 248q27 72 55.5 142.5t53 132t44 108.5t27.5 69l121 62h23l336 -930q20 -61 35.5 -102t26.5 -70t19.5 -48t14.5 -34q23 -51 46.5 -78.5t48 -41t50 -15.5t52.5 -2 l10 -8l6 -37l-4 -8q-14 0 -43 2t-59.5 4t-58.5 4t-42 2h-67q-14 0 -47 -2t-69 -4t-69 -4t-47 -2l-4 8l6 37l8 8q59 0 92 13.5t33 72.5q0 47 -31.5 132t-78.5 214l-35 98h-459l-35 -98q-47 -129 -78.5 -214t-31.5 -132q0 -59 32.5 -72.5t92.5 -13.5l10 -8l6 -37l-4 -8 q-14 0 -45 2t-64.5 4t-64.5 4t-45 2h-39q-14 0 -43 -2t-59.5 -4t-58.5 -4t-42 -2zM467 659h391l-194 527z" />
<glyph unicode="B" horiz-adv-x="1202" d="M88 -4l6 37l10 8q25 0 58 3t51 15q16 12 30.5 39t20.5 80q2 31 3 92.5t1 182.5v512v93t-4 103q-4 55 -19.5 80t-31.5 37q-18 10 -37.5 15t-71.5 5l-10 9l-6 36l4 9q14 0 38 -2t49.5 -4.5t52 -4.5t49.5 -2h73h51.5t58.5 1t54.5 1h38.5q221 0 317.5 -85t96.5 -224 q0 -61 -15.5 -108t-42 -83t-59.5 -61.5t-70 -44.5q150 -27 231 -112.5t81 -237.5q0 -102 -37 -175t-103.5 -119t-158.5 -68.5t-203 -22.5h-272q-14 0 -47 -2t-68 -4t-68 -4t-47 -2zM414 545q0 -78 1 -153t2 -134t3 -80q4 -55 22.5 -67.5t49.5 -12.5h124q49 0 107.5 12.5 t110 43t86 86t34.5 141.5q0 74 -26.5 130t-73.5 93t-109.5 56.5t-136.5 19.5h-194v-135zM414 840q0 -47 4 -65.5t31 -18.5h61q66 0 125 8t106 43q45 29 74 83t29 128q0 109 -61.5 166t-174.5 57h-184q-4 -59 -5 -100t-3 -72t-2 -55.5v-46.5v-127z" />
<glyph unicode="C" horiz-adv-x="1331" d="M111 664q0 143 44 271t131 222t215 149.5t298 55.5q37 0 87 -3t105.5 -11.5t112.5 -21.5t110 -34l7 -18l-27 -187h-59l-7 9q-6 45 -38.5 75.5t-80.5 49t-106.5 25.5t-116.5 7q-203 0 -319 -92q-96 -78 -144.5 -207t-48.5 -282q0 -145 42 -255t116 -183.5t175.5 -111.5 t219.5 -38q84 0 193.5 23.5t208.5 91.5l20 -23l-45 -92q-102 -55 -203.5 -81t-209.5 -26q-154 0 -279 49.5t-214 140.5t-138 217t-49 280z" />
<glyph unicode="D" horiz-adv-x="1503" d="M88 -4l6 37l10 8q25 0 58 3t51 15q16 12 30.5 39t20.5 80q0 14 1 33.5t2 48.5t1 70v102v416v62v89.5t-1 92t-3 69.5q-4 51 -18.5 77t-32.5 40q-18 10 -37.5 15t-71.5 5l-10 9l-6 36l4 9q14 0 41 -2t57.5 -4.5t60.5 -4.5t52 -2h117q27 0 66.5 1t81.5 3.5t82 3.5t65 1 q160 0 285.5 -54.5t211.5 -146.5t132.5 -215t46.5 -260q0 -135 -44 -257t-130.5 -215.5t-215.5 -148.5t-299 -55q-18 0 -55 1t-78 1t-78.5 1t-60.5 1h-108q-14 0 -47 -2t-68 -4t-68 -4t-47 -2zM414 473q0 -123 1 -191.5t5 -103.5q6 -53 26.5 -66.5t73.5 -13.5h197 q123 0 217 45t158.5 122t98.5 181.5t34 225.5q0 123 -35 227.5t-101.5 180t-163 118.5t-218.5 43h-283q-4 -59 -5 -99t-3 -81t-2 -89v-122v-377z" />
<glyph unicode="E" horiz-adv-x="1169" d="M88 -4l6 37l10 8q33 0 62 3t47 17q16 14 31.5 37t19.5 80q0 14 1 33.5t2 48.5t1 70v102v416v121v83.5t-1 59.5t-3 49q-4 55 -19.5 79t-31.5 38q-18 14 -47 17t-62 3l-10 9l-6 36l4 9q14 0 47 -2t71 -4.5t73.5 -4.5t58.5 -2h336q27 0 81 1t109.5 3.5t99.5 3.5t54 1l10 -21 l-8 -223h-51l-8 8q-4 47 -11.5 73.5t-41 39t-101.5 14.5t-190 2h-197l-4 -80q-2 -33 -3 -55.5t-2 -55t-1 -78.5v-222q61 2 122.5 2t111.5 2t85 9t47 21q16 16 28.5 33t12.5 47l10 10l35 5l8 -5q-4 -47 -7 -81.5t-3 -79.5q0 -49 3 -91t7 -92l-8 -4l-37 4l-8 7q0 33 -12 60.5 t-29 45.5q-12 12 -47 18.5t-84 8.5t-110.5 2h-124.5v-199v-120t1 -81.5t3 -65.5t6 -69q0 -39 41 -39h174q123 0 193.5 5.5t107.5 21.5t52.5 50t29.5 89l8 8h53l-36 -260l-17 -20q-10 0 -47 1t-83 3t-92 3t-73 1h-413q-14 0 -47 -2t-68 -4t-68 -4t-47 -2z" />
<glyph unicode="F" horiz-adv-x="1083" d="M88 -4l6 37l10 8q33 0 62 3t47 17q16 14 31.5 37t19.5 80q0 14 1 33.5t2 48.5t1 70v102v416v121t-1 83.5t-2 59t-1 49.5q-4 57 -19.5 80t-31.5 37q-18 14 -47 17t-62 3l-10 9l-6 36l4 9q14 0 47 -2t68 -4.5t67.5 -4.5t47.5 -2h356q27 0 81 1t109.5 3.5t99.5 3.5t54 1 l10 -21l-8 -223h-51l-8 8q-4 47 -11.5 73.5t-41 39t-101.5 14.5t-190 2h-197l-4 -80q-2 -29 -3 -53.5t-2 -57t-1 -79.5v-221q61 2 122.5 2t111.5 2t85 9t47 21q16 16 28.5 33t12.5 47l10 10l35 5l8 -5q-4 -47 -7 -81.5t-3 -79.5q0 -49 3 -91t7 -92l-8 -4l-37 4l-8 7 q0 33 -12 60.5t-29 45.5q-12 12 -47 18.5t-84 8.5t-110.5 2h-124.5v-199v-120t1 -76.5t2 -52t3 -46.5q4 -57 21.5 -79.5t33.5 -37.5q18 -14 54 -17t69 -3l10 -8l6 -37l-4 -8q-14 0 -50 2t-75 4t-74.5 4t-50.5 2h-38q-14 0 -47 -2t-68 -4t-68 -4t-47 -2z" />
<glyph unicode="G" horiz-adv-x="1449" d="M111 664q0 147 46 274t136 221t223 148.5t309 54.5q37 0 89.5 -3t109.5 -11.5t116.5 -21.5t112.5 -34l4 -18l-34 -199h-58l-8 6q-14 82 -95 127t-247 45q-231 0 -352 -96q-49 -39 -84 -92t-58.5 -116.5t-35 -134.5t-11.5 -140q0 -137 40 -246t110 -183.5t166 -114.5 t209 -40q35 0 79 3t86 9.5t74.5 14.5t44.5 16q16 10 17 43v39v52.5t-1 55t-3 48.5q-4 53 -21.5 80.5t-30.5 35.5q-18 14 -55 17.5t-69 3.5l-11 8l-6 45l4 8q14 0 46 -2t66 -4t65.5 -4t45.5 -2h62q14 0 38.5 2t51.5 4t51.5 4t38.5 2l4 -8l-4 -49l-10 -8q-59 0 -83 -34 t-28 -99q-4 -51 -5 -109.5t-1 -87.5q0 -31 1 -66.5t5 -46.5l-8 -10q-98 -31 -205.5 -52.5t-224.5 -21.5q-178 0 -310 54.5t-219 148.5t-130 219t-43 265z" />
<glyph unicode="H" horiz-adv-x="1556" d="M88 -4l6 37l10 8q33 0 62 3t47 17q16 14 31.5 37t19.5 80q0 14 1 33.5t2 48.5t1 70v102v416v121t-1 83.5t-2 59.5t-3 49q-4 55 -18.5 79t-30.5 38q-18 14 -47 17t-62 3l-10 9l-6 36l4 9q14 0 47 -2t68 -4.5t67.5 -4.5t47.5 -2h38q14 0 47 2t68 4.5t67.5 4.5t47.5 2l4 -9 l-6 -36l-8 -9q-33 0 -63 -3t-48 -17q-16 -14 -30.5 -36.5t-18.5 -80.5q-2 -29 -3 -53.5t-2 -57t-1 -79.5v-121v-92h729v90v121t-1 83.5t-2 59.5t-3 49q-4 57 -18.5 80t-31.5 37q-18 14 -47.5 17t-62.5 3l-8 9l-6 36l4 9q14 0 47 -2t67.5 -4.5t67.5 -4.5t47 -2h39q14 0 47 2 t67.5 4.5t67.5 4.5t47 2l4 -9l-6 -36l-10 -9q-33 0 -61.5 -3t-47.5 -17q-16 -14 -31.5 -36.5t-19.5 -80.5q-2 -29 -3 -53.5t-1 -57v-79.5v-121v-377v-120v-76.5t1 -52t3 -46.5q4 -57 19.5 -79.5t31.5 -37.5q18 -14 47 -17t62 -3l10 -8l6 -37l-4 -8q-14 0 -47 2t-67.5 4 t-67.5 4t-47 2h-39q-14 0 -47 -2t-67.5 -4t-67.5 -4t-47 -2l-4 8l6 37l8 8q33 0 62.5 3t47.5 17q16 14 29.5 37t20.5 80q2 14 3 33.5t2 48.5t1 70v102v236h-729v-195v-120t1 -76.5t2 -52t3 -46.5q4 -57 18.5 -79.5t30.5 -37.5q18 -14 48 -17t63 -3l8 -8l6 -37l-4 -8 q-14 0 -47 2t-68 4t-67.5 4t-47.5 2h-38q-14 0 -47 -2t-68 -4t-68 -4t-47 -2z" />
<glyph unicode="I" horiz-adv-x="681" d="M88 -4l6 37l10 8q33 0 62 3t47 17q16 14 31.5 37t19.5 80q0 14 1 33.5t2 48.5t1 70v102v416v121t-1 83.5t-2 59.5t-3 49q-4 53 -18.5 78t-30.5 39q-18 14 -47 17t-62 3l-10 9l-6 36l4 9q14 0 47 -2t68 -4.5t67.5 -4.5t47.5 -2h38q14 0 47 2t68 4.5t67.5 4.5t47.5 2l4 -9 l-6 -36l-8 -9q-33 0 -63 -3t-48 -17q-16 -14 -30.5 -36.5t-18.5 -80.5q-2 -29 -3 -53.5t-2 -57t-1 -79.5v-121v-377v-120t1 -76.5t2 -52t3 -46.5q4 -57 18.5 -79.5t30.5 -37.5q18 -14 48 -17t63 -3l8 -8l6 -37l-4 -8q-14 0 -47 2t-68 4t-67.5 4t-47.5 2h-38q-14 0 -47 -2 t-68 -4t-68 -4t-47 -2z" />
<glyph unicode="J" horiz-adv-x="651" d="M35 -268l8 10q27 0 47.5 1t40.5 9q25 14 47 37q57 57 66.5 213t9.5 430v416v121t-1 83.5t-2 59.5t-3 49q-4 55 -18.5 79t-30.5 38q-18 14 -47 17t-62 3l-10 9l-6 36l4 9q14 0 47 -2t67.5 -4.5t67.5 -4.5t47 -2h39q14 0 47 2t68 4.5t67.5 4.5t46.5 2l5 -9l-7 -36l-8 -9 q-33 0 -62.5 -3t-47.5 -17q-16 -14 -30.5 -36.5t-18.5 -80.5q-2 -29 -3.5 -53.5t-2.5 -57t-1 -79.5v-121v-377v-124t-1 -85t-1 -60.5v-47.5q0 -82 -18.5 -162t-52 -144.5t-83.5 -107.5t-114 -55q-16 -4 -36.5 -5t-37.5 -1l-16 6z" />
<glyph unicode="K" horiz-adv-x="1343" d="M88 -4l6 37l10 8q33 0 62 3t47 17q16 14 31.5 37t19.5 80q0 14 1 33.5t2 48.5t1 70v102v416v121v83.5t-1 59.5t-3 49q-4 55 -19.5 79t-31.5 38q-18 14 -47 17t-62 3l-10 9l-6 36l4 9q14 0 47 -2t68 -4.5t67.5 -4.5t47.5 -2h38q14 0 47 2t68 4.5t67.5 4.5t47.5 2l4 -9 l-6 -36l-8 -9q-33 0 -63 -3t-48 -17q-16 -14 -30.5 -36.5t-18.5 -80.5q-2 -29 -3 -53.5t-2 -57t-1 -79.5v-121v-139q55 35 134 100.5t152 138.5q88 88 147.5 165t59.5 106q0 23 -10 36t-25.5 21t-35 12t-39.5 8l-11 9v36l11 9q82 -12 180 -13h100h42.5t34.5 2t37.5 4.5 t49.5 6.5l8 -9v-36l-8 -9q-27 -6 -72 -15t-75 -30q-20 -12 -46 -38.5t-62 -67.5t-85 -96.5t-119 -124.5l-164 -168q170 -258 377 -502q41 -47 76 -84t75 -63.5t89 -43t119 -24.5l12 -8l4 -37l-4 -8q-45 0 -102.5 -4t-89.5 -4q-53 0 -92.5 11t-75 37.5t-74.5 69.5t-88 105 q-6 8 -47 64.5t-93.5 131t-106.5 151.5t-87 126h-8q-23 -16 -43.5 -29.5t-44.5 -34.5v-139v-120t1 -76.5t2 -52t3 -46.5q4 -57 18.5 -79.5t30.5 -37.5q18 -14 48 -17t63 -3l8 -8l6 -37l-4 -8q-14 0 -47 2t-68 4t-67.5 4t-47.5 2h-38q-14 0 -47 -2t-68 -4t-68 -4t-47 -2z" />
<glyph unicode="L" horiz-adv-x="1056" d="M88 -4l6 37l10 8q33 0 62 3t47 17q16 14 30.5 41t20.5 76q2 14 3 33.5t1 48.5v70v102v416v121t-1 83.5t-2 59t-3 49.5q-4 57 -18.5 80t-30.5 37q-18 14 -47 17t-62 3l-10 9l-6 36l4 9q14 0 47 -2t68 -4.5t67.5 -4.5t47.5 -2h38q14 0 47 2t68 4.5t67.5 4.5t47.5 2l4 -9 l-6 -36l-8 -9q-33 0 -63 -3t-48 -17q-16 -14 -31.5 -37.5t-19.5 -79.5q-2 -29 -3 -53.5t-1 -57v-79.5v-121v-377v-119t1 -81.5t3 -65.5t4 -70t43 -39h174q123 0 185.5 5.5t90 21.5t33.5 50t21 89l6 8h53l-37 -260l-16 -20q-10 0 -38 1t-63.5 3t-73.5 3t-65 1h-413 q-14 0 -47 -2t-68 -4t-68 -4t-47 -2z" />
<glyph unicode="M" horiz-adv-x="1845" d="M51 -4l6 37l13 8q31 0 59.5 3t48.5 17q16 14 33.5 37t26.5 80q2 14 4 33.5t5 48.5t7 70t8 102l29 416q6 72 9 121t4 83.5t2 59.5t1 49q0 57 -17.5 81t-33.5 36q-18 14 -47 17t-62 3l-10 9l-6 36l4 9q14 0 47 -2t68 -4.5t67.5 -4.5t47.5 -2h71q16 0 46 2t48 7l11 -7 q2 -27 15 -70.5t32.5 -99t42 -118t45.5 -123.5l139 -379q35 -98 63.5 -167t51.5 -122q6 10 34.5 79t70.5 170t89 222t90 236.5t74 214t39 155.5l10 9q16 -4 35 -6.5t35 -2.5h74q14 0 47 2t67.5 4.5t67.5 4.5t47 2l4 -9l-6 -36l-10 -9q-33 0 -62.5 -3t-46.5 -17 q-16 -12 -33.5 -36.5t-17.5 -80.5q0 -29 1 -53.5t2 -57t4 -79.5t9 -121l25 -377q6 -74 9 -120t6 -76.5t6.5 -52t7.5 -46.5q8 -57 24.5 -79.5t32.5 -37.5q18 -14 48 -17t63 -3l10 -8l6 -37l-2 -8q-14 0 -47 2t-68 4t-67.5 4t-46.5 2h-39q-14 0 -47 -2t-68 -4t-67.5 -4 t-47.5 -2l-6 8l6 37l8 8q33 0 63 3t46 17q14 14 27.5 37t13.5 80v33.5t-1 48.5t-3 70t-6 102q-16 215 -25.5 343t-15.5 200t-9.5 102.5t-5.5 50.5q-14 -37 -44.5 -113.5t-70.5 -176t-85 -212t-89 -223t-84 -209t-69 -167.5h-96l-410 1097q-2 -20 -4 -42.5t-4 -54.5t-5 -74 t-7 -103l-29 -377q-6 -70 -8 -115t-4 -77.5t-2 -55v-47.5q0 -57 13 -79.5t30 -37.5q16 -14 37.5 -17t54.5 -3l8 -8l6 -37l-4 -8q-14 0 -41.5 2t-56.5 4t-56.5 4t-41.5 2h-39q-14 0 -46 -2t-68 -4t-67.5 -4t-46.5 -2z" />
<glyph unicode="N" horiz-adv-x="1527" d="M88 -4l6 37l10 8q37 0 63 3t46 17q14 10 29.5 34t21.5 83q2 14 3 33.5t1 48.5v70v102v416v121v83.5t-1 59.5t-3 49q-4 43 -18.5 73t-32.5 44t-46 17t-63 3l-10 9l-6 36l4 9q14 0 42 -2t56.5 -4.5t56 -4.5t42.5 -2h71q16 0 46 2t49 7l10 -7q8 -29 33.5 -79t61.5 -111 t78 -131t85 -137q156 -250 271.5 -408t148.5 -205q0 14 1 26.5t1 29v41v65.5v416v121t-1 83.5t-2 59.5t-3 49q-4 57 -18.5 80t-30.5 37q-18 14 -48 17t-63 3l-8 9l-6 36l4 9q14 0 40.5 -2t54.5 -4.5t54.5 -4.5t40.5 -2h96q14 0 41 1t55.5 3.5t55.5 4.5t41 4l2 -9l-4 -36 l-10 -9q-33 0 -63 -3t-46 -17t-29.5 -36.5t-17.5 -80.5q-2 -29 -3 -53.5t-2 -57t-1 -79.5v-121v-361q0 -115 1 -188.5t2 -125.5t4 -93t7 -90l-16 -10l-127 8l-21 24l-729 1092q0 -20 -1 -41t-1 -50.5v-68.5v-96v-377v-64.5t1 -82.5t2 -83t3 -65q4 -51 17.5 -76.5t34.5 -40.5 q16 -12 42.5 -16t67.5 -4l10 -8l7 -37l-5 -8q-14 0 -43.5 2t-62.5 4t-62.5 4t-44.5 2h-38q-14 0 -47 -2t-68 -4t-68 -4t-47 -2z" />
<glyph unicode="O" d="M113 659q0 145 45 273.5t131 223.5t210.5 150.5t282.5 55.5q160 0 285 -55.5t210 -150.5t130 -220t45 -262q0 -135 -44 -261t-130 -222.5t-214 -155t-296 -58.5q-164 0 -286 55.5t-204.5 148.5t-123.5 217t-41 261zM272 674q0 -137 37 -246t104.5 -184.5t160.5 -116.5 t206 -41q123 0 218.5 46t161 126t100 186.5t34.5 227.5q0 123 -35.5 229.5t-103.5 185t-165 122.5t-220 44q-121 0 -214 -44t-156.5 -121.5t-95.5 -183t-32 -230.5z" />
<glyph unicode="P" horiz-adv-x="1124" d="M88 -4l6 37l10 8q25 0 58 3t51 15q16 12 30.5 39t20.5 80q0 14 1 33.5t2 48.5t1 70v102v533v93t-4 103q-4 53 -19.5 78t-31.5 39q-18 10 -37.5 15t-71.5 5l-10 9l-6 36l4 9q14 0 38 -2t49.5 -4.5t52 -4.5t49.5 -2h73h51.5t58.5 1t54.5 1h40.5q137 0 232.5 -26.5 t155 -75.5t87 -117.5t27.5 -150.5q0 -119 -49 -196t-126 -121t-172.5 -60t-185.5 -16h-114v-117t1 -117t2 -100t3 -66q4 -59 20.5 -82.5t28.5 -34.5q18 -10 37.5 -15t73.5 -5l8 -8l6 -37l-4 -8q-14 0 -47 2t-68 4t-67.5 4t-47.5 2h-38q-14 0 -47 -2t-68 -4t-68 -4t-47 -2z M414 743q0 -27 2 -42t10 -22t23.5 -9t42.5 -2h108q172 0 246 77.5t74 215.5q0 141 -85 210.5t-233 69.5h-178q-4 -59 -5 -100t-3 -72t-2 -55.5v-46.5v-224z" />
<glyph unicode="Q" d="M113 659q0 145 45 273.5t131 223.5t210.5 150.5t282.5 55.5q160 0 285 -55.5t210 -149.5t130 -219t45 -262q0 -131 -41 -253t-121 -217t-198.5 -156.5t-274.5 -69.5q106 -2 189.5 -25t157 -50.5t144 -50t154.5 -22.5q29 0 69 6t85 33l6 -4l8 -17l-2 -8 q-45 -53 -106.5 -89t-139.5 -36q-70 0 -143.5 29t-153 63.5t-165.5 63.5t-181 29q-78 0 -148.5 -19.5t-105.5 -42.5l-6 2l-10 29l2 6q45 31 121 62.5t164 37.5q-160 2 -281 57.5t-200.5 148.5t-120.5 216t-41 260zM272 674q0 -137 37 -246t104.5 -184.5t160.5 -116.5 t206 -41q123 0 218.5 46t161 126t100 186.5t34.5 227.5q0 123 -35.5 229.5t-103.5 185t-165 122.5t-220 44q-121 0 -214 -44t-156.5 -121.5t-95.5 -183t-32 -230.5z" />
<glyph unicode="R" horiz-adv-x="1306" d="M88 -4l6 37l10 8q25 0 58 3t51 15q16 12 30.5 39t20.5 80q0 14 1 33.5t2 48.5t1 70v102v533q0 41 -1 93t-5 103q-4 47 -18.5 75t-30.5 42q-18 10 -37.5 15t-71.5 5l-10 9l-6 36l4 9q14 0 38 -2t49.5 -4.5t52 -4.5t49.5 -2h73h51.5t58.5 1t54.5 1h40.5q137 0 232.5 -26.5 t155 -72.5t87 -110.5t27.5 -138.5q0 -88 -32 -152.5t-81 -110.5t-110.5 -73.5t-120.5 -42.5q66 -92 135.5 -182t142.5 -176q41 -47 76 -84t75 -63.5t89 -43t119 -24.5l12 -8l4 -37l-4 -8q-45 -2 -102.5 -5t-89.5 -3q-53 0 -92.5 12t-76 38.5t-74.5 69.5t-87 103q-6 6 -36 48 t-72 100.5t-88 125t-85 123.5h-149v-120.5t1 -125t2 -107.5t3 -69q4 -59 20.5 -82.5t28.5 -34.5q18 -10 37.5 -15t73.5 -5l8 -8l6 -37l-4 -8q-14 0 -47 2t-68 4t-67.5 4t-47.5 2h-38q-14 0 -47 -2t-68 -4t-68 -4t-47 -2zM414 766q0 -27 2 -42t10 -22.5t23.5 -9.5t42.5 -2 h108q170 0 245 79t75 212q0 125 -85 192.5t-233 67.5h-178q-4 -59 -5 -100t-3 -72t-2 -55.5v-46.5v-201z" />
<glyph unicode="S" horiz-adv-x="1128" d="M113 104l34 220h52l10 -13q10 -125 100 -183t246 -58q160 0 241 72.5t81 189.5q0 72 -31 120t-81 81.5t-114.5 56t-130.5 45.5q-82 27 -152.5 58.5t-122.5 74.5t-82 102.5t-30 141.5q0 96 34 162.5t93 108.5t138 60.5t171 18.5q111 0 209.5 -20.5t159.5 -49.5l8 -22 l-28 -183h-58l-10 11q-4 53 -35 86t-73 51t-90 24.5t-85 6.5q-133 0 -208.5 -58.5t-75.5 -167.5q0 -57 20.5 -95t62.5 -66.5t106.5 -52t152.5 -50.5q76 -25 149.5 -55.5t132 -78.5t93 -116.5t34.5 -167.5q0 -104 -41 -176.5t-108.5 -118t-156.5 -66t-187 -20.5 q-127 0 -231.5 29t-188.5 72z" />
<glyph unicode="T" horiz-adv-x="1206" d="M33 1104l14 233l8 19l13 6q16 -6 71.5 -11t121 -7.5t125.5 -3.5t87 -1h258q27 0 87.5 1t126 3.5t120.5 7.5t72 11l12 -6l8 -19l17 -233h-50l-8 8q-10 82 -55 107q-8 6 -27.5 10t-59.5 7t-105.5 4t-166.5 1h-22q-2 -59 -3 -155.5t-1 -235.5v-377v-120t1 -76.5t2 -52 t3 -46.5q4 -57 22.5 -79.5t34.5 -37.5q16 -14 57.5 -17t73.5 -3l11 -8l6 -37l-4 -8q-14 0 -45 2t-66 4t-65.5 4t-44.5 2h-117q-14 0 -45 -2t-65 -4t-64.5 -4t-44.5 -2l-4 8l6 37l10 8q33 0 74 3t57 17t34.5 37t22.5 80q2 14 3 33.5t2 48.5t1 70v102v416q0 133 -2 236.5 t-4 156.5h-22q-102 0 -168 -1t-106 -4t-59 -7t-28 -10q-45 -25 -55 -107l-8 -8h-47z" />
<glyph unicode="U" horiz-adv-x="1480" d="M53 1343l4 9q14 0 47 -2t68 -4.5t67.5 -4.5t47.5 -2h39q14 0 47 2t67.5 4.5t67.5 4.5t47 2l4 -9l-6 -36l-8 -9q-33 0 -62.5 -3t-48.5 -17q-16 -14 -30.5 -36.5t-18.5 -80.5q-2 -29 -3 -53.5t-2 -57t-1 -79.5v-121v-338q0 -221 99.5 -317.5t275.5 -96.5t276 96.5 t100 317.5v338v121t-1 79.5t-2 57.5t-3 53q-4 57 -19 80t-32 37q-16 14 -46 17t-62 3l-11 9l-6 36l4 9q14 0 43 -2t60.5 -4.5t60.5 -4.5t43 -2h45q14 0 45 2t65 4.5t64.5 4.5t44.5 2l4 -9l-6 -36l-8 -9q-33 0 -62.5 -3t-47.5 -17q-16 -14 -31 -36.5t-19 -80.5 q-2 -25 -3 -49.5t-2 -59t-1 -83.5v-121v-393q0 -100 -29.5 -187.5t-91 -152t-154.5 -101.5t-218 -37q-143 0 -242.5 37t-161 101.5t-89.5 151.5t-28 188v393v121v83.5t-1 59.5t-3 49q-4 55 -19 79t-32 38q-18 14 -47 17t-61 3l-11 9z" />
<glyph unicode="V" horiz-adv-x="1380" d="M-25 1343l2 9q14 0 42 -2t59 -4.5t59.5 -4.5t42.5 -2h70q14 0 47 2t68.5 4.5t68.5 4.5t47 2l4 -9l-6 -36l-10 -9q-59 0 -92 -13t-33 -73q0 -47 32 -132t79 -214l139 -377q39 -106 68.5 -191t54.5 -146q23 59 54.5 141t72.5 196l139 377q47 129 79 214t32 132 q0 59 -33 72.5t-92 13.5l-11 9l-4 36l4 9q14 0 45 -2t64 -4.5t63.5 -4.5t45.5 -2h38q14 0 42 2t59 4.5t59.5 4.5t42.5 2l4 -9l-6 -36l-10 -9q-27 0 -51.5 -2t-49 -15t-48 -41t-48.5 -79q-6 -16 -17 -40.5t-38 -92t-77 -193.5t-134 -343q-29 -72 -58.5 -149t-57 -145.5 t-48 -121.5t-28.5 -76l-107 -23h-25l-333 930q-23 61 -38.5 102.5t-26.5 70t-19 47t-15 34.5q-23 51 -46 79t-47.5 41t-50.5 15t-52 2l-10 9z" />
<glyph unicode="W" horiz-adv-x="2244" d="M-25 1343l2 9q14 0 42 -2t59 -4.5t59.5 -4.5t42.5 -2h70q14 0 47 2t68.5 4.5t68.5 4.5t47 2l4 -9l-6 -36l-10 -9q-59 0 -92 -13t-33 -73q0 -47 32 -132t79 -214l139 -377q39 -106 68.5 -191t54.5 -146q23 59 54.5 141t72.5 196l139 377q29 80 52.5 141.5t39.5 110.5 q-10 33 -23.5 63.5t-33 55.5t-50 41t-75.5 20l-10 9l-4 36l2 9q14 0 41.5 -2t57.5 -4.5t57.5 -4.5t41.5 -2h68q14 0 45 2t65.5 4.5t65.5 4.5t45 2l4 -9l-6 -36l-10 -9q-23 0 -48.5 -7t-47 -21.5t-35 -35t-13.5 -46.5q0 -20 5 -29q12 -51 39.5 -122.5t62.5 -170.5l139 -377 q39 -104 70 -191t53 -146q23 59 54.5 141t72.5 196l139 377q47 129 79 214t32 132q0 59 -33 72.5t-92 13.5l-8 9l-6 36l4 9q14 0 44.5 -2t63.5 -4.5t63.5 -4.5t45.5 -2h39q14 0 41.5 2t58.5 4.5t59.5 4.5t42.5 2l5 -9l-7 -36l-10 -9q-27 0 -51.5 -2t-49 -15t-48 -41 t-47.5 -79q-6 -16 -17.5 -40.5t-38 -92t-77 -193.5t-134.5 -343q-29 -72 -58.5 -149t-57 -145.5t-48 -121.5t-28.5 -76l-107 -23h-24l-357 988q-29 -72 -72.5 -184.5t-111.5 -288.5q-27 -72 -57.5 -149t-58 -145.5t-48 -121.5t-28.5 -76l-107 -23h-25l-333 930 q-23 61 -38.5 102.5t-26.5 70t-19 47t-15 34.5q-23 51 -46 79t-47.5 41t-50.5 15t-52 2l-10 9z" />
<glyph unicode="X" horiz-adv-x="1355" d="M-8 0v27l16 14q45 6 78 15.5t60.5 25.5t54 42t59.5 69q55 72 143.5 194.5t204.5 288.5q-33 45 -73.5 104.5t-86 125t-92.5 136t-92 140.5q-16 23 -33.5 44t-33.5 34q-23 18 -54.5 26t-72.5 12l-17 9v36l13 9q94 -12 180 -13h88q47 0 108.5 3.5t118.5 9.5l10 -9v-36 l-10 -9q-41 -2 -72 -7t-49 -17q-23 -16 -22 -35q0 -10 6 -24.5t12 -24.5q35 -63 64.5 -113.5t58.5 -96.5t59.5 -94t71.5 -106q43 55 82 113.5t69.5 111t51 92.5t31.5 62q4 10 8 25.5t4 32.5q0 25 -13.5 39t-33 21t-44 11t-46.5 10l-11 9v36l11 9q59 -10 99 -11.5t89 -1.5 h119q49 0 89 2t97 11l8 -9v-36l-8 -9q-45 -6 -78.5 -18t-61.5 -32.5t-54.5 -51.5t-57.5 -74q-66 -92 -107.5 -153.5t-73.5 -106.5t-57.5 -84t-56.5 -84q72 -104 134.5 -197.5t111.5 -165t80 -117.5t41 -56q20 -23 37.5 -40.5t42.5 -31.5t61.5 -25.5t92.5 -19.5l18 -14v-29 l-12 -12q-49 6 -108.5 11t-106.5 5h-82q-47 0 -111.5 -5t-120.5 -11l-10 12v31l10 12q47 4 86 23.5t39 54.5q0 23 -28.5 78t-70.5 123.5t-90 140t-89 129.5q-47 -61 -95.5 -126t-88.5 -123t-70.5 -105.5t-44.5 -75.5q-8 -16 -9 -37q0 -16 5.5 -29.5t20.5 -23t46 -16.5 t82 -13l12 -12v-29l-12 -12q-59 10 -114.5 11t-102.5 1h-96q-47 0 -95.5 -2t-105.5 -10z" />
<glyph unicode="Y" horiz-adv-x="1253" d="M-16 1307v36l10 9q49 -6 92 -11.5t90 -5.5h86q47 0 109.5 5.5t120.5 11.5l8 -9v-36l-8 -9q-41 -2 -72 -7t-49 -17q-25 -18 -25 -35q0 -10 7 -24.5t14 -24.5q74 -135 139 -256t143 -254q35 59 75 132t77 141.5t64.5 124t37.5 77.5q4 10 12.5 32.5t8.5 39.5q0 25 -14.5 37 t-36 18t-47 8t-48.5 8l-8 9v36l8 9q59 -10 99.5 -11.5t89.5 -1.5h118q49 0 90.5 2t98.5 11l8 -9v-36l-8 -9q-47 -6 -80 -16t-60.5 -27.5t-52 -46t-55.5 -73.5q-59 -90 -103 -160t-79 -128.5t-62.5 -107.5t-54.5 -96q-8 -12 -18.5 -42t-10.5 -60v-72v-119t1 -75.5t2 -51 t4 -45.5q4 -57 19 -79.5t32 -37.5q16 -14 45.5 -17t62.5 -3l10 -8l7 -37l-4 -8q-14 0 -47 2t-68 4t-67.5 4t-47.5 2h-39q-14 0 -47 -2t-68.5 -4t-68.5 -4t-47 -2l-2 8l4 37l10 8q33 0 62.5 3t46.5 17q16 14 31.5 37t19.5 80q2 14 3 33.5t2 48.5t1 70v102v80q0 57 -16.5 93 t-32.5 65q-31 55 -69 118.5t-79 131t-84 134t-81 128.5q-14 23 -33 44t-33 34q-23 18 -54.5 26t-72.5 12z" />
<glyph unicode="Z" horiz-adv-x="1257" d="M74 10v47q41 41 107.5 125t144 192.5t159.5 231.5t156 240t132 218t87 167l-10 10h-291q-115 0 -185.5 -3t-111.5 -15.5t-59.5 -38t-26.5 -70.5l-12 -10h-37l-12 14l32 221l17 17q260 -12 435 -14.5t228 -2.5h136q12 0 33.5 1t45 3.5t47 5.5t41.5 7l17 -23l-10 -51 q-37 -39 -106.5 -129t-153.5 -206t-172.5 -247t-164 -248.5t-129 -211t-67.5 -136.5l10 -6h164q182 0 291 3t168 19.5t83.5 48.5t39.5 91l12 12h55l-37 -264l-18 -20q-8 0 -43 1t-82 3t-101.5 3t-104.5 2t-90 2t-58 1h-328q-45 0 -101.5 -4t-109.5 -8z" />
<glyph unicode="[" horiz-adv-x="569" d="M164 -186q16 137 20 302t4 316v553v117.5t-3 140.5t-8 146.5t-13 136.5l4 8h156q14 0 43.5 2t61.5 4t61.5 4t44.5 2l2 -8l-5 -37l-10 -8q-16 0 -37.5 -1t-43 -3t-40 -6t-26.5 -10q-16 -14 -31.5 -37t-19.5 -80t-5.5 -139t-1.5 -230v-514v-150.5t1 -144t2.5 -119 t3.5 -75.5q4 -57 19 -80t32 -37q8 -6 26.5 -10t40 -6.5t43 -3.5t37.5 -1l10 -8l5 -37l-2 -8q-14 0 -44 2t-62 4t-61.5 4t-43.5 2h-156z" />
<glyph unicode="\" horiz-adv-x="888" d="M80 1430v8h160l6 -8q14 -63 35.5 -137t46 -147t49 -140.5t43.5 -118.5l135 -377q55 -154 119.5 -317.5t132.5 -301.5l-2 -8h-160l-6 8q-33 137 -89 301t-112 318l-137 377q-18 51 -44 118.5t-54.5 140.5t-59 146.5t-63.5 137.5z" />
<glyph unicode="]" horiz-adv-x="569" d="M33 -199l4 37l10 8q16 0 37.5 1t43.5 3.5t40 6.5t27 10q16 14 31.5 36.5t19.5 80.5q2 25 3 76t2 118.5t1 144v150.5v514q0 147 -1 229t-5 140q-4 57 -19.5 79.5t-31.5 37.5q-8 6 -26.5 10t-40.5 6t-43.5 3t-37.5 1l-10 8l-4 37l2 8q14 0 44 -2t61.5 -4t61 -4t44.5 -2h155 l5 -8q-10 -63 -14.5 -136t-7.5 -147t-3 -140.5v-117.5v-553q0 -152 4 -316.5t21 -301.5l-5 -9h-155q-14 0 -44 -2t-61.5 -4t-61.5 -4t-44 -2z" />
<glyph unicode="^" horiz-adv-x="712" d="M117 1161l6 15l225 202h17l225 -202l6 -15l-12 -39l-15 -6l-213 125l-213 -125l-14 6z" />
<glyph unicode="_" horiz-adv-x="948" d="M31 0h887v-106h-887v106z" />
<glyph unicode="`" horiz-adv-x="448" d="M0 1321q0 29 18.5 49.5t53.5 22.5l370 -207l7 -15l-13 -41l-16 -6l-412 158q-8 18 -8 39z" />
<glyph unicode="a" horiz-adv-x="1015" d="M76 248q0 76 34.5 132t92.5 93q53 33 125.5 53.5t141.5 29.5t124 12t74 3h28q-2 76 -8 120t-16 73q-23 61 -78 89t-133 28q-33 0 -71 -6.5t-71.5 -22.5t-58 -46t-29.5 -77l-8 -6h-45l-18 151l6 13q10 12 43 26.5t77 27.5t98 22.5t108 9.5q74 0 137 -19.5t109 -58.5 t73 -97.5t27 -135.5q0 -86 -1 -153t-3.5 -123t-3.5 -110.5t-1 -115.5q4 -47 10.5 -68.5t20.5 -32.5q16 -16 48 -19t65 -3l8 -8l2 -29l-2 -8q-37 4 -80 6t-84 2q-78 0 -141 -6l-12 20q6 23 9 68t9 84l-2 6q-27 -37 -63.5 -71.5t-80.5 -62.5t-94.5 -44.5t-105.5 -16.5 q-63 0 -112.5 23t-82 59.5t-49 86t-16.5 102.5zM221 260q0 -78 45 -124t117 -46q43 0 86 14.5t81 37t68 47t46 47.5q6 10 13 24t9 35l10 205h-18q-82 0 -164 -9.5t-146.5 -36t-105.5 -73.5t-41 -121z" />
<glyph unicode="b" horiz-adv-x="1226" d="M45 0l2 29l8 8q33 0 65 3t48 19q16 14 21.5 37t9.5 64l2 18q0 18 1 42t2 57.5t1 82v119.5v492v142t-1 101t-2 75t-3 67q-2 23 -11.5 39t-15.5 24q-20 23 -51 29t-64 6l-8 8v27l8 8h37q35 0 88.5 1t91.5 7l72 11l12 -19q-4 -8 -7 -29.5t-5 -46t-3 -47t-1 -35.5v-61.5 t-1 -67.5t-1 -94v-141q0 -88 -2 -128t-4 -65l6 -4q59 86 145 140.5t195 54.5q117 0 202 -41t140 -108.5t81.5 -154.5t26.5 -182q0 -139 -43 -236t-109.5 -157.5t-145 -88.5t-150.5 -28q-98 0 -185 43t-151 148l-6 -4q0 -41 9 -84t18 -66l-15 -14h-94q-14 0 -44 -1t-61.5 -2 t-61.5 -3t-44 -2zM340 360q6 -33 28.5 -78.5t62.5 -88.5t97.5 -73t137.5 -30t138 34t96 89t56.5 125.5t18.5 144.5q0 70 -18.5 137.5t-56.5 120t-95 84t-135 31.5q-80 0 -141.5 -30.5t-103.5 -73.5t-63.5 -89.5t-21.5 -78.5v-224z" />
<glyph unicode="c" horiz-adv-x="1042" d="M92 471q0 113 41 205t112.5 157.5t167 102.5t203.5 37q98 0 185.5 -24.5t132.5 -49.5l6 -18l-22 -158h-44l-8 6q0 47 -27.5 77t-66.5 46t-83 22.5t-77 6.5q-94 0 -162.5 -34t-113.5 -90.5t-66.5 -129t-21.5 -148.5q0 -78 23.5 -149.5t72.5 -127t123 -88t176 -32.5 q70 0 155 21.5t146 54.5l21 -21l-31 -57q-23 -16 -58.5 -33.5t-80.5 -33t-97.5 -26t-103.5 -10.5q-100 0 -191.5 36t-160 100.5t-109.5 155.5t-41 202z" />
<glyph unicode="d" horiz-adv-x="1226" d="M96 463q0 139 43 236.5t108.5 158t144.5 88t151 27.5q98 0 188 -44t154 -149l4 8q-4 47 -4 91.5v91.5v142t-1 101t-2 76t-3 66q-2 23 -11.5 39t-15.5 24q-20 23 -51 29t-64 6l-8 8v27l8 8h37q35 0 88 1t92 7l72 11l12 -19q-4 -8 -7 -29.5t-4 -46t-2 -47t-1 -35.5 q0 -33 -1 -61.5t-1 -67.5t-1 -94t-1 -141v-447q0 -86 1 -141t2 -94t2 -67.5t3 -65.5q4 -47 10 -68.5t19 -32.5q18 -16 49 -19t63 -3l9 -8l4 -29l-4 -8q-37 4 -79 6t-85 2q-76 0 -140 -6l-14 20q6 23 11.5 68t9.5 80l-2 8q-57 -86 -141.5 -139.5t-192.5 -53.5q-117 0 -202 41 t-139 109t-81 155t-27 181zM252 467q0 -70 18.5 -137.5t55 -119.5t94 -84t137.5 -32q76 0 136.5 29t101.5 69.5t64.5 86t25.5 77.5v228q-4 33 -25.5 80t-61.5 91t-98.5 74.5t-138.5 30.5q-82 0 -140.5 -33.5t-96 -89t-55 -126t-17.5 -144.5z" />
<glyph unicode="e" horiz-adv-x="1075" d="M94 471q0 113 37 205t101.5 157.5t151.5 102.5t187 37q53 0 120 -14.5t128.5 -54.5t110.5 -112.5t67 -191.5l-14 -49l-33 -14q-111 0 -227.5 -2.5t-228.5 -2.5h-242q-2 -14 -2 -27v-26q0 -78 22.5 -148.5t70.5 -123.5t124 -85t184 -32q63 0 136 13.5t135 48.5l20 -13v-37 l-20 -22q-49 -39 -139.5 -71t-200.5 -32q-109 0 -198 36t-153.5 101.5t-100.5 155.5t-36 201zM262 616h80q111 0 215.5 3.5t218.5 9.5q27 2 36 14t9 29q0 12 -2 22.5t-6 20.5q-23 78 -84.5 122t-155.5 44q-66 0 -118 -21.5t-91.5 -57.5t-65.5 -84t-36 -102z" />
<glyph unicode="f" horiz-adv-x="681" d="M70 0l2 29l8 8q33 0 64.5 3t48.5 19q12 12 20 32t11 65t4 120.5t1 202.5v367h-151l-8 10v37l8 8l151 31v117q0 219 82 348t240 129q47 0 102.5 -14.5t114.5 -47.5l10 -20l-24 -158h-54q-8 66 -60 102.5t-118 36.5q-59 0 -91 -23.5t-47 -62.5t-17 -89t-2 -101v-217l260 12 l10 -8v-80l-10 -10h-260v-318v-144t1 -98t3 -69t4 -57q4 -31 9 -58.5t21 -42.5q10 -8 30 -12t41.5 -6t42 -3t32.5 -1l10 -10l4 -27l-4 -8q-14 0 -46 2t-66.5 3t-66.5 2t-46 1h-49q-14 0 -44 -1t-63 -2t-62.5 -3t-43.5 -2z" />
<glyph unicode="g" horiz-adv-x="1036" d="M70 -227q0 86 56 152.5t144 92.5l2 7q-45 18 -71.5 45.5t-26.5 68.5q0 53 43 86t92 45v9q-111 41 -160 129t-49 194q0 76 27 143.5t77 117.5t120.5 79t160.5 29q53 0 105.5 -10.5t91.5 -28.5q86 2 161 10t140 27l10 -8l-14 -113l-10 -10l-187 8l-2 -6q53 -43 78 -113 t25 -135q0 -68 -26 -129.5t-75 -107.5t-122.5 -73.5t-170.5 -27.5q-16 0 -40.5 1t-40.5 1q-35 -14 -52.5 -38.5t-17.5 -41.5q0 -20 27.5 -35.5t89.5 -21.5l198 -21q68 -8 126.5 -28.5t102.5 -54t68.5 -82t24.5 -111.5q0 -59 -26.5 -119.5t-80.5 -108.5q-53 -45 -147 -73.5 t-217 -28.5q-111 0 -192 23.5t-135 63.5t-80.5 90t-26.5 104zM197 -205q0 -78 86 -127t233 -49q68 0 125 11.5t99 35t66.5 57t24.5 78.5q0 49 -23.5 80t-61 50.5t-86 28.5t-95.5 15l-137 15q-57 -2 -100 -20.5t-73 -46t-44 -61.5t-14 -67zM246 610q0 -49 15 -97t47 -87 t78.5 -62.5t107.5 -23.5q57 0 101 20.5t74.5 55.5t47 81t16.5 95q0 51 -16.5 102t-48 92t-78.5 68t-109 27q-59 0 -103 -25t-74 -63.5t-44 -87t-14 -95.5z" />
<glyph unicode="h" horiz-adv-x="1222" d="M41 0l2 29l8 8q33 0 64.5 3t48.5 19q16 14 21 37t10 64q2 27 3 53.5t2 62t1 84v119.5v492v142t-1 101t-2 76t-3 66q-2 23 -11.5 39t-15.5 24q-20 23 -51 29t-64 6l-8 8v27l8 8h37q35 0 88 1t92 7l72 11l12 -19q-4 -8 -6 -29.5t-4 -46t-2 -47v-35.5q0 -66 -3 -156.5 t-3 -207.5q0 -86 -1 -135t-5 -78l6 -4q51 90 137 152.5t213 62.5q57 0 115.5 -16.5t105.5 -51.5t80 -88t41 -127q6 -53 7 -121.5t1 -111.5v-289q0 -47 9.5 -72.5t21.5 -36.5q18 -16 50 -19t65 -3l6 -8l4 -29l-4 -8q-35 4 -78 6t-84 2q-78 0 -141 -6l-15 20q8 27 12.5 70 t6.5 76q4 86 6 169t2 138q0 47 -3 102.5t-13 96.5q-20 96 -84 143t-148 47q-68 0 -126 -29.5t-99 -71.5t-64.5 -88t-23.5 -77v-177.5t1 -111.5t2 -74.5t5 -66.5q4 -43 9 -64.5t22 -36.5q16 -14 46 -18t60 -4l11 -10l4 -27l-4 -8q-14 0 -43 2t-62 3t-61.5 2t-42.5 1h-29 q-14 0 -44 -1t-61.5 -2t-61.5 -3t-44 -2z" />
<glyph unicode="i" horiz-adv-x="565" d="M66 0l2 29l8 8q33 0 64.5 3t47.5 19q16 14 21.5 37t9.5 64q2 33 4 66.5t2 107.5v252v72.5t-1 52t-2 41t-3 39.5q-4 23 -12 40t-14 23q-20 25 -51 30t-64 5l-8 8v29l8 6h37q35 0 88 1t92 7l72 10l12 -18q-4 -8 -7 -28.5t-4 -44t-2 -46t-1 -35.5q0 -16 -1.5 -31.5t-1.5 -36 t-1 -49t-1 -73.5v-230q0 -45 1 -73.5t2.5 -49t2.5 -38t3 -37.5q4 -43 9 -64.5t21 -36.5q16 -14 46 -18t61 -4l10 -10l4 -27l-4 -8q-14 0 -43 2t-61.5 3t-61 2t-43.5 1h-28q-14 0 -44 -1t-62 -2t-61.5 -3t-43.5 -2zM172 1292q0 41 27.5 71t68.5 30t71 -30t30 -71t-30 -68.5 t-71 -27.5t-68.5 27.5t-27.5 68.5z" />
<glyph unicode="j" horiz-adv-x="516" d="M-23 -489l9 10q41 0 72.5 7t62.5 42q47 49 60.5 127t15.5 176q0 12 1 54t2 98.5t1 119t1 118.5t1 98v57v67t-1 102.5l-2 111t-3 89.5q-2 23 -11.5 41.5t-15.5 24.5q-20 25 -51 30t-64 5l-8 8v29l8 6h37q35 0 88 1t92 7l72 10l10 -18q-4 -8 -5 -28.5t-3 -45t-3 -47.5 t-1 -37q0 -18 -1 -40.5t-2 -56.5t-1 -83v-119v-483q0 -96 -17.5 -182t-51 -154t-83 -116t-114.5 -66q-20 -4 -37 -5t-37 -1l-16 4zM150 1292q0 41 27.5 71t68.5 30t70.5 -30t29.5 -71t-29.5 -68.5t-70.5 -27.5t-68.5 27.5t-27.5 68.5z" />
<glyph unicode="k" horiz-adv-x="1075" d="M41 0l2 29l8 8q33 0 64.5 3t48.5 19q16 14 21 37t10 64q2 27 3 53.5t2 62t1 84v119.5v492v142t-1 101t-2 76t-3 66q-2 23 -11.5 39t-15.5 24q-20 23 -51 29t-64 6l-8 8v27l8 8h37q35 0 88 1t92 7l72 11l12 -19q-4 -8 -6 -29.5t-4 -46t-2 -47v-35.5q0 -33 -1 -61.5 t-2 -67.5t-2 -94t-1 -141v-488l244 226q4 4 19 18t31.5 29.5t32 31l21.5 21.5q18 20 18 37q0 25 -31.5 35t-62.5 14l-8 8v25l8 8l78 -8t80 -4h57q39 0 79 4t81 8l6 -8v-29l-10 -10q-20 -4 -49 -9t-51 -20q-31 -18 -65 -43.5t-67.5 -54.5t-65.5 -57.5t-58 -55.5l-84 -78 q10 -14 26.5 -39.5t48.5 -64.5l183 -225q29 -35 56.5 -71t59 -65.5t68.5 -50t84 -22.5l6 -8l4 -29l-4 -8q-35 -4 -78 -5t-86 -1q-57 0 -108 51l-39 39t-68 74l-164 210q-35 47 -55 71t-43 46q-45 -41 -62.5 -60.5t-31.5 -33.5q0 -41 1 -69.5t2 -53t2 -48.5t3 -52 q2 -43 8 -64.5t23 -36.5q16 -14 46 -18t60 -4l11 -10l4 -27l-4 -8q-14 0 -43 2t-62 3t-61.5 2t-42.5 1h-29q-14 0 -44 -1t-61.5 -2t-61.5 -3t-44 -2z" />
<glyph unicode="l" horiz-adv-x="552" d="M49 0l2 29l8 8q33 0 65 3t48 19q16 14 21.5 37t9.5 64q2 27 3 53.5t2 62t1 84v119.5v492v142t-1 101t-2 76t-3 66q-2 23 -11.5 39t-15.5 24q-20 23 -51 29t-64 6l-8 8v27l8 8h37q35 0 88.5 1t92.5 7l73 11l13 -19q-4 -8 -6.5 -29.5t-4.5 -46t-3 -47t-1 -35.5 q-2 -33 -3 -61.5t-2 -67.5t-1 -94v-141v-447q0 -86 1 -141t2 -94t2 -67.5t3 -65.5q4 -43 9.5 -64.5t21.5 -36.5q16 -14 46 -18t60 -4l11 -10l4 -27l-4 -8q-14 0 -43 2t-62 3t-61.5 2t-42.5 1h-29q-14 0 -44 -1t-61.5 -2t-61 -3t-44.5 -2z" />
<glyph unicode="m" horiz-adv-x="1892" d="M66 0l2 29l8 8q33 0 64.5 3t47.5 19q16 14 21.5 37t9.5 64q2 33 4 66.5t2 107.5v252v72.5t-1 52t-2 41t-3 39.5q-4 23 -12 40t-14 23q-20 25 -51 30t-64 5l-8 8v29l8 6h37q35 0 88 1t92 7l72 10l12 -18q-4 -12 -7 -31.5t-6.5 -43t-5.5 -46.5t-2 -39l7 -4q23 41 52 79 t68 65.5t88.5 44t112.5 16.5q53 0 104.5 -13.5t95.5 -41t77.5 -71.5t52.5 -106q25 45 54.5 87t69.5 74t92 51.5t120 19.5q59 0 115.5 -16.5t102.5 -51.5t79.5 -88t46.5 -129q10 -53 11 -112.5t1 -118.5v-297q0 -47 8 -68.5t23 -32.5q16 -16 48 -19t64 -3l9 -8l4 -29l-4 -8 q-37 4 -79 6t-85 2q-76 0 -140 -6l-14 20q8 27 12.5 70t6.5 76q2 31 3 76t2 91t1 87v63q0 41 -3 103.5t-14 105.5q-20 84 -82.5 127t-140.5 43q-57 0 -105 -21.5t-85 -53t-62.5 -70.5t-38.5 -74q4 -45 5 -90t1 -90v-297q0 -43 8.5 -64.5t24.5 -36.5q16 -14 46 -18t61 -4 l10 -10l4 -27l-4 -8q-14 0 -43 2t-61.5 3t-61.5 2t-43 1h-29q-14 0 -43.5 -1t-61.5 -2t-61.5 -3t-44.5 -2l-4 8l4 29l9 8q33 0 64.5 3t47.5 19q16 14 20.5 37t8.5 64q2 31 3 76t2 91t2 87t1 63v48t-2 56.5t-5 55.5t-9 49q-23 84 -84.5 127t-138.5 43q-68 0 -123.5 -29.5 t-95.5 -71.5t-61.5 -88t-21.5 -79v-230q0 -45 1 -73.5t2.5 -49t2.5 -38t3 -37.5q4 -43 9 -64.5t21 -36.5q16 -14 46 -18t61 -4l10 -10l4 -27l-4 -8q-14 0 -43 2t-61.5 3t-61 2t-43.5 1h-28q-14 0 -44 -1t-62 -2t-61.5 -3t-43.5 -2z" />
<glyph unicode="n" horiz-adv-x="1247" d="M66 0l2 29l8 8q33 0 64.5 3t47.5 19q16 14 21.5 37t9.5 64q2 33 4 66.5t2 107.5v252v72.5t-1 52t-2 41t-3 39.5q-4 23 -12 40t-14 23q-20 25 -51 30t-64 5l-8 8v29l8 6h37q35 0 88 1t92 7l72 10l12 -18q-10 -27 -14.5 -73t-6.5 -89l7 -4q53 88 137 147.5t209 59.5 q57 0 114.5 -16.5t105.5 -51.5t79.5 -89t42.5 -128q6 -53 7 -112.5t1 -118.5q0 -74 1 -149t2 -148q4 -47 9.5 -68.5t18.5 -32.5q18 -16 50 -19t64 -3l6 -8l5 -29l-5 -8q-35 4 -77.5 6t-83.5 2q-78 0 -142 -6l-14 20q8 27 12 70t6 76q4 86 6.5 169t2.5 138q0 47 -3.5 102.5 t-13.5 96.5q-20 96 -83.5 143t-147.5 47q-68 0 -126.5 -28.5t-99 -70.5t-64.5 -88t-24 -79v-232v-73.5t1 -49t3.5 -38t4.5 -37.5q4 -43 9 -64.5t21 -36.5q16 -14 46 -18t61 -4l10 -10l4 -27l-4 -8q-14 0 -43 2t-61.5 3t-61 2t-43.5 1h-28q-14 0 -44 -1t-62 -2t-61.5 -3 t-43.5 -2z" />
<glyph unicode="o" horiz-adv-x="1193" d="M92 475q0 100 35 190.5t99.5 159t157.5 108.5t212 40q121 0 215 -42t158.5 -112.5t98.5 -163t34 -190.5q0 -94 -31 -182t-94.5 -156t-157.5 -109t-219 -41q-129 0 -225 43t-158.5 113t-93.5 159t-31 183zM246 479q0 -76 23.5 -150.5t68.5 -135t110.5 -98.5t149.5 -38 q86 0 151.5 35t108.5 92.5t64.5 130t21.5 150.5q0 74 -23.5 149.5t-68.5 136t-110.5 98.5t-151.5 38q-90 0 -154.5 -36t-106.5 -93.5t-62.5 -131t-20.5 -147.5z" />
<glyph unicode="p" horiz-adv-x="1224" d="M43 -526l2 30l8 7q33 0 63.5 4t49.5 20q16 14 21.5 35.5t9.5 62.5q2 27 3 52.5t2 60.5t1 82v115v477v137t-1 96t-2 73t-3 65q-2 23 -11.5 40t-15.5 23q-20 25 -51 30t-64 5l-8 8v29l8 6h37q35 0 88 1t92 7l72 10l12 -18q-4 -8 -7 -25.5t-6 -39t-4 -43t-1 -36.5l6 -2 q59 84 144 135.5t190 51.5q117 0 202 -41t140 -108.5t81.5 -154.5t26.5 -182q0 -139 -43 -236t-109.5 -157.5t-145 -88.5t-150.5 -28q-98 0 -188.5 46.5t-153.5 150.5l-6 -4q2 -29 4 -68t2 -112v-136.5t1 -89t2 -66.5t5 -65q4 -41 9 -63.5t22 -34.5q16 -16 46 -20t60 -4 l11 -9l4 -28l-4 -6q-14 0 -43 1t-62 2t-61.5 2t-42.5 1h-29q-14 0 -44 -1t-61.5 -2t-61.5 -2t-44 -1zM338 367q6 -33 26.5 -80t60.5 -91t99.5 -75t139.5 -31t138 34t96 89t56.5 125.5t18.5 144.5q0 70 -18.5 137.5t-56.5 120t-95.5 84t-134.5 31.5q-78 0 -137.5 -28.5 t-101.5 -70.5t-65.5 -87t-25.5 -78v-225z" />
<glyph unicode="q" horiz-adv-x="1222" d="M96 463q0 139 43 236.5t108.5 158t144.5 88t151 27.5q96 0 184 -42t154 -140l6 4q0 14 -2 34.5l-4 41t-6.5 37t-6.5 24.5l13 18l71 -10q37 -6 90.5 -7t87.5 -1h37l9 -6v-29l-9 -8q-33 0 -62.5 -5t-51.5 -30q-6 -6 -14.5 -23.5t-10.5 -39.5q-2 -37 -4 -68t-3 -70t-1 -93 v-138v-432q0 -84 1 -136.5t2 -89t2 -66.5t3 -65q4 -41 9 -63.5t22 -34.5q16 -16 46 -20t60 -4l11 -9l4 -28l-4 -6q-14 0 -43 1t-62 2t-61.5 2t-42.5 1h-29q-14 0 -44 -1t-61.5 -2t-61.5 -2t-44 -1l-2 6l2 30l8 7q33 0 64.5 4t48.5 20q16 12 21 34.5t10 63.5q2 27 3 52.5 t2 60.5t1 82v115v78.5t1 60.5t2 48.5t3 43.5l-6 4q-59 -90 -144.5 -145.5t-195.5 -55.5q-117 0 -202 41t-139 109t-81 155t-27 181zM252 467q0 -70 18.5 -137.5t55 -119.5t94 -84t137.5 -32q76 0 136.5 29t102.5 71t64.5 87t24.5 77v226q-4 33 -25.5 80t-61.5 91t-98.5 74.5 t-138.5 30.5q-82 0 -140.5 -33.5t-96 -89t-55 -126t-17.5 -144.5z" />
<glyph unicode="r" horiz-adv-x="835" d="M66 0l2 29l8 8q33 0 64.5 3t47.5 19q16 14 21.5 37t9.5 64l2 18q2 20 3 51t1 105v252v72.5t-1 52t-2 41t-3 39.5q-4 23 -12 40t-14 23q-20 25 -51 30t-64 5l-8 8v29l8 6h37q35 0 88 1t92 7l72 10l12 -18q-12 -43 -17.5 -98.5t-5.5 -106.5l6 -2q20 39 46 82t59 80t75 61.5 t95 24.5q37 0 83 -11.5t62 -29.5l17 -19l-25 -157h-67q-6 29 -32 52t-79 23q-51 0 -94 -29.5t-75 -74.5t-49.5 -95t-17.5 -91v-183q0 -45 1 -72.5t2.5 -47l2.5 -32.5t1 -28l2 -18q4 -31 9 -58.5t21 -42.5q10 -8 30 -12t41.5 -6t41.5 -3t33 -1l10 -10l4 -27l-4 -8 q-14 0 -46 2t-66.5 3t-66.5 2t-46 1h-49q-14 0 -44 -1t-63 -2t-62.5 -3t-43.5 -2z" />
<glyph unicode="s" horiz-adv-x="899" d="M102 70l31 211h47l6 -9q0 -98 61.5 -154.5t178.5 -56.5q70 0 117 16.5t74.5 43t40 57.5t12.5 60q0 18 -2 41.5t-16.5 47t-43 45t-82.5 36.5l-196 49q-68 16 -111 42.5t-67.5 58.5t-35 68t-10.5 72q0 68 27 120t73 86t107.5 51.5t132.5 17.5q96 0 177.5 -24.5t126.5 -49.5 l6 -18l-23 -158h-43l-8 6q0 47 -25.5 79t-62.5 51.5t-78 27.5t-72 8q-102 0 -147 -51t-45 -115q0 -47 31.5 -89t124.5 -65l145 -32q86 -18 138 -50t81 -69t38 -75t9 -70q0 -66 -26.5 -121.5t-76.5 -95t-122 -62.5t-162 -23q-100 0 -187 24t-139 50z" />
<glyph unicode="t" horiz-adv-x="667" d="M51 856v39l8 8l148 29q0 72 -3 146.5t-7 146.5l14 12l29 2q16 2 53 8t51 15l18 -9q-6 -29 -10 -66.5t-7 -80.5t-4 -88t-1 -86l266 12l10 -8v-80l-10 -10h-266q0 -133 -1 -246t-1 -198t-1 -136t-1 -63q0 -80 30.5 -106.5t71.5 -26.5q35 0 81 13t75 30l18 -15l-18 -57 q-47 -33 -105.5 -48.5t-103.5 -15.5q-104 0 -147 57.5t-43 147.5q0 18 2 75.5t4 143.5t4 199t2 246h-148z" />
<glyph unicode="u" horiz-adv-x="1226" d="M39 897v29l6 6h37q35 0 88 1t92 7l72 10l12 -18q-4 -8 -6 -29.5t-4 -46.5t-2 -47.5v-34.5q0 -35 -1 -77t-2 -85t-2 -81.5t-1 -65.5q0 -45 3 -101.5t13 -97.5q20 -96 84 -143t147 -47q63 0 116.5 25.5t93.5 62.5t66 79t34 76v267q0 43 -1 72.5t-2 52t-2 41t-3 39.5 q-4 23 -11.5 40t-13.5 23q-20 25 -51 30t-64 5l-8 8v29l8 6h37q35 0 88 1t90 7l72 10l12 -18q-4 -8 -6 -29.5t-4 -46.5t-2 -47.5v-34.5q0 -16 -1 -30.5t-1 -35t-1 -48t-1 -72.5v-230q0 -45 1 -73.5t2 -49t2 -38t1 -37.5q4 -47 10 -68.5t21 -32.5q16 -16 48 -19t64 -3l9 -8 l4 -29l-4 -8q-37 4 -80 6t-84 2q-78 0 -142 -6l-12 20q6 27 13.5 70t11.5 88l-6 4q-53 -86 -136.5 -142.5t-203.5 -56.5q-59 0 -113.5 13.5t-100.5 44.5t-79 82t-47 129q-10 50 -10 106q1 4 1 6v23q0 47 -2 94q0 27 -1 73t-1 94v89v60q0 23 -10 40t-16 25q-20 23 -51 28 t-64 5z" />
<glyph unicode="v" horiz-adv-x="1054" d="M-2 903v29l8 8q35 -4 74 -8t72 -4h79q33 0 79 4t87 8l9 -8v-25l-9 -8q-45 -4 -74.5 -23.5t-29.5 -56.5q0 -25 19.5 -87t44 -133t47 -131t30.5 -81l101 -266l98 235q14 35 38.5 94.5t49 127t42 132t17.5 109.5t-32.5 60.5t-73.5 19.5l-8 8v25l8 8q80 -12 149 -12h84 q35 0 69 4t73 8l8 -8v-29l-13 -10q-35 -4 -60.5 -20.5t-47.5 -53.5q-18 -33 -42 -82t-47.5 -106.5t-47 -116.5t-43 -110.5t-32.5 -89.5t-19 -52l-105 -262l-129 -10l-20 10l-123 328q-6 18 -25.5 67t-44.5 108.5t-50.5 124t-45.5 113.5t-37 78q-20 33 -46 51.5t-69 22.5z " />
<glyph unicode="w" horiz-adv-x="1677" d="M-2 903v29l8 8q35 -4 74 -8t72 -4h79q33 0 79 4t87 8l9 -8v-25l-9 -8q-45 -4 -74.5 -23.5t-29.5 -56.5q0 -16 9 -51t23.5 -78t31 -91t33 -91t28.5 -76t16 -45l101 -266l98 235q12 31 33.5 80t43 106.5t41 117t27.5 108.5q-10 39 -31.5 77t-84.5 48l-13 10v29l8 8 q35 -4 65 -8t62 -4h80q68 0 146 12l8 -8v-25l-8 -8q-90 -10 -90 -80q0 -16 9 -51t23.5 -78t30.5 -91t32.5 -91t29 -76t16.5 -45l100 -266l99 235q14 35 38.5 94.5t49 127t42 132t17.5 109.5t-33 60.5t-74 19.5l-8 8v25l8 8q82 -12 150 -12h84q35 0 66.5 4t72.5 8l6 -8v-29 l-10 -10q-37 -4 -62.5 -20.5t-47.5 -53.5q-20 -33 -43 -82t-46.5 -106.5t-46 -116.5t-42 -110.5t-34 -89.5t-20.5 -52l-104 -262l-125 -10l-19 10l-241 623q-23 -57 -44.5 -114.5t-40 -108t-32.5 -87.5t-21 -51l-104 -262l-125 -10l-20 10l-123 328q-6 16 -25.5 64 t-44.5 109.5t-50.5 126t-45.5 113.5t-37 78q-20 33 -46 51.5t-69 22.5z" />
<glyph unicode="x" horiz-adv-x="1075" d="M29 0v29l12 10q33 6 54.5 12t40 17.5t35.5 29t40 45.5q35 45 103.5 136.5t146.5 203.5q-49 66 -111.5 151t-142.5 185q-25 31 -56.5 50.5t-78.5 23.5l-13 10v29l9 8q35 -4 77.5 -8t75.5 -4h80q33 0 75 4t83 8l8 -8v-25l-8 -8q-41 -4 -71 -14t-30 -45q0 -8 15.5 -35 t42 -66t61.5 -88t76 -100q39 47 71.5 94t57.5 85t39 65.5t14 35.5q0 41 -16.5 50.5t-63.5 17.5l-8 8v25l8 8q41 -6 69 -9t62 -3h84q35 0 69 4t75 8l8 -8v-29l-12 -10q-33 -4 -58.5 -11.5t-47 -20.5t-41 -32.5t-40.5 -50.5q-37 -49 -64.5 -88t-53 -72.5t-49 -66.5t-50.5 -72 q47 -63 94.5 -123.5t84 -108.5t60 -78t27.5 -32q29 -39 65 -64.5t101 -35.5l13 -10v-29l-9 -8q-35 4 -77.5 8t-75.5 4h-80q-33 0 -76 -4t-84 -8l-8 8v25l8 8q35 2 59.5 16t24.5 31q0 10 -7 28.5t-30.5 54.5t-65.5 95t-110 152q-41 -49 -81 -100.5t-72.5 -94.5t-52 -73.5 t-19.5 -39.5q0 -35 25.5 -47t72.5 -20l8 -8v-25l-8 -8q-41 6 -67.5 7t-61.5 1h-84q-35 0 -69.5 -2t-73.5 -6z" />
<glyph unicode="y" horiz-adv-x="1052" d="M-2 903v29l8 8q35 -4 74 -8t72 -4h79q33 0 79 4t87 8l9 -8v-25l-9 -8q-45 -4 -74.5 -23.5t-29.5 -56.5q0 -25 19.5 -87t44 -133t47 -132t30.5 -80l103 -266l96 235q14 35 38.5 94.5t49 127t42 132t17.5 109.5t-32.5 60.5t-73.5 19.5l-8 8v25l8 8q80 -12 149 -12h84 q35 0 67 4t70 8l9 -8v-29l-11 -10q-37 -4 -56 -20.5t-42 -53.5q-18 -33 -41.5 -82t-47.5 -106.5t-47.5 -116.5t-43 -110.5t-32.5 -89.5t-19 -52l-201 -500q-53 -133 -144.5 -197.5t-197.5 -90.5q-20 -4 -36.5 -5t-37.5 -1l-16 4l-4 49l8 10q29 0 54.5 2t50 9t48 23.5 t52.5 45.5q39 41 67.5 87t46.5 93l66 166l-141 371q-8 18 -27.5 67t-44.5 109.5t-50.5 124t-43.5 112.5q-20 49 -37 78q-20 33 -46 51.5t-69 22.5z" />
<glyph unicode="z" horiz-adv-x="999" d="M80 8v29q29 29 75 86t99 130t108.5 156t105.5 163.5t89 152.5t59 123l-8 8h-194q-80 0 -127 -7t-73 -24.5t-36 -44t-18 -65.5l-8 -8h-35l-15 10l17 215l6 12q90 -4 179 -7t164 -4t129 -1h73h92q18 0 56 3t63 9l12 -16l-6 -33q-27 -27 -69 -81t-92 -125t-105.5 -151.5 t-105.5 -160.5t-94 -152.5t-71 -126.5l8 -8h105q123 0 193.5 4t109.5 19.5t57.5 47.5t38.5 87l6 8h45l-32 -244l-11 -20q-6 0 -41.5 1t-87 1t-112 2t-113.5 2t-94 1t-53 1h-66q-16 0 -44 -1t-58.5 -2t-59 -2t-47.5 -3z" />
<glyph unicode="{" horiz-adv-x="520" d="M43 659v21q55 2 85 32.5t44 74.5t16 93.5t2 88.5q0 31 -1 72.5t-1 84.5t-1 80t-1 60q0 63 10.5 117.5t39 92t83 59t142.5 21.5l4 -22q-53 -6 -83 -25.5t-46.5 -50.5t-20.5 -70.5t-4 -82.5q0 -18 1 -57.5t1 -82.5t1 -85t1 -68q0 -63 -9 -119.5t-30.5 -102t-58.5 -77 t-94 -43.5q57 -12 94 -44t58.5 -77t30.5 -101.5t9 -119.5q0 -27 -1 -69t-1 -85t-1 -82t-1 -57q0 -43 4 -83t20.5 -71t46.5 -50t83 -26l-4 -22q-88 0 -142.5 21.5t-83 59.5t-39 91t-10.5 119q0 23 1 61.5t1 82.5t1 87t1 72q0 41 -3 89t-16 90t-43 71.5t-85 31.5z" />
<glyph unicode="|" horiz-adv-x="485" d="M162 -225q16 137 20 302t4 316v631v117.5t-3 140.5t-8 146.5t-13 136.5l2 8h155l5 -8q-10 -63 -14.5 -136t-7.5 -147t-3 -140.5v-117.5v-631q0 -152 4 -316.5t21 -301.5l-5 -8h-155z" />
<glyph unicode="}" horiz-adv-x="518" d="M53 -195q51 6 83 25.5t47.5 50.5t20.5 71t5 83q0 18 -1 57t-1 82t-1 85t-1 69q0 63 9 119.5t30.5 101.5t58.5 76.5t94 44.5q-57 12 -94 43.5t-58.5 77t-30.5 101.5t-9 120q0 27 1 68.5t1 84.5t1 82t1 58q0 43 -5 82.5t-20.5 70.5t-47.5 50.5t-83 25.5l4 22 q88 0 142.5 -21.5t83 -59t39 -92t10.5 -117.5v-60t-1 -80t-1 -85v-72q0 -39 2 -88.5t16 -93.5t43 -74.5t84 -32.5v-21q-55 -2 -84 -31.5t-43 -71.5t-16 -90t-2 -89v-72t1 -87t1 -83v-61q0 -66 -10.5 -119t-39 -91t-83 -59.5t-142.5 -21.5z" />
<glyph unicode="~" horiz-adv-x="980" d="M135 414q0 14 12.5 40.5t37 53.5t59.5 45t78 18q27 0 70.5 -3t94 -6t103.5 -6t98 -3q35 0 71 8t62 45l25 -16q0 -6 -10.5 -32t-32 -53.5t-55 -50t-82.5 -22.5q-23 0 -74 3t-111.5 6t-117 6.5t-89.5 3.5q-51 0 -71.5 -13.5t-40.5 -38.5z" />
<glyph unicode="&#xa1;" horiz-adv-x="460" d="M133 879q0 39 27.5 66.5t68.5 27.5q37 0 67 -27.5t30 -66.5t-30 -69t-67 -30q-41 0 -68.5 30t-27.5 69zM137 -383q2 20 4 48t6.5 74t8.5 116.5t8 176t9 254t9 351.5l13 8l71 -35l10 -12q4 -213 9.5 -363.5t10.5 -253t9 -165t7 -100.5t5 -60.5t5 -44.5q0 -10 1 -25.5 t1 -34.5l-11 -6l-168 54z" />
<glyph unicode="&#xa2;" horiz-adv-x="1054" d="M88 434q0 100 34 180t93 138.5t138 93.5t169 45q-2 78 -7 151.5t-13 131.5l4 8h156l4 -8q-10 -55 -14.5 -128t-8.5 -151q92 -4 169 -26.5t118 -45.5l6 -18l-23 -158h-43l-8 6q0 43 -21.5 71t-54 44t-71.5 24.5t-74 10.5q-2 -74 -2 -140.5v-107.5v-170v-145.5t2 -155.5 q88 2 166 24.5t133 51.5l21 -21l-31 -57q-41 -29 -115 -59.5t-170 -40.5q4 -68 8 -133.5t13 -120.5l-4 -9h-156l-4 9q8 55 12 119.5t8 134.5q-88 8 -167 41.5t-138 90t-94 137.5t-35 183zM244 446q0 -137 69.5 -231t208.5 -123q2 78 3 152.5t1 140.5v170v105.5t-2 138.5 q-72 -12 -124 -44t-86.5 -78t-52 -105.5t-17.5 -125.5z" />
<glyph unicode="&#xa3;" horiz-adv-x="1087" d="M88 23v47q68 53 112 104t68.5 103.5t34.5 104.5t10 107v32t-2 32h-209l41 86h160q-10 74 -19.5 149.5t-9.5 147.5q0 197 94.5 311.5t268.5 114.5q43 0 92 -10.5t95 -34t86 -63.5t65 -97l-27 -186h-55l-8 8q-12 137 -62.5 205.5t-160.5 68.5q-66 0 -108 -22.5t-68.5 -62.5 t-37 -94t-10.5 -120t7.5 -146.5t11.5 -168.5h305l-21 -86h-280v-23q0 -72 -8.5 -138t-27.5 -123.5t-54 -101.5t-90 -69l4 -6q182 -14 275 -23.5t122 -9.5q61 0 98 8.5t58.5 25t32 44t22.5 66.5l10 12h55l-75 -285l-19 -20q-45 25 -133 43t-195.5 28.5t-220 15.5t-206.5 5z " />
<glyph unicode="&#xa4;" horiz-adv-x="1187" d="M113 883l61 61l164 -162q66 47 125 68.5t129 21.5q72 0 132 -21.5t120 -68.5l166 160l61 -59l-162 -164q47 -63 68.5 -122.5t21.5 -129.5q0 -68 -20.5 -127t-67.5 -121l164 -164l-63 -61l-166 162q-59 -45 -120.5 -69t-129.5 -24q-66 0 -126 23t-128 70l-164 -162l-59 61 l160 164q-90 111 -91 252q0 66 20.5 125t72.5 123zM291 469q0 -63 23.5 -118.5t65.5 -97.5t97 -65.5t119 -23.5q63 0 117.5 23.5t95.5 65.5t64.5 97.5t23.5 118.5t-23.5 118.5t-64.5 96.5t-96.5 65.5t-118.5 24.5q-61 0 -116.5 -23.5t-97.5 -64.5t-65.5 -97.5t-23.5 -119.5z " />
<glyph unicode="&#xa5;" horiz-adv-x="1437" d="M70 1307v36l10 9q49 -6 92 -11.5t90 -5.5h86q47 0 109.5 5.5t120.5 11.5l8 -9v-36l-8 -9q-41 -2 -72 -7t-49 -17q-25 -18 -25 -35q0 -10 7 -24.5t14 -24.5q74 -135 139 -256t143 -254q35 59 75 132t77 141.5t64.5 124t37.5 77.5q4 10 12.5 32.5t8.5 39.5q0 25 -14.5 37 t-36 18t-47 8t-48.5 8l-8 9v36l8 9q59 -10 99.5 -11.5t89.5 -1.5h118q49 0 90.5 2t98.5 11l8 -9v-36l-8 -9q-47 -6 -80 -16t-60.5 -27.5t-52 -46t-55.5 -73.5q-96 -143 -154.5 -240.5t-101.5 -175.5h277v-90h-328q-8 -16 -14.5 -43t-6.5 -66h349v-90h-349v-97t1 -65.5t2 -48 t4 -41.5q4 -57 19 -79.5t32 -37.5q16 -14 46 -17t62 -3l11 -8l6 -37l-4 -8q-14 0 -47 2t-68 4t-67.5 4t-47.5 2h-39q-14 0 -47 -2t-68.5 -4t-68.5 -4t-47 -2l-2 8l4 37l10 8q33 0 62.5 3t46.5 17q16 14 31.5 37t19.5 80q2 14 3 33.5t2 48.5t1 70v100h-348v90h348 q-2 39 -9 63.5t-16 45.5h-323v90h272q-61 104 -138 228t-148 235q-14 23 -33 44t-33 34q-23 18 -54.5 26t-72.5 12z" />
<glyph unicode="&#xa6;" horiz-adv-x="493" d="M166 -225q8 68 13 117t7 91t3 82.5t1 94.5v65v59.5t-3 68.5t-8 87t-13 113l2 8h156l4 -8q-10 -63 -14.5 -112.5t-7.5 -87.5t-3 -68.5v-59.5v-65q0 -53 1 -94t3 -83t7 -91.5t14 -116.5l-4 -8h-156zM166 786q8 68 13 117t7 91t3 83t1 94v68v59.5t-3 68.5t-8 86t-13 112l2 8 h156l4 -8q-10 -63 -14.5 -111.5t-7.5 -86.5t-3 -68.5v-59.5v-68q0 -53 1 -94t3 -83t7 -91t14 -117l-4 -8h-156z" />
<glyph unicode="&#xa7;" horiz-adv-x="864" d="M102 690q0 39 6.5 71t21.5 63.5t37.5 65.5t57.5 75q-23 35 -33 73.5t-10 77.5q0 63 27 122.5t72 107t105 76t128 28.5q47 0 87 -13.5t79 -43.5l4 -17l-88 -166h-10q-25 57 -73 87t-95 30q-49 0 -85 -29.5t-36 -93.5q0 -45 26.5 -85t64.5 -75.5t80 -67.5t75 -61 q117 -104 172 -185t55 -157q0 -59 -35 -119.5t-100 -129.5q16 -35 19 -57.5t3 -49.5q0 -76 -23.5 -138.5t-63.5 -107.5t-94 -69.5t-116 -24.5q-53 0 -94 19.5t-90 64.5l-2 12l102 138l7 -2q16 -59 58 -87t87 -28q53 0 94 30.5t41 88.5q0 37 -22.5 69.5t-57 65.5t-79 64.5 t-89.5 64.5q-68 51 -109.5 93t-65 79t-31 70.5t-7.5 70.5zM199 795q0 -23 13 -50.5t55 -71.5t120 -112.5t207 -175.5q41 33 52 58.5t11 66.5q0 29 -9 53.5t-47 64.5t-116.5 105.5t-216.5 177.5q-41 -39 -55 -64.5t-14 -51.5z" />
<glyph unicode="&#xa8;" horiz-adv-x="450" d="M0 1292q0 37 24.5 64.5t59.5 27.5t60.5 -27.5t25.5 -64.5q0 -39 -25.5 -64.5t-60.5 -25.5t-59.5 25.5t-24.5 64.5zM281 1292q0 37 24.5 64.5t59.5 27.5t60.5 -27.5t25.5 -64.5q0 -39 -26 -64.5t-60 -25.5q-35 0 -59.5 25.5t-24.5 64.5z" />
<glyph unicode="&#xa9;" horiz-adv-x="1484" d="M121 725q0 127 48 238.5t133 195.5t197.5 132t241.5 48t243 -48t198 -132t133 -195.5t49 -238.5q0 -129 -49 -242.5t-134 -196.5t-201 -131.5t-249 -48.5q-125 0 -236.5 49.5t-194.5 133.5t-131 196.5t-48 239.5zM193 725q0 -115 43 -217t116.5 -178t172 -120t208.5 -44 q117 0 219.5 43t178 118.5t118.5 178t43 219.5q0 115 -43 216t-118.5 176t-176 119t-213.5 44q-115 0 -214 -44t-173.5 -119t-117.5 -176t-43 -216zM393 723q0 74 22.5 138.5t67.5 112.5t113 75.5t156 27.5q37 0 100 -8t121 -31l2 -14l-17 -102h-55l-12 10q-6 41 -52 56.5 t-94 15.5q-92 0 -147 -43q-41 -37 -63.5 -99.5t-22.5 -134.5q0 -135 71.5 -205.5t178.5 -70.5q41 0 96 13t111 54l18 -29l-24 -57q-51 -29 -105.5 -42t-109.5 -13q-80 0 -145.5 25.5t-112 70.5t-72 108.5t-25.5 141.5z" />
<glyph unicode="&#xaa;" horiz-adv-x="727" d="M102 924q0 68 44 106.5t101.5 57t115 22.5t83.5 4q-2 55 -10 88t-21.5 51.5t-33 23.5t-43.5 5q-16 0 -37.5 -2t-42 -11t-36 -25.5t-17.5 -45.5l-4 -6h-33l-10 94l4 8q6 6 25.5 15.5t47 17.5t61.5 14.5t66 6.5q176 0 177 -187q0 -53 -1 -92t-1 -71.5t-1 -63.5t-1 -68 q0 -47 24.5 -55t58.5 -8l5 -37q-23 2 -46.5 3t-52.5 1q-23 0 -44 -1t-40 -1l-8 8q4 23 6 45.5t2 44.5l-4 6q-31 -45 -72.5 -80.5t-95.5 -35.5q-76 0 -121 49t-45 119zM199 932q0 -51 26.5 -73.5t65.5 -22.5q43 0 80 23t55 52q4 6 9 15.5t5 19.5l6 111q-51 0 -96 -4 t-78.5 -16.5t-53 -37t-19.5 -67.5z" />
<glyph unicode="&#xab;" horiz-adv-x="950" d="M96 492q51 63 91 114t72 93t57.5 79t50.5 76l14 8h119l10 -20q-90 -90 -155.5 -173t-131.5 -177q66 -92 131.5 -175.5t155.5 -173.5l-10 -20h-119l-14 8q-25 39 -50.5 76t-57.5 79t-72 92t-91 114zM426 492q51 63 91 114t72 93t57.5 79t49.5 76l17 8h118l11 -20 q-90 -90 -155.5 -173t-131.5 -177q66 -92 131.5 -175.5t155.5 -173.5l-11 -20h-118l-17 8q-25 39 -50 76t-57 79t-72 92t-91 114z" />
<glyph unicode="&#xac;" horiz-adv-x="1294" d="M158 592v106h983v-458h-109v352h-874z" />
<glyph unicode="&#xad;" horiz-adv-x="964" d="M137 436l19 107h673l-20 -107h-672z" />
<glyph unicode="&#xae;" horiz-adv-x="1484" d="M121 725q0 127 48 238.5t133 195.5t197.5 132t241.5 48t243 -48t198 -132t133 -195.5t49 -238.5q0 -129 -49 -242.5t-134 -196.5t-201 -131.5t-249 -48.5q-125 0 -236.5 49.5t-194.5 133.5t-131 196.5t-48 239.5zM193 725q0 -115 43 -217t116.5 -178t172 -120t208.5 -44 q117 0 219.5 43t178 118.5t118.5 178t43 219.5q0 115 -43 216t-118.5 176t-176 119t-213.5 44q-115 0 -214 -44t-173.5 -119t-117.5 -176t-43 -216zM461 412l2 32q33 2 50 13.5t25.5 35t9.5 59.5t1 85v272q0 55 -14.5 95t-71.5 45v41h246q141 0 195 -50.5t54 -126.5 q0 -41 -14 -72.5t-37.5 -55t-53.5 -39t-60 -23.5q33 -45 69.5 -94t73.5 -90t74 -68t67 -27v-32q-33 0 -42 -2t-25 -2q-43 0 -73 12t-61.5 46t-72.5 93t-105 152h-63q0 -80 3 -132.5t12 -82t26.5 -42t44.5 -12.5l4 -30h-264zM635 801q0 -23 11 -26t26 -3h55q72 0 106.5 36 t34.5 99q0 55 -36.5 88t-102.5 33h-94v-227z" />
<glyph unicode="&#xb0;" horiz-adv-x="696" d="M98 1112q0 49 16.5 91t48.5 75t78 51.5t105 18.5q125 0 188.5 -72t63.5 -170q0 -45 -15.5 -86t-46 -73t-78.5 -50t-112 -18q-66 0 -113 19.5t-76.5 52t-44 74.5t-14.5 87zM184 1114q0 -72 41 -123t121 -51q82 0 122 47t40 119q0 70 -40 122t-124 52q-86 0 -123 -50 t-37 -116z" />
<glyph unicode="&#xb1;" horiz-adv-x="983" d="M166 143l18 109h635l-20 -109h-633zM166 610l18 109h254v213h107v-213h274l-20 -109h-254v-235h-107v235h-272z" />
<glyph unicode="&#xb2;" horiz-adv-x="727" d="M121 633v24q39 49 101.5 117t121.5 138.5t102 138t43 118.5q0 45 -25.5 80t-103.5 35q-150 0 -161 -154h-47l-13 111q27 47 81 84t147 37q117 0 168 -51t51 -140q0 -72 -48.5 -145.5t-105.5 -138t-105 -114.5t-48 -75h67q68 0 107 2t62.5 11.5t34.5 29t21 54.5h29 l-18 -164l-11 -10q-6 0 -35.5 1t-64.5 2t-67.5 2t-47.5 1h-110q-25 0 -55.5 -2t-59.5 -4z" />
<glyph unicode="&#xb3;" horiz-adv-x="692" d="M109 735l12 90h43q10 -86 57 -117.5t107 -31.5q68 0 121 40t53 122q0 59 -37 107t-113 48h-30l12 43q63 2 97 46t34 96q0 61 -43 90.5t-96 29.5t-97.5 -30.5t-44.5 -96.5q0 -14 2 -20h-45l-10 90q10 20 25.5 43t39 39t57.5 27.5t81 11.5q104 0 161.5 -54.5t57.5 -125.5 q0 -45 -25.5 -87t-83.5 -71q76 -16 111 -65.5t35 -108.5q0 -43 -18.5 -86t-52.5 -78t-82 -56.5t-109 -21.5q-78 0 -130.5 34t-88.5 93z" />
<glyph unicode="&#xb4;" horiz-adv-x="448" d="M0 1171l6 15l369 207q35 -2 54.5 -22.5t19.5 -49.5q0 -20 -9 -39l-413 -158l-15 6z" />
<glyph unicode="&#xb5;" horiz-adv-x="1314" d="M98 897v29l6 6h37q35 0 88.5 1t92.5 7l71 10l13 -18q-4 -8 -6.5 -29.5t-4.5 -46.5t-2 -47.5v-34.5q0 -35 -1 -77t-2 -85t-2 -81.5t-1 -65.5q0 -45 3 -101.5t13 -97.5q20 -96 84 -143t148 -47q63 0 116.5 25.5t93.5 62.5t65.5 79t33.5 76v267v72.5t-1 52t-3 41t-4 39.5 q-4 23 -11 40t-14 23q-20 25 -51 30t-63 5l-9 8v29l9 6h37q35 0 88 1t90 7l71 10l13 -18q-4 -8 -6.5 -29.5t-4.5 -46.5t-2 -47.5v-34.5q0 -16 -1 -30.5t-1 -35t-1 -48t-1 -72.5v-230q0 -45 1 -73.5t2 -49t2 -38t1 -37.5q4 -47 10.5 -68.5t20.5 -32.5q16 -16 48 -19t65 -3 l8 -8l4 -29l-4 -8q-37 4 -80 6t-84 2q-78 0 -141 -6l-12 20q6 27 10 72l8 90q-53 -86 -136 -142.5t-204 -56.5q-29 0 -66.5 5.5t-74.5 18.5t-67 34.5t-42 52.5l-6 -4q-12 -129 -21.5 -204t-25.5 -136l-10 -12h-19q-96 0 -131 51v12q27 53 48.5 121t35.5 136.5t21.5 130 t7.5 102.5v200q0 39 -1 87.5t-2 92.5t-2 77.5t-1 48.5q-2 23 -9.5 40t-13.5 25q-20 23 -51 28t-64 5z" />
<glyph unicode="&#xb6;" horiz-adv-x="1085" d="M76 1010q0 68 24.5 128t65.5 105t97 71.5t122 26.5h40t55.5 -1t58 -1h51.5h211q20 0 48 2t53.5 4.5t49 4.5t37.5 2l4 -9l-6 -36l-10 -9q-51 0 -71.5 -5t-37.5 -15q-16 -14 -30.5 -35.5t-20.5 -81.5q-4 -51 -5 -103t-1 -93v-533v-142t1 -157t2 -134t3 -73 q6 -53 20.5 -80.5t30.5 -38.5q18 -14 51 -17t58 -3l10 -6l6 -37l-4 -8q-14 2 -47 3t-67.5 3t-67.5 3t-47 1h-176q-14 0 -47 -1t-68 -3t-67.5 -3t-47.5 -3l-4 8l6 37l11 6q51 0 70.5 5t37.5 18q12 10 29.5 33.5t21.5 82.5q0 14 1 68.5t2 122t1 135v110.5v216q-72 0 -151.5 17 t-147 64.5t-111.5 132.5t-44 218zM592 -168l4 -8h162l4 8q-10 70 -15.5 123t-7.5 103.5t-3 106.5t-1 130v457q0 102 3 237t24 264l-4 9h-162l-4 -9q18 -129 21 -264t3 -237v-457q0 -74 -1 -130t-3 -106.5t-7 -103.5t-13 -123z" />
<glyph unicode="&#xb7;" horiz-adv-x="464" d="M137 498q0 39 28 68.5t68 29.5q37 0 67 -29.5t30 -68.5t-30 -67t-67 -28q-41 0 -68.5 28t-27.5 67z" />
<glyph unicode="&#xb8;" horiz-adv-x="413" d="M0 -365l27 48h14q25 -10 63.5 -17.5t77.5 -7.5q45 0 78 17.5t33 64.5q0 55 -32 74.5t-75 19.5q-25 0 -50 -4t-48 -10l-18 22l104 158h70l-62 -104q35 8 70 8q72 0 117 -42t45 -106q0 -35 -17.5 -65.5t-47.5 -54t-70.5 -38t-90.5 -14.5q-49 0 -97 11.5t-89 27.5z" />
<glyph unicode="&#xb9;" horiz-adv-x="550" d="M113 1206v23l2 8q53 27 100 54.5t94 70.5h8l29 -10q-6 -66 -7 -138.5t-1 -173.5v-112v-83v-54.5t1 -40t3 -37.5q2 -25 11 -38t20 -22q10 -8 33.5 -13t42.5 -5l6 -27q-10 0 -27.5 1t-36 2t-36 1h-25.5h-70h-27.5t-37 -1t-37 -2t-25.5 -1l6 27q18 0 43 4t37 14 q10 8 17.5 21.5t11.5 38.5q2 16 3 31.5t1 36v48v70.5v137v80v52.5t-1 37t-3 35.5z" />
<glyph unicode="&#xba;" horiz-adv-x="765" d="M98 1051q0 61 19.5 114.5t56.5 94t89 64.5t118 24q70 0 123 -25t90 -67t55.5 -97t18.5 -115q0 -55 -17.5 -107t-53.5 -92t-89 -64.5t-125 -24.5q-74 0 -127 24.5t-88 66.5t-52.5 95t-17.5 109zM186 1053q0 -45 13.5 -87t39 -75t61.5 -53.5t83 -20.5t83 18.5t60.5 50.5 t36.5 72.5t12 85.5q0 43 -13 86.5t-38.5 76t-62.5 53t-84 20.5q-49 0 -85 -19.5t-59.5 -51t-35 -72.5t-11.5 -84z" />
<glyph unicode="&#xbb;" horiz-adv-x="950" d="M109 143q88 90 153.5 173t130.5 176q-66 94 -131 177t-153 173l8 20h119l16 -8q25 -39 50.5 -76t57 -79t71.5 -93t91 -114q-51 -63 -91 -113.5t-71.5 -92.5t-57.5 -79t-50 -76l-16 -8h-119zM438 143q88 90 154.5 173t132.5 176q-66 94 -132.5 177t-154.5 173l11 20h118 l15 -8q25 -39 50 -76t58 -79t72 -93t92 -114q-53 -63 -92 -113.5t-72 -92.5t-58.5 -79t-49.5 -76l-15 -8h-118z" />
<glyph unicode="&#xbc;" horiz-adv-x="1390" d="M121 39v8q59 68 108.5 130.5t96.5 123.5t95 127t103 141l248 338q76 104 158 220t153 243l11 8h155l-2 -8q-115 -127 -202 -242.5t-160 -220.5l-246 -338q-55 -78 -102.5 -143.5t-89 -126.5t-80.5 -122.5t-82 -129.5l-9 -8h-155zM129 1206v23l4 8q53 27 100.5 54.5 t94.5 70.5h8l26 -10q-4 -66 -5 -138.5t-1 -173.5v-112q0 -90 2 -147.5t10.5 -90.5t27 -44t50.5 -11l7 -27q-16 2 -52 3t-53 1h-69h-28t-37 -1t-36.5 -2t-25.5 -1l6 27q18 0 42.5 4t37.5 14q12 12 18 24.5t9 37t4 67.5t1 117v137v80v52.5t-1 37t-3 35.5zM786 268l275 449 l119 16l14 -10q-2 -16 -3 -36.5t-2 -64.5t-2 -121t-1 -204h98l6 -6l-16 -53l-8 -7h-80q0 -66 2 -107.5t11 -68t30.5 -37t58.5 -10.5l4 -24q-16 0 -56 2t-56 2h-78q-8 0 -25.5 -1t-36 -1t-36 -1t-25.5 -1l6 24q41 0 63.5 11.5t33 37t12.5 68.5t2 106h-287l-10 7zM889 297h207 q0 150 -1 226.5t-3 117.5z" />
<glyph unicode="&#xbd;" horiz-adv-x="1433" d="M127 39v8q59 68 108.5 130.5t96.5 123.5t95 127t103 141l248 338q76 104 158 220t154 243l10 8h155l-2 -8q-111 -127 -199.5 -242.5t-162.5 -220.5l-246 -338q-55 -78 -102 -143.5t-89 -126.5t-81 -122.5t-82 -129.5l-8 -8h-156zM127 1206v23l4 8q53 27 100.5 54.5 t94.5 70.5h8l28 -10q-6 -66 -7 -138.5t-1 -173.5v-112v-83v-54.5t1 -40t3 -37.5q2 -25 11.5 -38t19.5 -22q10 -8 23.5 -13t31.5 -5l7 -27q-16 2 -52.5 3t-52.5 1h-70h-27.5t-36.5 -1t-36.5 -2t-25.5 -1l6 27q18 0 42.5 4t37.5 14q8 8 16 21.5t12 38.5q2 16 3 31.5t1 36v48 v70.5v137v80v52.5t-1 37t-3 35.5zM848 4v25q39 49 101.5 116.5t121.5 138t102.5 138t43.5 119.5q0 45 -26 79.5t-104 34.5q-150 0 -161 -153h-47l-13 110q27 47 81 84t147 37q117 0 168 -51t51 -139q0 -68 -40 -134.5t-92.5 -126t-105.5 -111.5t-80 -93l4 -8h74q68 0 107 2 t62.5 11t34.5 28.5t21 54.5h29l-18 -164l-11 -10q-6 0 -35.5 1t-64.5 2t-67.5 2t-47.5 1h-110q-25 0 -55.5 -2t-59.5 -4z" />
<glyph unicode="&#xbe;" horiz-adv-x="1472" d="M109 735l10 90h43q10 -84 57 -116.5t107 -32.5q33 0 64.5 10t56 29.5t40 50.5t15.5 72q0 59 -38 107t-114 48h-31l13 43q63 2 97 46t34 96q0 61 -43 90.5t-96 29.5t-97.5 -30.5t-44.5 -96.5q0 -12 2 -20h-45l-10 90q10 20 25.5 43t39 39t57.5 27.5t81 11.5 q104 0 161.5 -54.5t57.5 -125.5q0 -45 -25.5 -87t-83.5 -71q76 -16 111 -65.5t35 -108.5q0 -43 -18.5 -86t-52.5 -78t-82 -56.5t-109 -21.5q-78 0 -130.5 34t-86.5 93zM203 39l2 8q57 68 107 130.5t97.5 123.5t95.5 127t103 141l248 338q76 104 157 220t154 243l9 8h155 l-2 -8q-113 -125 -200 -242.5t-160 -220.5l-246 -338q-55 -78 -102.5 -143.5t-89.5 -126.5t-81.5 -122.5t-80.5 -129.5l-11 -8h-155zM868 268l275 449l119 16l14 -10q-2 -16 -3 -36.5t-2 -64.5t-2 -121t-1 -204h98l6 -6l-16 -53l-8 -7h-80q0 -66 2 -107.5t11 -68t30.5 -37 t58.5 -10.5l4 -24q-16 0 -56 2t-56 2h-78q-8 0 -25.5 -1t-36 -1t-36 -1t-25.5 -1l6 24q41 0 63.5 11.5t33 37t12.5 68.5t2 106h-287l-10 7zM971 297h207q0 150 -1 226.5t-3 117.5z" />
<glyph unicode="&#xbf;" horiz-adv-x="849" d="M96 -127q0 94 46 179t101.5 160t102.5 139.5t51 119.5l9 127l12 12l71 35l13 -8q2 -53 5 -111.5t3 -87.5q0 -84 -43 -154.5t-94 -139t-94 -143.5t-43 -163q0 -53 18 -92t48 -65.5t65.5 -39t70.5 -12.5q55 0 100.5 18.5t78 51.5t53 74t26.5 88l6 6h35l25 -191l-4 -18 q-18 -29 -58.5 -50.5t-88.5 -35.5t-96 -20.5t-83 -6.5q-43 0 -101.5 14.5t-110.5 51.5t-88 100.5t-36 161.5zM356 879q0 39 28 66.5t69 27.5q39 0 68.5 -27.5t29.5 -66.5t-29.5 -69t-68.5 -30q-41 0 -69 30t-28 69z" />
<glyph unicode="&#xc0;" horiz-adv-x="1382" d="M-39 -4l4 37l10 8q27 0 51.5 2t49 15.5t48 41t48.5 78.5q6 10 11 23.5t16.5 40t29 70.5t45 115t67.5 173t97 248q27 72 55.5 142.5t53 132t44 108.5t27.5 69l121 62h23l336 -930q20 -61 35.5 -102t26.5 -70t19.5 -48t14.5 -34q23 -51 46.5 -78.5t48 -41t50 -15.5t52.5 -2 l10 -8l6 -37l-4 -8q-14 0 -43 2t-59.5 4t-58.5 4t-42 2h-67q-14 0 -47 -2t-69 -4t-69 -4t-47 -2l-4 8l6 37l8 8q59 0 92 13.5t33 72.5q0 47 -31.5 132t-78.5 214l-35 98h-459l-35 -98q-47 -129 -78.5 -214t-31.5 -132q0 -59 32.5 -72.5t92.5 -13.5l10 -8l6 -37l-4 -8 q-14 0 -45 2t-64.5 4t-64.5 4t-45 2h-39q-14 0 -43 -2t-59.5 -4t-58.5 -4t-42 -2zM459 1667q0 29 18.5 48.5t52.5 21.5l371 -205l4 -14l-10 -41l-16 -7l-412 158q-8 18 -8 39zM467 659h391l-194 527z" />
<glyph unicode="&#xc1;" horiz-adv-x="1382" d="M-39 -4l4 37l10 8q27 0 51.5 2t49 15.5t48 41t48.5 78.5q6 10 11 23.5t16.5 40t29 70.5t45 115t67.5 173t97 248q27 72 55.5 142.5t53 132t44 108.5t27.5 69l121 62h23l336 -930q20 -61 35.5 -102t26.5 -70t19.5 -48t14.5 -34q23 -51 46.5 -78.5t48 -41t50 -15.5t52.5 -2 l10 -8l6 -37l-4 -8q-14 0 -43 2t-59.5 4t-58.5 4t-42 2h-67q-14 0 -47 -2t-69 -4t-69 -4t-47 -2l-4 8l6 37l8 8q59 0 92 13.5t33 72.5q0 47 -31.5 132t-78.5 214l-35 98h-459l-35 -98q-47 -129 -78.5 -214t-31.5 -132q0 -59 32.5 -72.5t92.5 -13.5l10 -8l6 -37l-4 -8 q-14 0 -45 2t-64.5 4t-64.5 4t-45 2h-39q-14 0 -43 -2t-59.5 -4t-58.5 -4t-42 -2zM459 1518l6 14l369 205q35 -2 53 -21.5t18 -48.5q0 -10 -1 -19.5t-5 -19.5l-414 -158l-14 7zM467 659h391l-194 527z" />
<glyph unicode="&#xc2;" horiz-adv-x="1382" d="M-39 -4l4 37l10 8q27 0 51.5 2t49 15.5t48 41t48.5 78.5q6 10 11 23.5t16.5 40t29 70.5t45 115t67.5 173t97 248q27 72 55.5 142.5t53 132t44 108.5t27.5 69l121 62h23l336 -930q20 -61 35.5 -102t26.5 -70t19.5 -48t14.5 -34q23 -51 46.5 -78.5t48 -41t50 -15.5t52.5 -2 l10 -8l6 -37l-4 -8q-14 0 -43 2t-59.5 4t-58.5 4t-42 2h-67q-14 0 -47 -2t-69 -4t-69 -4t-47 -2l-4 8l6 37l8 8q59 0 92 13.5t33 72.5q0 47 -31.5 132t-78.5 214l-35 98h-459l-35 -98q-47 -129 -78.5 -214t-31.5 -132q0 -59 32.5 -72.5t92.5 -13.5l10 -8l6 -37l-4 -8 q-14 0 -45 2t-64.5 4t-64.5 4t-45 2h-39q-14 0 -43 -2t-59.5 -4t-58.5 -4t-42 -2zM449 1507l6 15l225 202h16l226 -202l6 -15l-13 -41l-14 -6l-213 127l-213 -127l-14 6zM467 659h391l-194 527z" />
<glyph unicode="&#xc3;" horiz-adv-x="1382" d="M-39 -4l4 37l10 8q27 0 51.5 2t49 15.5t48 41t48.5 78.5q6 10 11 23.5t16.5 40t29 70.5t45 115t67.5 173t97 248q27 72 55.5 142.5t53 132t44 108.5t27.5 69l121 62h23l336 -930q20 -61 35.5 -102t26.5 -70t19.5 -48t14.5 -34q23 -51 46.5 -78.5t48 -41t50 -15.5t52.5 -2 l10 -8l6 -37l-4 -8q-14 0 -43 2t-59.5 4t-58.5 4t-42 2h-67q-14 0 -47 -2t-69 -4t-69 -4t-47 -2l-4 8l6 37l8 8q59 0 92 13.5t33 72.5q0 47 -31.5 132t-78.5 214l-35 98h-459l-35 -98q-47 -129 -78.5 -214t-31.5 -132q0 -59 32.5 -72.5t92.5 -13.5l10 -8l6 -37l-4 -8 q-14 0 -45 2t-64.5 4t-64.5 4t-45 2h-39q-14 0 -43 -2t-59.5 -4t-58.5 -4t-42 -2zM365 1540q8 27 22 55.5t35.5 50t53.5 36t75 14.5q51 0 89 -4t70.5 -10.5t63.5 -10.5t70 -4q35 0 69.5 8t63.5 45l24 -16q-6 -29 -19 -56.5t-34.5 -50t-52.5 -37t-74 -14.5q-82 0 -167 14.5 t-150 14.5q-51 0 -71.5 -13.5t-41.5 -37.5zM467 659h391l-194 527z" />
<glyph unicode="&#xc4;" horiz-adv-x="1382" d="M-39 -4l4 37l10 8q27 0 51.5 2t49 15.5t48 41t48.5 78.5q6 10 11 23.5t16.5 40t29 70.5t45 115t67.5 173t97 248q27 72 55.5 142.5t53 132t44 108.5t27.5 69l121 62h23l336 -930q20 -61 35.5 -102t26.5 -70t19.5 -48t14.5 -34q23 -51 46.5 -78.5t48 -41t50 -15.5t52.5 -2 l10 -8l6 -37l-4 -8q-14 0 -43 2t-59.5 4t-58.5 4t-42 2h-67q-14 0 -47 -2t-69 -4t-69 -4t-47 -2l-4 8l6 37l8 8q59 0 92 13.5t33 72.5q0 47 -31.5 132t-78.5 214l-35 98h-459l-35 -98q-47 -129 -78.5 -214t-31.5 -132q0 -59 32.5 -72.5t92.5 -13.5l10 -8l6 -37l-4 -8 q-14 0 -45 2t-64.5 4t-64.5 4t-45 2h-39q-14 0 -43 -2t-59.5 -4t-58.5 -4t-42 -2zM438 1626q0 37 24.5 64.5t59.5 27.5t60.5 -27.5t25.5 -64.5q0 -39 -25.5 -64.5t-60.5 -25.5t-59.5 25.5t-24.5 64.5zM467 659h391l-194 527zM760 1626q0 37 24.5 64.5t59.5 27.5 q33 0 58.5 -27.5t25.5 -64.5q0 -39 -25.5 -64.5t-58.5 -25.5q-35 0 -59.5 25.5t-24.5 64.5z" />
<glyph unicode="&#xc5;" horiz-adv-x="1384" d="M-39 -4l4 37l10 8q27 0 51.5 2t49 15.5t48 41t48.5 78.5q6 10 11 23.5t16.5 40t29 70.5t45 115t67.5 173t97 248q25 66 52.5 135.5t52 131t45 111.5t33.5 79q-53 16 -80 57t-27 82q0 57 45 103t123 46q80 0 125 -48t45 -105q0 -35 -19.5 -68t-56.5 -53l322 -887 q20 -61 35.5 -102t26.5 -70t19.5 -48t14.5 -34q23 -51 46.5 -78.5t48 -41t50 -15.5t52.5 -2l10 -8l6 -37l-4 -8q-14 0 -43 2t-59.5 4t-58.5 4t-42 2h-67q-14 0 -47 -2t-69 -4t-69 -4t-47 -2l-4 8l6 37l8 8q59 0 92 13.5t33 72.5q0 47 -31.5 132t-78.5 214l-35 98h-459 l-35 -98q-47 -129 -78.5 -214t-31.5 -132q0 -59 32.5 -72.5t92.5 -13.5l10 -8l6 -37l-4 -8q-14 0 -45 2t-64.5 4t-64.5 4t-45 2h-39q-14 0 -43 -2t-59.5 -4t-58.5 -4t-42 -2zM467 659h391l-194 527zM590 1446q0 -39 26.5 -71t67.5 -32t65.5 31t24.5 66q0 37 -25.5 69.5 t-68.5 32.5t-66.5 -30.5t-23.5 -65.5z" />
<glyph unicode="&#xc6;" horiz-adv-x="1777" d="M-61 -4l4 37l10 8q37 4 85 11t77 28q20 14 41.5 39.5t44.5 58.5q6 10 35.5 56.5t72.5 118t97.5 160.5t111.5 184.5t113.5 190.5t103.5 177q31 53 55.5 95t24.5 73q0 29 -14.5 43t-73.5 22l-8 9l-6 36l4 9q14 -2 53 -4t85 -4.5t88 -3.5t65 -1h278q27 0 81 1t109.5 3.5 t100.5 3.5t55 1l8 -21l-8 -223h-51l-8 8q-4 47 -11.5 73.5t-41 39t-101 14.5t-190.5 2h-137q-10 -121 -11.5 -241.5t-1.5 -249.5q125 4 205 5t105 29q14 16 27.5 43t13.5 58l8 8l37 4l6 -4q-4 -45 -6 -90t-2 -90q0 -49 2 -91t6 -92l-6 -4l-39 4l-6 7q0 33 -12.5 60.5 t-28.5 45.5q-25 27 -102 27t-208 2v-234.5t1 -141.5t3 -87t7 -72q2 -39 43 -39h114q123 0 193.5 5.5t108.5 21.5t53.5 50t29.5 89l6 8h54l-37 -260l-17 -20q-10 0 -47 1t-83 3t-92 3t-73 1h-354q-14 0 -47 -2t-67.5 -4t-67.5 -4t-47 -2l-4 8l6 37l8 8q33 0 62.5 3t48.5 17 q16 14 30.5 37t18.5 80q2 14 3 38t2 74t1 140v242h-326q-98 -166 -158.5 -268.5t-92 -164t-42 -91t-10.5 -48.5q0 -41 34 -50t83 -9l10 -8l6 -37l-6 -8q-14 0 -50 2t-76 4t-75.5 4t-50.5 2h-39q-14 0 -42.5 -2t-59.5 -4t-59.5 -4t-42.5 -2v8zM659 750h277v181v132t-1 91 t-1 60z" />
<glyph unicode="&#xc7;" horiz-adv-x="1333" d="M113 664q0 143 44 271t131 222t215 149.5t298 55.5q37 0 87 -3t105.5 -11.5t112.5 -21.5t111 -34l6 -18l-27 -187h-59l-7 9q-6 45 -38.5 75.5t-80.5 49t-106.5 25.5t-116.5 7q-203 0 -319 -92q-96 -78 -144.5 -207t-48.5 -282q0 -145 42 -255t116 -183.5t175.5 -111.5 t219.5 -38q84 0 194 23.5t208 91.5l20 -23l-45 -92q-98 -53 -197.5 -78.5t-201.5 -28.5l-47 -81q16 6 28.5 7t28.5 1q72 0 117 -42t45 -106q0 -35 -17.5 -65.5t-47 -54t-70.5 -38t-90 -14.5t-97.5 11.5t-89.5 27.5l-2 12l27 48h14q25 -10 64 -17.5t78 -7.5q45 0 77.5 17.5 t32.5 64.5q0 55 -31.5 74.5t-74.5 19.5q-25 0 -50.5 -4t-48.5 -10l-18 22l90 138q-139 10 -253 64t-193.5 143t-122.5 210t-43 267z" />
<glyph unicode="&#xc8;" horiz-adv-x="1169" d="M88 -4l6 37l10 8q33 0 62 3t47 17q16 14 31.5 37t19.5 80q0 14 1 33.5t2 48.5t1 70v102v416v121v83.5t-1 59.5t-3 49q-4 55 -19.5 79t-31.5 38q-18 14 -47 17t-62 3l-10 9l-6 36l4 9q14 0 47 -2t71 -4.5t73.5 -4.5t58.5 -2h336q27 0 81 1t109.5 3.5t99.5 3.5t54 1l10 -21 l-8 -223h-51l-8 8q-4 47 -11.5 73.5t-41 39t-101.5 14.5t-190 2h-197l-4 -80q-2 -29 -3 -53.5t-2 -57t-1 -79.5v-221q61 2 122.5 2t111.5 2t85 9t47 21q16 16 28.5 33t12.5 47l10 10l35 5l8 -5q-4 -47 -7 -81.5t-3 -79.5q0 -49 3 -91t7 -92l-8 -4l-37 4l-8 7q0 33 -12 60.5 t-29 45.5q-12 12 -47 18.5t-84 8.5t-110.5 2h-124.5v-199v-120t1 -81.5t3 -65.5t6 -69q0 -39 41 -39h174q123 0 193.5 5.5t107.5 21.5t52.5 50t29.5 89l8 8h53l-36 -260l-17 -20q-10 0 -47 1t-83 3t-92 3t-73 1h-413q-14 0 -47 -2t-68 -4t-68 -4t-47 -2zM360 1667 q0 29 18.5 48.5t53.5 21.5l371 -205l6 -14l-12 -41l-17 -7l-411 158q-8 18 -9 39z" />
<glyph unicode="&#xc9;" horiz-adv-x="1169" d="M88 -4l6 37l10 8q33 0 62 3t47 17q16 14 31.5 37t19.5 80q0 14 1 33.5t2 48.5t1 70v102v416v121v83.5t-1 59.5t-3 49q-4 55 -19.5 79t-31.5 38q-18 14 -47 17t-62 3l-10 9l-6 36l4 9q14 0 47 -2t71 -4.5t73.5 -4.5t58.5 -2h336q27 0 81 1t109.5 3.5t99.5 3.5t54 1l10 -21 l-8 -223h-51l-8 8q-4 47 -11.5 73.5t-41 39t-101.5 14.5t-190 2h-197l-4 -80q-2 -29 -3 -53.5t-2 -57t-1 -79.5v-221q61 2 122.5 2t111.5 2t85 9t47 21q16 16 28.5 33t12.5 47l10 10l35 5l8 -5q-4 -47 -7 -81.5t-3 -79.5q0 -49 3 -91t7 -92l-8 -4l-37 4l-8 7q0 33 -12 60.5 t-29 45.5q-12 12 -47 18.5t-84 8.5t-110.5 2h-124.5v-199v-120t1 -81.5t3 -65.5t6 -69q0 -39 41 -39h174q123 0 193.5 5.5t107.5 21.5t52.5 50t29.5 89l8 8h53l-36 -260l-17 -20q-10 0 -47 1t-83 3t-92 3t-73 1h-413q-14 0 -47 -2t-68 -4t-68 -4t-47 -2zM360 1518l7 14 l370 205q35 -2 53.5 -21.5t18.5 -48.5q0 -20 -8 -39l-414 -158l-14 7z" />
<glyph unicode="&#xca;" horiz-adv-x="1169" d="M88 -4l6 37l10 8q33 0 62 3t47 17q16 14 31.5 37t19.5 80q0 14 1 33.5t2 48.5t1 70v102v416v121v83.5t-1 59.5t-3 49q-4 55 -19.5 79t-31.5 38q-18 14 -47 17t-62 3l-10 9l-6 36l4 9q14 0 47 -2t71 -4.5t73.5 -4.5t58.5 -2h336q27 0 81 1t109.5 3.5t99.5 3.5t54 1l10 -21 l-8 -223h-51l-8 8q-4 47 -11.5 73.5t-41 39t-101.5 14.5t-190 2h-197l-4 -80q-2 -29 -3 -53.5t-2 -57t-1 -79.5v-221q61 2 122.5 2t111.5 2t85 9t47 21q16 16 28.5 33t12.5 47l10 10l35 5l8 -5q-4 -47 -7 -81.5t-3 -79.5q0 -49 3 -91t7 -92l-8 -4l-37 4l-8 7q0 33 -12 60.5 t-29 45.5q-12 12 -47 18.5t-84 8.5t-110.5 2h-124.5v-199v-120t1 -81.5t3 -65.5t6 -69q0 -39 41 -39h174q123 0 193.5 5.5t107.5 21.5t52.5 50t29.5 89l8 8h53l-36 -260l-17 -20q-10 0 -47 1t-83 3t-92 3t-73 1h-413q-14 0 -47 -2t-68 -4t-68 -4t-47 -2zM365 1507l6 15 l225 202h16l226 -202l6 -15l-13 -41l-14 -6l-213 127l-213 -127l-14 6z" />
<glyph unicode="&#xcb;" horiz-adv-x="1169" d="M88 -4l6 37l10 8q33 0 62 3t47 17q16 14 31.5 37t19.5 80q0 14 1 33.5t2 48.5t1 70v102v416v121v83.5t-1 59.5t-3 49q-4 55 -19.5 79t-31.5 38q-18 14 -47 17t-62 3l-10 9l-6 36l4 9q14 0 47 -2t71 -4.5t73.5 -4.5t58.5 -2h336q27 0 81 1t109.5 3.5t99.5 3.5t54 1l10 -21 l-8 -223h-51l-8 8q-4 47 -11.5 73.5t-41 39t-101.5 14.5t-190 2h-197l-4 -80q-2 -29 -3 -53.5t-2 -57t-1 -79.5v-221q61 2 122.5 2t111.5 2t85 9t47 21q16 16 28.5 33t12.5 47l10 10l35 5l8 -5q-4 -47 -7 -81.5t-3 -79.5q0 -49 3 -91t7 -92l-8 -4l-37 4l-8 7q0 33 -12 60.5 t-29 45.5q-12 12 -47 18.5t-84 8.5t-110.5 2h-124.5v-199v-120t1 -81.5t3 -65.5t6 -69q0 -39 41 -39h174q123 0 193.5 5.5t107.5 21.5t52.5 50t29.5 89l8 8h53l-36 -260l-17 -20q-10 0 -47 1t-83 3t-92 3t-73 1h-413q-14 0 -47 -2t-68 -4t-68 -4t-47 -2zM340 1626 q0 37 24.5 64.5t59.5 27.5t60.5 -27.5t25.5 -64.5q0 -39 -25.5 -64.5t-60.5 -25.5t-59.5 25.5t-24.5 64.5zM662 1626q0 37 24.5 64.5t58.5 27.5q35 0 60.5 -27.5t25.5 -64.5q0 -39 -25.5 -64.5t-60.5 -25.5t-59 25.5t-24 64.5z" />
<glyph unicode="&#xcc;" horiz-adv-x="681" d="M88 -4l6 37l10 8q33 0 62 3t47 17q16 14 31.5 37t19.5 80q0 14 1 33.5t2 48.5t1 70v102v416v121t-1 83.5t-2 59.5t-3 49q-4 53 -18.5 78t-30.5 39q-18 14 -47 17t-62 3l-10 9l-6 36l4 9q14 0 47 -2t68 -4.5t67.5 -4.5t47.5 -2h38q14 0 47 2t68 4.5t67.5 4.5t47.5 2l4 -9 l-6 -36l-8 -9q-33 0 -63 -3t-48 -17q-16 -14 -30.5 -36.5t-18.5 -80.5q-2 -29 -3 -53.5t-2 -57t-1 -79.5v-121v-377v-120t1 -76.5t2 -52t3 -46.5q4 -57 18.5 -79.5t30.5 -37.5q18 -14 48 -17t63 -3l8 -8l6 -37l-4 -8q-14 0 -47 2t-68 4t-67.5 4t-47.5 2h-38q-14 0 -47 -2 t-68 -4t-68 -4t-47 -2zM117 1667q0 29 18.5 48.5t52.5 21.5l371 -205l6 -14l-12 -41l-14 -7l-414 158q-8 18 -8 39z" />
<glyph unicode="&#xcd;" horiz-adv-x="681" d="M88 -4l6 37l10 8q33 0 62 3t47 17q16 14 31.5 37t19.5 80q0 14 1 33.5t2 48.5t1 70v102v416v121t-1 83.5t-2 59.5t-3 49q-4 53 -18.5 78t-30.5 39q-18 14 -47 17t-62 3l-10 9l-6 36l4 9q14 0 47 -2t68 -4.5t67.5 -4.5t47.5 -2h38q14 0 47 2t68 4.5t67.5 4.5t47.5 2l4 -9 l-6 -36l-8 -9q-33 0 -63 -3t-48 -17q-16 -14 -30.5 -36.5t-18.5 -80.5q-2 -29 -3 -53.5t-2 -57t-1 -79.5v-121v-377v-120t1 -76.5t2 -52t3 -46.5q4 -57 18.5 -79.5t30.5 -37.5q18 -14 48 -17t63 -3l8 -8l6 -37l-4 -8q-14 0 -47 2t-68 4t-67.5 4t-47.5 2h-38q-14 0 -47 -2 t-68 -4t-68 -4t-47 -2zM117 1518l6 14l371 205q35 -2 53 -21.5t18 -48.5q0 -20 -8 -39l-412 -158l-16 7z" />
<glyph unicode="&#xce;" horiz-adv-x="681" d="M88 -4l6 37l10 8q33 0 62 3t47 17q16 14 31.5 37t19.5 80q0 14 1 33.5t2 48.5t1 70v102v416v121t-1 83.5t-2 59.5t-3 49q-4 53 -18.5 78t-30.5 39q-18 14 -47 17t-62 3l-10 9l-6 36l4 9q14 0 47 -2t68 -4.5t67.5 -4.5t47.5 -2h38q14 0 47 2t68 4.5t67.5 4.5t47.5 2l4 -9 l-6 -36l-8 -9q-33 0 -63 -3t-48 -17q-16 -14 -30.5 -36.5t-18.5 -80.5q-2 -29 -3 -53.5t-2 -57t-1 -79.5v-121v-377v-120t1 -76.5t2 -52t3 -46.5q4 -57 18.5 -79.5t30.5 -37.5q18 -14 48 -17t63 -3l8 -8l6 -37l-4 -8q-14 0 -47 2t-68 4t-67.5 4t-47.5 2h-38q-14 0 -47 -2 t-68 -4t-68 -4t-47 -2zM102 1507l7 15l225 202h14l227 -202l7 -15l-13 -41l-16 -6l-211 127l-213 -127l-16 6z" />
<glyph unicode="&#xcf;" horiz-adv-x="681" d="M88 -4l6 37l10 8q33 0 62 3t47 17q16 14 31.5 37t19.5 80q0 14 1 33.5t2 48.5t1 70v102v416v121t-1 83.5t-2 59.5t-3 49q-4 53 -18.5 78t-30.5 39q-18 14 -47 17t-62 3l-10 9l-6 36l4 9q14 0 47 -2t68 -4.5t67.5 -4.5t47.5 -2h38q14 0 47 2t68 4.5t67.5 4.5t47.5 2l4 -9 l-6 -36l-8 -9q-33 0 -63 -3t-48 -17q-16 -14 -30.5 -36.5t-18.5 -80.5q-2 -29 -3 -53.5t-2 -57t-1 -79.5v-121v-377v-120t1 -76.5t2 -52t3 -46.5q4 -57 18.5 -79.5t30.5 -37.5q18 -14 48 -17t63 -3l8 -8l6 -37l-4 -8q-14 0 -47 2t-68 4t-67.5 4t-47.5 2h-38q-14 0 -47 -2 t-68 -4t-68 -4t-47 -2zM104 1626q0 37 25 64.5t59 27.5q35 0 60.5 -27.5t25.5 -64.5q0 -39 -25.5 -64.5t-60.5 -25.5t-59.5 25.5t-24.5 64.5zM426 1626q0 37 24.5 64.5t59.5 27.5t60.5 -27.5t25.5 -64.5q0 -39 -25.5 -64.5t-60.5 -25.5t-59.5 25.5t-24.5 64.5z" />
<glyph unicode="&#xd0;" horiz-adv-x="1505" d="M90 -4l6 37l10 8q25 0 58 3t51 15q16 12 30.5 39t20.5 80q0 14 1 33.5t2 48.5t1 70v102v236h-180l16 90h164v90v62v89.5t-1 92.5t-3 69q-4 51 -18.5 77t-32.5 40q-18 10 -37.5 15t-71.5 5l-10 9l-6 36l4 9q14 0 41 -2t57.5 -4.5t60.5 -4.5t52 -2h117q27 0 66.5 1 t81.5 3.5t82 3.5t65 1q160 0 285.5 -54.5t211.5 -146.5t132.5 -215t46.5 -260q0 -135 -44 -257t-130 -215.5t-215.5 -148.5t-298.5 -55q-18 0 -55.5 1t-78.5 1t-78.5 1t-60.5 1h-108q-14 0 -47 -2t-68 -4t-67.5 -4t-47.5 -2zM416 473q0 -123 1 -191.5t5 -103.5 q6 -53 26.5 -66.5t73.5 -13.5h197q123 0 217 45t158.5 122t98.5 181.5t34 225.5q0 123 -35 227.5t-101.5 180t-163 118.5t-218.5 43h-283q-4 -59 -5 -99t-3 -81t-2 -89v-122v-92h364l-16 -90h-348v-195z" />
<glyph unicode="&#xd1;" horiz-adv-x="1527" d="M88 -4l6 37l10 8q37 0 63 3t46 17q14 10 29.5 34t21.5 83q2 14 3 33.5t1 48.5v70v102v416v121v83.5t-1 59.5t-3 49q-4 43 -18.5 73t-32.5 44t-46 17t-63 3l-10 9l-6 36l4 9q14 0 42 -2t56.5 -4.5t56 -4.5t42.5 -2h71q16 0 46 2t49 7l10 -7q8 -29 33.5 -79t61.5 -111 t78 -131t85 -137q156 -250 271.5 -408t148.5 -205q0 14 1 26.5t1 29v41v65.5v416v121t-1 83.5t-2 59.5t-3 49q-4 57 -18.5 80t-30.5 37q-18 14 -48 17t-63 3l-8 9l-6 36l4 9q14 0 40.5 -2t54.5 -4.5t54.5 -4.5t40.5 -2h96q14 0 41 1t55.5 3.5t55.5 4.5t41 4l2 -9l-4 -36 l-10 -9q-33 0 -63 -3t-46 -17t-29.5 -36.5t-17.5 -80.5q-2 -29 -3 -53.5t-2 -57t-1 -79.5v-121v-361q0 -115 1 -188.5t2 -125.5t4 -93t7 -90l-16 -10l-127 8l-21 24l-729 1092q0 -20 -1 -41t-1 -50.5v-68.5v-96v-377v-64.5t1 -82.5t2 -83t3 -65q4 -51 17.5 -76.5t34.5 -40.5 q16 -12 42.5 -16t67.5 -4l10 -8l7 -37l-5 -8q-14 0 -43.5 2t-62.5 4t-62.5 4t-44.5 2h-38q-14 0 -47 -2t-68 -4t-68 -4t-47 -2zM432 1540q8 27 22.5 55.5t36 50t53 36t74.5 14.5q51 0 89 -4t71 -10.5t63.5 -10.5t69.5 -4q35 0 70 8t63 45l25 -16q-6 -29 -19.5 -56.5t-35 -50 t-52 -37t-73.5 -14.5q-82 0 -167 14.5t-151 14.5q-51 0 -71.5 -13.5t-40.5 -37.5z" />
<glyph unicode="&#xd2;" d="M113 659q0 145 45 273.5t131 223.5t210.5 150.5t282.5 55.5q160 0 285 -55.5t210 -150.5t130 -220t45 -262q0 -135 -44 -261t-130 -222.5t-214 -155t-296 -58.5q-164 0 -286 55.5t-204.5 148.5t-123.5 217t-41 261zM272 674q0 -137 37 -246t104.5 -184.5t160.5 -116.5 t206 -41q123 0 218.5 46t161 126t100 186.5t34.5 227.5q0 123 -35.5 229.5t-103.5 185t-165 122.5t-220 44q-121 0 -214 -44t-156.5 -121.5t-95.5 -183t-32 -230.5zM500 1667q0 29 18.5 48.5t52.5 21.5l369 -205l6 -14l-10 -41l-16 -7l-412 158q-8 18 -8 39z" />
<glyph unicode="&#xd3;" d="M113 659q0 145 45 273.5t131 223.5t210.5 150.5t282.5 55.5q160 0 285 -55.5t210 -150.5t130 -220t45 -262q0 -135 -44 -261t-130 -222.5t-214 -155t-296 -58.5q-164 0 -286 55.5t-204.5 148.5t-123.5 217t-41 261zM272 674q0 -137 37 -246t104.5 -184.5t160.5 -116.5 t206 -41q123 0 218.5 46t161 126t100 186.5t34.5 227.5q0 123 -35.5 229.5t-103.5 185t-165 122.5t-220 44q-121 0 -214 -44t-156.5 -121.5t-95.5 -183t-32 -230.5zM616 1518l7 14l368 205q35 -2 53.5 -21.5t18.5 -48.5q0 -18 -6 -39l-414 -158l-16 7z" />
<glyph unicode="&#xd4;" d="M113 659q0 145 45 273.5t131 223.5t210.5 150.5t282.5 55.5q160 0 285 -55.5t210 -150.5t130 -220t45 -262q0 -135 -44 -261t-130 -222.5t-214 -155t-296 -58.5q-164 0 -286 55.5t-204.5 148.5t-123.5 217t-41 261zM272 674q0 -137 37 -246t104.5 -184.5t160.5 -116.5 t206 -41q123 0 218.5 46t161 126t100 186.5t34.5 227.5q0 123 -35.5 229.5t-103.5 185t-165 122.5t-220 44q-121 0 -214 -44t-156.5 -121.5t-95.5 -183t-32 -230.5zM563 1507l6 15l226 202h16l225 -202l6 -15l-12 -41l-14 -6l-213 127l-213 -127l-15 6z" />
<glyph unicode="&#xd5;" d="M113 659q0 145 45 273.5t131 223.5t210.5 150.5t282.5 55.5q160 0 285 -55.5t210 -150.5t130 -220t45 -262q0 -135 -44 -261t-130 -222.5t-214 -155t-296 -58.5q-164 0 -286 55.5t-204.5 148.5t-123.5 217t-41 261zM272 674q0 -137 37 -246t104.5 -184.5t160.5 -116.5 t206 -41q123 0 218.5 46t161 126t100 186.5t34.5 227.5q0 123 -35.5 229.5t-103.5 185t-165 122.5t-220 44q-121 0 -214 -44t-156.5 -121.5t-95.5 -183t-32 -230.5zM467 1540q8 27 22.5 55.5t36 50t53 36t74.5 14.5q51 0 89 -4t71 -10.5t63.5 -10.5t69.5 -4q35 0 70 8t63 45 l25 -16q-6 -29 -19.5 -56.5t-35 -50t-52 -37t-73.5 -14.5q-82 0 -167 14.5t-151 14.5q-51 0 -71.5 -13.5t-40.5 -37.5z" />
<glyph unicode="&#xd6;" d="M113 659q0 145 45 273.5t131 223.5t210.5 150.5t282.5 55.5q160 0 285 -55.5t210 -150.5t130 -220t45 -262q0 -135 -44 -261t-130 -222.5t-214 -155t-296 -58.5q-164 0 -286 55.5t-204.5 148.5t-123.5 217t-41 261zM272 674q0 -137 37 -246t104.5 -184.5t160.5 -116.5 t206 -41q123 0 218.5 46t161 126t100 186.5t34.5 227.5q0 123 -35.5 229.5t-103.5 185t-165 122.5t-220 44q-121 0 -214 -44t-156.5 -121.5t-95.5 -183t-32 -230.5zM539 1626q0 37 24.5 64.5t59.5 27.5t60.5 -27.5t25.5 -64.5q0 -39 -26 -64.5t-60 -25.5q-35 0 -59.5 25.5 t-24.5 64.5zM860 1626q0 37 24.5 64.5t59.5 27.5t60.5 -27.5t25.5 -64.5q0 -39 -25.5 -64.5t-60.5 -25.5t-59.5 25.5t-24.5 64.5z" />
<glyph unicode="&#xd7;" horiz-adv-x="946" d="M150 242l245 247l-245 246l75 76l246 -246l250 248l76 -76l-250 -248l250 -249l-76 -76l-250 250l-246 -248z" />
<glyph unicode="&#xd8;" d="M84 -39l4 8l186 215q-80 94 -120.5 216t-40.5 259q0 145 46 273.5t132 223.5t209.5 150.5t281.5 55.5q123 0 223.5 -32t180.5 -91l119 137l12 8h135l-4 -8l-180 -211q92 -94 139 -222t47 -269q0 -135 -44 -261t-130 -222.5t-214 -155t-296 -58.5q-131 0 -234.5 34 t-183.5 98l-121 -140l-10 -8h-137zM274 674q0 -227 101 -375l725 840q-66 53 -148 83.5t-180 30.5q-121 0 -214 -44t-156.5 -121.5t-95.5 -183t-32 -230.5zM444 215q133 -129 336 -129q123 0 218.5 46t162 126t100 186.5t33.5 227.5q0 115 -30.5 213t-89.5 174z" />
<glyph unicode="&#xd9;" horiz-adv-x="1480" d="M53 1343l4 9q14 0 47 -2t68 -4.5t67.5 -4.5t47.5 -2h39q14 0 47 2t67.5 4.5t67.5 4.5t47 2l4 -9l-6 -36l-8 -9q-33 0 -62.5 -3t-48.5 -17q-16 -14 -30.5 -36.5t-18.5 -80.5q-2 -29 -3 -53.5t-2 -57t-1 -79.5v-121v-338q0 -221 99.5 -317.5t275.5 -96.5t276 96.5 t100 317.5v338v121t-1 79.5t-2 57.5t-3 53q-4 57 -19 80t-32 37q-16 14 -46 17t-62 3l-11 9l-6 36l4 9q14 0 43 -2t60.5 -4.5t60.5 -4.5t43 -2h45q14 0 45 2t65 4.5t64.5 4.5t44.5 2l4 -9l-6 -36l-8 -9q-33 0 -62.5 -3t-47.5 -17q-16 -14 -31 -36.5t-19 -80.5 q-2 -25 -3 -49.5t-2 -59t-1 -83.5v-121v-393q0 -100 -29.5 -187.5t-91 -152t-154.5 -101.5t-218 -37q-143 0 -242.5 37t-161 101.5t-89.5 151.5t-28 188v393v121v83.5t-1 59.5t-3 49q-4 55 -19 79t-32 38q-18 14 -47 17t-61 3l-11 9zM498 1667q0 29 18.5 48.5t52.5 21.5 l371 -205l4 -14l-10 -41l-16 -7l-412 158q-8 18 -8 39z" />
<glyph unicode="&#xda;" horiz-adv-x="1480" d="M53 1343l4 9q14 0 47 -2t68 -4.5t67.5 -4.5t47.5 -2h39q14 0 47 2t67.5 4.5t67.5 4.5t47 2l4 -9l-6 -36l-8 -9q-33 0 -62.5 -3t-48.5 -17q-16 -14 -30.5 -36.5t-18.5 -80.5q-2 -29 -3 -53.5t-2 -57t-1 -79.5v-121v-338q0 -221 99.5 -317.5t275.5 -96.5t276 96.5 t100 317.5v338v121t-1 79.5t-2 57.5t-3 53q-4 57 -19 80t-32 37q-16 14 -46 17t-62 3l-11 9l-6 36l4 9q14 0 43 -2t60.5 -4.5t60.5 -4.5t43 -2h45q14 0 45 2t65 4.5t64.5 4.5t44.5 2l4 -9l-6 -36l-8 -9q-33 0 -62.5 -3t-47.5 -17q-16 -14 -31 -36.5t-19 -80.5 q-2 -25 -3 -49.5t-2 -59t-1 -83.5v-121v-393q0 -100 -29.5 -187.5t-91 -152t-154.5 -101.5t-218 -37q-143 0 -242.5 37t-161 101.5t-89.5 151.5t-28 188v393v121v83.5t-1 59.5t-3 49q-4 55 -19 79t-32 38q-18 14 -47 17t-61 3l-11 9zM555 1518l6 14l371 205 q35 -2 53.5 -21.5t18.5 -48.5q0 -20 -9 -39l-411 -158l-17 7z" />
<glyph unicode="&#xdb;" horiz-adv-x="1480" d="M53 1343l4 9q14 0 47 -2t68 -4.5t67.5 -4.5t47.5 -2h39q14 0 47 2t67.5 4.5t67.5 4.5t47 2l4 -9l-6 -36l-8 -9q-33 0 -62.5 -3t-48.5 -17q-16 -14 -30.5 -36.5t-18.5 -80.5q-2 -29 -3 -53.5t-2 -57t-1 -79.5v-121v-338q0 -221 99.5 -317.5t275.5 -96.5t276 96.5 t100 317.5v338v121t-1 79.5t-2 57.5t-3 53q-4 57 -19 80t-32 37q-16 14 -46 17t-62 3l-11 9l-6 36l4 9q14 0 43 -2t60.5 -4.5t60.5 -4.5t43 -2h45q14 0 45 2t65 4.5t64.5 4.5t44.5 2l4 -9l-6 -36l-8 -9q-33 0 -62.5 -3t-47.5 -17q-16 -14 -31 -36.5t-19 -80.5 q-2 -25 -3 -49.5t-2 -59t-1 -83.5v-121v-393q0 -100 -29.5 -187.5t-91 -152t-154.5 -101.5t-218 -37q-143 0 -242.5 37t-161 101.5t-89.5 151.5t-28 188v393v121v83.5t-1 59.5t-3 49q-4 55 -19 79t-32 38q-18 14 -47 17t-61 3l-11 9zM504 1507l4 15l227 202h15l227 -202 l4 -15l-10 -41l-17 -6l-211 127l-213 -127l-16 6z" />
<glyph unicode="&#xdc;" horiz-adv-x="1480" d="M53 1343l4 9q14 0 47 -2t68 -4.5t67.5 -4.5t47.5 -2h39q14 0 47 2t67.5 4.5t67.5 4.5t47 2l4 -9l-6 -36l-8 -9q-33 0 -62.5 -3t-48.5 -17q-16 -14 -30.5 -36.5t-18.5 -80.5q-2 -29 -3 -53.5t-2 -57t-1 -79.5v-121v-338q0 -221 99.5 -317.5t275.5 -96.5t276 96.5 t100 317.5v338v121t-1 79.5t-2 57.5t-3 53q-4 57 -19 80t-32 37q-16 14 -46 17t-62 3l-11 9l-6 36l4 9q14 0 43 -2t60.5 -4.5t60.5 -4.5t43 -2h45q14 0 45 2t65 4.5t64.5 4.5t44.5 2l4 -9l-6 -36l-8 -9q-33 0 -62.5 -3t-47.5 -17q-16 -14 -31 -36.5t-19 -80.5 q-2 -25 -3 -49.5t-2 -59t-1 -83.5v-121v-393q0 -100 -29.5 -187.5t-91 -152t-154.5 -101.5t-218 -37q-143 0 -242.5 37t-161 101.5t-89.5 151.5t-28 188v393v121v83.5t-1 59.5t-3 49q-4 55 -19 79t-32 38q-18 14 -47 17t-61 3l-11 9zM528 1626q0 37 25 64.5t59 27.5 q35 0 60.5 -27.5t25.5 -64.5q0 -39 -25.5 -64.5t-60.5 -25.5t-59.5 25.5t-24.5 64.5zM850 1626q0 37 24.5 64.5t59.5 27.5t60.5 -27.5t25.5 -64.5q0 -39 -25.5 -64.5t-60.5 -25.5t-59.5 25.5t-24.5 64.5z" />
<glyph unicode="&#xdd;" horiz-adv-x="1253" d="M-16 1307v36l10 9q49 -6 92 -11.5t90 -5.5h86q47 0 109.5 5.5t120.5 11.5l8 -9v-36l-8 -9q-41 -2 -72 -7t-49 -17q-25 -18 -25 -35q0 -10 7 -24.5t14 -24.5q74 -135 139 -256t143 -254q35 59 75 132t77 141.5t64.5 124t37.5 77.5q4 10 12.5 32.5t8.5 39.5q0 25 -14.5 37 t-36 18t-47 8t-48.5 8l-8 9v36l8 9q59 -10 99.5 -11.5t89.5 -1.5h118q49 0 90.5 2t98.5 11l8 -9v-36l-8 -9q-47 -6 -80 -16t-60.5 -27.5t-52 -46t-55.5 -73.5q-59 -90 -103 -160t-79 -128.5t-62.5 -107.5t-54.5 -96q-8 -12 -18.5 -42t-10.5 -60v-72v-119t1 -75.5t2 -51 t4 -45.5q4 -57 19 -79.5t32 -37.5q16 -14 45.5 -17t62.5 -3l10 -8l7 -37l-4 -8q-14 0 -47 2t-68 4t-67.5 4t-47.5 2h-39q-14 0 -47 -2t-68.5 -4t-68.5 -4t-47 -2l-2 8l4 37l10 8q33 0 62.5 3t46.5 17q16 14 31.5 37t19.5 80q2 14 3 33.5t2 48.5t1 70v102v80q0 57 -16.5 93 t-32.5 65q-31 55 -69 118.5t-79 131t-84 134t-81 128.5q-14 23 -33 44t-33 34q-23 18 -54.5 26t-72.5 12zM485 1518l7 14l368 205q35 -2 53.5 -21.5t18.5 -48.5q0 -18 -6 -39l-414 -158l-16 7z" />
<glyph unicode="&#xde;" horiz-adv-x="1099" d="M88 -4l6 37l10 8q33 0 62 3t47 17q16 14 31.5 37t19.5 80q0 14 1 33.5t2 48.5t1 70v102v416v121v83.5t-1 59.5t-3 49q-4 53 -19.5 78t-31.5 39q-18 14 -47 17t-62 3l-10 9l-6 36l4 9q14 0 47 -2t68 -4.5t67.5 -4.5t47.5 -2h38q14 0 47 2t68 4.5t67.5 4.5t47.5 2l4 -9 l-6 -36l-8 -9q-33 0 -63 -3t-48 -17q-31 -27 -43 -58.5t-12 -74.5v-72h106q137 0 232.5 -26.5t155 -75.5t87 -117t27.5 -149q0 -119 -49 -196t-126 -121t-172 -60.5t-186 -16.5h-75q0 -47 1 -75.5t5 -57.5q4 -57 18.5 -79.5t30.5 -37.5q18 -14 48 -17t63 -3l8 -8l6 -37 l-4 -8q-14 0 -47 2t-68 4t-67.5 4t-47.5 2h-38q-14 0 -47 -2t-68 -4t-68 -4t-47 -2zM414 401h147q172 0 246 78t74 215q0 281 -318 281h-149v-574z" />
<glyph unicode="&#xdf;" horiz-adv-x="1183" d="M70 0l2 29l8 8q35 0 62.5 3t45.5 19q12 12 20.5 32t11.5 64t4 120.5t1 203.5v367h-147l-8 10v37l8 8l147 31v59q0 117 22.5 212t67.5 163t114 104.5t163 36.5q76 0 136 -22.5t101 -60.5t63.5 -86t22.5 -99q0 -70 -33.5 -123t-74.5 -98t-75 -88t-34 -92q0 -47 30 -81 t74 -66t96 -65.5t96 -78.5t74 -107.5t30 -150.5q0 -90 -31 -149.5t-76 -95.5t-98 -51.5t-98 -15.5q-66 0 -127.5 24t-98.5 50l-4 19l25 211h35l6 -9q0 -92 40 -151.5t120 -59.5q74 0 122 53.5t48 145.5q0 72 -28 119t-71 81t-91 60.5t-91 58t-70.5 75.5t-27.5 112 q0 74 32.5 134.5t71.5 113.5t72 103t33 106q0 35 -14.5 67.5t-42 59t-65.5 42t-87 15.5q-76 0 -120 -37t-67.5 -96.5t-30 -133t-6.5 -147.5v-465v-95t1 -107.5t2 -98.5t4 -67q2 -43 15 -67.5t33.5 -37t44 -15.5t48.5 -3l10 -10l4 -27l-4 -8q-14 0 -39.5 2t-53.5 3t-52.5 2 t-38.5 1h-56q-14 0 -42.5 -1t-59.5 -2t-59.5 -3t-42.5 -2z" />
<glyph unicode="&#xe0;" horiz-adv-x="1015" d="M76 248q0 76 34.5 132t92.5 93q53 33 125.5 53.5t141.5 29.5t124 12t74 3h28q-2 76 -8 120t-16 73q-23 61 -78 89t-133 28q-33 0 -71 -6.5t-71.5 -22.5t-58 -46t-29.5 -77l-8 -6h-45l-18 151l6 13q10 12 43 26.5t77 27.5t98 22.5t108 9.5q74 0 137 -19.5t109 -58.5 t73 -97.5t27 -135.5q0 -86 -1 -153t-3.5 -123t-3.5 -110.5t-1 -115.5q4 -47 10.5 -68.5t20.5 -32.5q16 -16 48 -19t65 -3l8 -8l2 -29l-2 -8q-37 4 -80 6t-84 2q-78 0 -141 -6l-12 20q6 23 9 68t9 84l-2 6q-27 -37 -63.5 -71.5t-80.5 -62.5t-94.5 -44.5t-105.5 -16.5 q-63 0 -112.5 23t-82 59.5t-49 86t-16.5 102.5zM221 260q0 -78 45 -124t117 -46q43 0 86 14.5t81 37t68 47t46 47.5q6 10 13 24t9 35l10 205h-18q-82 0 -164 -9.5t-146.5 -36t-105.5 -73.5t-41 -121zM227 1321q0 29 18.5 49.5t53.5 22.5l369 -207l6 -15l-10 -41l-17 -6 l-414 158q-6 20 -6 39z" />
<glyph unicode="&#xe1;" horiz-adv-x="1015" d="M76 248q0 76 34.5 132t92.5 93q53 33 125.5 53.5t141.5 29.5t124 12t74 3h28q-2 76 -8 120t-16 73q-23 61 -78 89t-133 28q-33 0 -71 -6.5t-71.5 -22.5t-58 -46t-29.5 -77l-8 -6h-45l-18 151l6 13q10 12 43 26.5t77 27.5t98 22.5t108 9.5q74 0 137 -19.5t109 -58.5 t73 -97.5t27 -135.5q0 -86 -1 -153t-3.5 -123t-3.5 -110.5t-1 -115.5q4 -47 10.5 -68.5t20.5 -32.5q16 -16 48 -19t65 -3l8 -8l2 -29l-2 -8q-37 4 -80 6t-84 2q-78 0 -141 -6l-12 20q6 23 9 68t9 84l-2 6q-27 -37 -63.5 -71.5t-80.5 -62.5t-94.5 -44.5t-105.5 -16.5 q-63 0 -112.5 23t-82 59.5t-49 86t-16.5 102.5zM221 260q0 -78 45 -124t117 -46q43 0 86 14.5t81 37t68 47t46 47.5q6 10 13 24t9 35l10 205h-18q-82 0 -164 -9.5t-146.5 -36t-105.5 -73.5t-41 -121zM336 1171l6 15l369 207q35 -2 54 -22.5t19 -49.5q0 -20 -8 -39l-414 -158 l-14 6z" />
<glyph unicode="&#xe2;" horiz-adv-x="1015" d="M76 248q0 76 34.5 132t92.5 93q53 33 125.5 53.5t141.5 29.5t124 12t74 3h28q-2 76 -8 120t-16 73q-23 61 -78 89t-133 28q-33 0 -71 -6.5t-71.5 -22.5t-58 -46t-29.5 -77l-8 -6h-45l-18 151l6 13q10 12 43 26.5t77 27.5t98 22.5t108 9.5q74 0 137 -19.5t109 -58.5 t73 -97.5t27 -135.5q0 -86 -1 -153t-3.5 -123t-3.5 -110.5t-1 -115.5q4 -47 10.5 -68.5t20.5 -32.5q16 -16 48 -19t65 -3l8 -8l2 -29l-2 -8q-37 4 -80 6t-84 2q-78 0 -141 -6l-12 20q6 23 9 68t9 84l-2 6q-27 -37 -63.5 -71.5t-80.5 -62.5t-94.5 -44.5t-105.5 -16.5 q-63 0 -112.5 23t-82 59.5t-49 86t-16.5 102.5zM221 260q0 -78 45 -124t117 -46q43 0 86 14.5t81 37t68 47t46 47.5q6 10 13 24t9 35l10 205h-18q-82 0 -164 -9.5t-146.5 -36t-105.5 -73.5t-41 -121zM242 1161l6 15l225 202h16l226 -202l6 -15l-12 -39l-15 -6l-213 125 l-211 -125l-16 6z" />
<glyph unicode="&#xe3;" horiz-adv-x="1015" d="M76 248q0 76 34.5 132t92.5 93q53 33 125.5 53.5t141.5 29.5t124 12t74 3h28q-2 76 -8 120t-16 73q-23 61 -78 89t-133 28q-33 0 -71 -6.5t-71.5 -22.5t-58 -46t-29.5 -77l-8 -6h-45l-18 151l6 13q10 12 43 26.5t77 27.5t98 22.5t108 9.5q74 0 137 -19.5t109 -58.5 t73 -97.5t27 -135.5q0 -86 -1 -153t-3.5 -123t-3.5 -110.5t-1 -115.5q4 -47 10.5 -68.5t20.5 -32.5q16 -16 48 -19t65 -3l8 -8l2 -29l-2 -8q-37 4 -80 6t-84 2q-78 0 -141 -6l-12 20q6 23 9 68t9 84l-2 6q-27 -37 -63.5 -71.5t-80.5 -62.5t-94.5 -44.5t-105.5 -16.5 q-63 0 -112.5 23t-82 59.5t-49 86t-16.5 102.5zM166 1194q0 14 12 41t37 52.5t59.5 44t77.5 18.5q53 0 134 -9.5t171 -9.5q35 0 70 8.5t64 44.5l24 -16q0 -6 -10 -31.5t-31.5 -53.5t-55.5 -50.5t-83 -22.5q-23 0 -65 3.5t-90 6.5t-95 6t-80 3q-51 0 -71.5 -13.5t-40.5 -37.5 zM221 260q0 -78 45 -124t117 -46q43 0 86 14.5t81 37t68 47t46 47.5q6 10 13 24t9 35l10 205h-18q-82 0 -164 -9.5t-146.5 -36t-105.5 -73.5t-41 -121z" />
<glyph unicode="&#xe4;" horiz-adv-x="1015" d="M76 248q0 76 34.5 132t92.5 93q53 33 125.5 53.5t141.5 29.5t124 12t74 3h28q-2 76 -8 120t-16 73q-23 61 -78 89t-133 28q-33 0 -71 -6.5t-71.5 -22.5t-58 -46t-29.5 -77l-8 -6h-45l-18 151l6 13q10 12 43 26.5t77 27.5t98 22.5t108 9.5q74 0 137 -19.5t109 -58.5 t73 -97.5t27 -135.5q0 -86 -1 -153t-3.5 -123t-3.5 -110.5t-1 -115.5q4 -47 10.5 -68.5t20.5 -32.5q16 -16 48 -19t65 -3l8 -8l2 -29l-2 -8q-37 4 -80 6t-84 2q-78 0 -141 -6l-12 20q6 23 9 68t9 84l-2 6q-27 -37 -63.5 -71.5t-80.5 -62.5t-94.5 -44.5t-105.5 -16.5 q-63 0 -112.5 23t-82 59.5t-49 86t-16.5 102.5zM221 260q0 -78 45 -124t117 -46q43 0 86 14.5t81 37t68 47t46 47.5q6 10 13 24t9 35l10 205h-18q-82 0 -164 -9.5t-146.5 -36t-105.5 -73.5t-41 -121zM246 1282q0 37 24.5 64.5t59.5 27.5q33 0 58.5 -27.5t25.5 -64.5 q0 -39 -26 -64.5t-58 -25.5q-35 0 -59.5 25.5t-24.5 64.5zM567 1282q0 37 23.5 64.5t58.5 27.5t60.5 -27.5t25.5 -64.5q0 -39 -25.5 -64.5t-60.5 -25.5t-58.5 25.5t-23.5 64.5z" />
<glyph unicode="&#xe5;" horiz-adv-x="1015" d="M76 248q0 76 34.5 132t92.5 93q53 33 125.5 53.5t141.5 29.5t124 12t74 3h28q-2 76 -8 120t-16 73q-23 61 -78 89t-133 28q-33 0 -71 -6.5t-71.5 -22.5t-58 -46t-29.5 -77l-8 -6h-45l-18 151l6 13q10 12 43 26.5t77 27.5t98 22.5t108 9.5q74 0 137 -19.5t109 -58.5 t73 -97.5t27 -135.5q0 -86 -1 -153t-3.5 -123t-3.5 -110.5t-1 -115.5q4 -47 10.5 -68.5t20.5 -32.5q16 -16 48 -19t65 -3l8 -8l2 -29l-2 -8q-37 4 -80 6t-84 2q-78 0 -141 -6l-12 20q6 23 9 68t9 84l-2 6q-27 -37 -63.5 -71.5t-80.5 -62.5t-94.5 -44.5t-105.5 -16.5 q-63 0 -112.5 23t-82 59.5t-49 86t-16.5 102.5zM221 260q0 -78 45 -124t117 -46q43 0 86 14.5t81 37t68 47t46 47.5q6 10 13 24t9 35l10 205h-18q-82 0 -164 -9.5t-146.5 -36t-105.5 -73.5t-41 -121zM360 1249q0 57 45 103.5t123 46.5q80 0 125 -48t45 -106q0 -53 -43 -98 t-125 -45q-43 0 -74.5 13t-53 34.5t-32 47.5t-10.5 52zM436 1251q0 -37 26.5 -68.5t67.5 -31.5t66 29.5t25 64.5q0 37 -26 71t-69 34t-66.5 -32t-23.5 -67z" />
<glyph unicode="&#xe6;" horiz-adv-x="1662" d="M76 248q0 76 34.5 132t92.5 93q53 33 125.5 53.5t141.5 29.5t124 12t74 3h28q-2 76 -8 120t-16 73q-23 61 -78 89t-133 28q-33 0 -71 -6.5t-71.5 -22.5t-58 -46t-29.5 -77l-8 -6h-45l-18 151l6 13q10 12 43 26.5t77 27.5t98 22.5t108 9.5q102 0 184 -41t121 -119h8 q59 72 154.5 116t201.5 44q53 0 119 -14.5t127 -54.5t110.5 -112.5t67.5 -191.5l-12 -49l-35 -14q-111 0 -227.5 -2.5t-227.5 -2.5h-243q-2 -14 -2 -27v-26q0 -78 22.5 -148.5t70.5 -123.5t125 -85t185 -32q63 0 135 13.5t133 48.5l23 -13v-37l-21 -22q-49 -39 -139 -71 t-201 -32q-135 0 -238.5 53.5t-168.5 149.5h-8q-72 -92 -174.5 -147.5t-245.5 -55.5q-63 0 -112.5 23t-82 59.5t-49 86t-16.5 102.5zM221 260q0 -78 45 -124t117 -46q43 0 86 14.5t81 37t68 47t46 47.5q6 10 13 24t9 35l10 205h-18q-82 0 -164 -9.5t-146.5 -36t-105.5 -73.5 t-41 -121zM852 616h80q109 0 214 3.5t220 9.5q27 2 36 14t9 29q0 12 -2 22.5t-6 20.5q-23 78 -84.5 122t-155.5 44q-66 0 -119 -21.5t-92 -57.5t-64.5 -84t-35.5 -102z" />
<glyph unicode="&#xe7;" horiz-adv-x="1042" d="M92 471q0 113 41 205t112.5 157.5t167 102.5t203.5 37q98 0 185.5 -24.5t132.5 -49.5l6 -18l-22 -158h-44l-8 6q0 47 -27.5 77t-66.5 46t-83 22.5t-77 6.5q-94 0 -162.5 -34t-113.5 -90.5t-66.5 -129t-21.5 -148.5q0 -78 23.5 -149.5t72.5 -127t123 -88t176 -32.5 q70 0 155 21.5t146 54.5l21 -21l-31 -57q-23 -16 -58.5 -33.5t-80.5 -33t-97.5 -26t-103.5 -10.5l-51 -81q18 4 35.5 6t31.5 2q72 0 117 -42t45 -106q0 -35 -16.5 -65.5t-46 -54t-70.5 -38t-90 -14.5t-98.5 11.5t-88.5 27.5l-2 12l27 48h14q25 -10 63 -17.5t79 -7.5 q45 0 76.5 17.5t31.5 64.5q0 55 -30.5 74.5t-73.5 19.5q-25 0 -51.5 -4t-49.5 -10l-16 22l92 140q-90 12 -168 52t-136 103.5t-92 148.5t-34 185z" />
<glyph unicode="&#xe8;" horiz-adv-x="1075" d="M94 471q0 113 37 205t101.5 157.5t151.5 102.5t187 37q53 0 120 -14.5t128.5 -54.5t110.5 -112.5t67 -191.5l-14 -49l-33 -14q-111 0 -227.5 -2.5t-228.5 -2.5h-242q-2 -14 -2 -27v-26q0 -78 22.5 -148.5t70.5 -123.5t124 -85t184 -32q63 0 136 13.5t135 48.5l20 -13v-37 l-20 -22q-49 -39 -139.5 -71t-200.5 -32q-109 0 -198 36t-153.5 101.5t-100.5 155.5t-36 201zM262 616h80q111 0 215.5 3.5t218.5 9.5q27 2 36 14t9 29q0 12 -2 22.5t-6 20.5q-23 78 -84.5 122t-155.5 44q-66 0 -118 -21.5t-91.5 -57.5t-65.5 -84t-36 -102zM289 1321 q0 29 18.5 49.5t52.5 22.5l369 -207l6 -15l-10 -41l-16 -6l-414 158q-6 20 -6 39z" />
<glyph unicode="&#xe9;" horiz-adv-x="1075" d="M94 471q0 113 37 205t101.5 157.5t151.5 102.5t187 37q53 0 120 -14.5t128.5 -54.5t110.5 -112.5t67 -191.5l-14 -49l-33 -14q-111 0 -227.5 -2.5t-228.5 -2.5h-242q-2 -14 -2 -27v-26q0 -78 22.5 -148.5t70.5 -123.5t124 -85t184 -32q63 0 136 13.5t135 48.5l20 -13v-37 l-20 -22q-49 -39 -139.5 -71t-200.5 -32q-109 0 -198 36t-153.5 101.5t-100.5 155.5t-36 201zM262 616h80q111 0 215.5 3.5t218.5 9.5q27 2 36 14t9 29q0 12 -2 22.5t-6 20.5q-23 78 -84.5 122t-155.5 44q-66 0 -118 -21.5t-91.5 -57.5t-65.5 -84t-36 -102zM395 1171l6 15 l369 207q35 -2 53.5 -22.5t18.5 -49.5q0 -8 -1 -18.5t-5 -20.5l-414 -158l-14 6z" />
<glyph unicode="&#xea;" horiz-adv-x="1075" d="M94 471q0 113 37 205t101.5 157.5t151.5 102.5t187 37q53 0 120 -14.5t128.5 -54.5t110.5 -112.5t67 -191.5l-14 -49l-33 -14q-111 0 -227.5 -2.5t-228.5 -2.5h-242q-2 -14 -2 -27v-26q0 -78 22.5 -148.5t70.5 -123.5t124 -85t184 -32q63 0 136 13.5t135 48.5l20 -13v-37 l-20 -22q-49 -39 -139.5 -71t-200.5 -32q-109 0 -198 36t-153.5 101.5t-100.5 155.5t-36 201zM262 616h80q111 0 215.5 3.5t218.5 9.5q27 2 36 14t9 29q0 12 -2 22.5t-6 20.5q-23 78 -84.5 122t-155.5 44q-66 0 -118 -21.5t-91.5 -57.5t-65.5 -84t-36 -102zM326 1161l4 15 l227 202h14l228 -202l4 -15l-10 -39l-17 -6l-211 125l-213 -125l-16 6z" />
<glyph unicode="&#xeb;" horiz-adv-x="1075" d="M94 471q0 113 37 205t101.5 157.5t151.5 102.5t187 37q53 0 120 -14.5t128.5 -54.5t110.5 -112.5t67 -191.5l-14 -49l-33 -14q-111 0 -227.5 -2.5t-228.5 -2.5h-242q-2 -14 -2 -27v-26q0 -78 22.5 -148.5t70.5 -123.5t124 -85t184 -32q63 0 136 13.5t135 48.5l20 -13v-37 l-20 -22q-49 -39 -139.5 -71t-200.5 -32q-109 0 -198 36t-153.5 101.5t-100.5 155.5t-36 201zM262 616h80q111 0 215.5 3.5t218.5 9.5q27 2 36 14t9 29q0 12 -2 22.5t-6 20.5q-23 78 -84.5 122t-155.5 44q-66 0 -118 -21.5t-91.5 -57.5t-65.5 -84t-36 -102zM315 1282 q0 37 25 64.5t59 27.5q35 0 60.5 -27.5t25.5 -64.5q0 -39 -25.5 -64.5t-60.5 -25.5t-59.5 25.5t-24.5 64.5zM637 1282q0 37 24.5 64.5t59.5 27.5t60.5 -27.5t25.5 -64.5q0 -39 -25.5 -64.5t-60.5 -25.5t-59.5 25.5t-24.5 64.5z" />
<glyph unicode="&#xec;" horiz-adv-x="565" d="M-29 1321q0 29 18.5 49.5t53.5 22.5l371 -207l6 -15l-12 -41l-17 -6l-411 158q-8 18 -9 39zM66 0l2 29l8 8q33 0 64.5 3t47.5 19q16 14 21.5 37t9.5 64q2 33 4 66.5t2 107.5v252v72.5t-1 52t-2 41t-3 39.5q-4 23 -12 40t-14 23q-20 25 -51 30t-64 5l-8 8v29l8 6h37 q35 0 88 1t92 7l72 10l12 -18q-4 -8 -7 -28.5t-4 -44t-2 -46t-1 -35.5q0 -16 -1.5 -31.5t-1.5 -36t-1 -49t-1 -73.5v-230q0 -45 1 -73.5t2.5 -49t2.5 -38t3 -37.5q4 -43 9 -64.5t21 -36.5q16 -14 46 -18t61 -4l10 -10l4 -27l-4 -8q-14 0 -43 2t-61.5 3t-61 2t-43.5 1h-28 q-14 0 -44 -1t-62 -2t-61.5 -3t-43.5 -2z" />
<glyph unicode="&#xed;" horiz-adv-x="565" d="M66 0l2 29l8 8q33 0 64.5 3t47.5 19q16 14 21.5 37t9.5 64q2 33 4 66.5t2 107.5v252v72.5t-1 52t-2 41t-3 39.5q-4 23 -12 40t-14 23q-20 25 -51 30t-64 5l-8 8v29l8 6h37q35 0 88 1t92 7l72 10l12 -18q-4 -8 -7 -28.5t-4 -44t-2 -46t-1 -35.5q0 -16 -1.5 -31.5t-1.5 -36 t-1 -49t-1 -73.5v-230q0 -45 1 -73.5t2.5 -49t2.5 -38t3 -37.5q4 -43 9 -64.5t21 -36.5q16 -14 46 -18t61 -4l10 -10l4 -27l-4 -8q-14 0 -43 2t-61.5 3t-61 2t-43.5 1h-28q-14 0 -44 -1t-62 -2t-61.5 -3t-43.5 -2zM84 1171l6 15l369 207q35 -2 54 -22.5t19 -49.5 q0 -20 -8 -39l-413 -158l-15 6z" />
<glyph unicode="&#xee;" horiz-adv-x="565" d="M33 1161l6 15l225 202h17l225 -202l6 -15l-12 -39l-15 -6l-213 125l-211 -125l-16 6zM66 0l2 29l8 8q33 0 64.5 3t47.5 19q16 14 21.5 37t9.5 64q2 33 4 66.5t2 107.5v252v72.5t-1 52t-2 41t-3 39.5q-4 23 -12 40t-14 23q-20 25 -51 30t-64 5l-8 8v29l8 6h37q35 0 88 1 t92 7l72 10l12 -18q-4 -8 -7 -28.5t-4 -44t-2 -46t-1 -35.5q0 -16 -1.5 -31.5t-1.5 -36t-1 -49t-1 -73.5v-230q0 -45 1 -73.5t2.5 -49t2.5 -38t3 -37.5q4 -43 9 -64.5t21 -36.5q16 -14 46 -18t61 -4l10 -10l4 -27l-4 -8q-14 0 -43 2t-61.5 3t-61 2t-43.5 1h-28q-14 0 -44 -1 t-62 -2t-61.5 -3t-43.5 -2z" />
<glyph unicode="&#xef;" horiz-adv-x="565" d="M27 1282q0 37 24.5 64.5t59.5 27.5t60.5 -27.5t25.5 -64.5q0 -39 -26 -64.5t-60 -25.5q-35 0 -59.5 25.5t-24.5 64.5zM66 0l2 29l8 8q33 0 64.5 3t47.5 19q16 14 21.5 37t9.5 64q2 33 4 66.5t2 107.5v252v72.5t-1 52t-2 41t-3 39.5q-4 23 -12 40t-14 23q-20 25 -51 30 t-64 5l-8 8v29l8 6h37q35 0 88 1t92 7l72 10l12 -18q-4 -8 -7 -28.5t-4 -44t-2 -46t-1 -35.5q0 -16 -1.5 -31.5t-1.5 -36t-1 -49t-1 -73.5v-230q0 -45 1 -73.5t2.5 -49t2.5 -38t3 -37.5q4 -43 9 -64.5t21 -36.5q16 -14 46 -18t61 -4l10 -10l4 -27l-4 -8q-14 0 -43 2t-61.5 3 t-61 2t-43.5 1h-28q-14 0 -44 -1t-62 -2t-61.5 -3t-43.5 -2zM348 1282q0 37 24.5 64.5t59.5 27.5t60.5 -27.5t25.5 -64.5q0 -39 -25.5 -64.5t-60.5 -25.5t-59.5 25.5t-24.5 64.5z" />
<glyph unicode="&#xf0;" horiz-adv-x="1185" d="M94 475q0 100 32 190.5t94.5 159t153.5 108.5t210 40q82 0 167 -33t150 -109l6 3q-4 115 -42 213t-87 178l-225 -90l-43 69l227 94q-14 33 -38.5 59.5t-50 46t-51.5 34t-44 20.5l35 58q147 -41 256 -179l205 82l43 -69l-199 -80q86 -135 131 -310.5t45 -363.5 q0 -123 -25.5 -234.5t-82 -197.5t-148.5 -136.5t-225 -50.5q-129 0 -223.5 43t-153.5 113t-88 159t-29 183zM248 479q0 -76 21.5 -150.5t63.5 -135t105.5 -98.5t147.5 -38q86 0 148.5 38t102.5 98.5t59 136.5t19 153q0 188 -89 294t-248 106q-90 0 -153 -35t-101.5 -92.5 t-57 -130t-18.5 -146.5z" />
<glyph unicode="&#xf1;" horiz-adv-x="1247" d="M66 0l2 29l8 8q33 0 64.5 3t47.5 19q16 14 21.5 37t9.5 64q2 33 4 66.5t2 107.5v252v72.5t-1 52t-2 41t-3 39.5q-4 23 -12 40t-14 23q-20 25 -51 30t-64 5l-8 8v29l8 6h37q35 0 88 1t92 7l72 10l12 -18q-10 -27 -14.5 -73t-6.5 -89l7 -4q53 88 137 147.5t209 59.5 q57 0 114.5 -16.5t105.5 -51.5t79.5 -89t42.5 -128q6 -53 7 -112.5t1 -118.5q0 -74 1 -149t1 -148q4 -47 10 -68.5t19 -32.5q18 -16 50 -19t64 -3l6 -8l5 -29l-5 -8q-35 4 -77.5 6t-83.5 2q-78 0 -142 -6l-14 20q8 27 12 70t6 76q4 86 6.5 169t2.5 138q0 47 -3.5 102.5 t-13.5 96.5q-20 96 -83.5 143t-147.5 47q-68 0 -126.5 -28.5t-99 -70.5t-64.5 -88t-24 -79v-232v-73.5t1 -49t3.5 -38t4.5 -37.5q4 -43 9 -64.5t21 -36.5q16 -14 46 -18t61 -4l10 -10l4 -27l-4 -8q-14 0 -43 2t-61.5 3t-61 2t-43.5 1h-28q-14 0 -44 -1t-62 -2t-61.5 -3 t-43.5 -2zM303 1194q8 27 22.5 55.5t36 50t53 36t74.5 14.5q51 0 89 -4.5t71 -10.5t63.5 -10t69.5 -4q35 0 70 8t63 45l25 -16q-6 -29 -19.5 -56.5t-35 -50t-52 -37t-73.5 -14.5q-82 0 -167 14.5t-151 14.5q-51 0 -71.5 -13.5t-40.5 -37.5z" />
<glyph unicode="&#xf2;" horiz-adv-x="1193" d="M92 475q0 100 35 190.5t99.5 159t157.5 108.5t212 40q121 0 215 -42t158.5 -112.5t98.5 -163t34 -190.5q0 -94 -31 -182t-94.5 -156t-157.5 -109t-219 -41q-129 0 -225 43t-158.5 113t-93.5 159t-31 183zM246 479q0 -76 23.5 -150.5t68.5 -135t110.5 -98.5t149.5 -38 q86 0 151.5 35t108.5 92.5t64.5 130t21.5 150.5q0 74 -23.5 149.5t-68.5 136t-110.5 98.5t-151.5 38q-90 0 -154.5 -36t-106.5 -93.5t-62.5 -131t-20.5 -147.5zM299 1321q0 29 18.5 49.5t53.5 22.5l370 -207l7 -15l-13 -41l-14 -6l-414 158q-8 18 -8 39z" />
<glyph unicode="&#xf3;" horiz-adv-x="1193" d="M92 475q0 100 35 190.5t99.5 159t157.5 108.5t212 40q121 0 215 -42t158.5 -112.5t98.5 -163t34 -190.5q0 -94 -31 -182t-94.5 -156t-157.5 -109t-219 -41q-129 0 -225 43t-158.5 113t-93.5 159t-31 183zM246 479q0 -76 23.5 -150.5t68.5 -135t110.5 -98.5t149.5 -38 q86 0 151.5 35t108.5 92.5t64.5 130t21.5 150.5q0 74 -23.5 149.5t-68.5 136t-110.5 98.5t-151.5 38q-90 0 -154.5 -36t-106.5 -93.5t-62.5 -131t-20.5 -147.5zM430 1171l6 15l369 207q35 -2 54.5 -22.5t19.5 -49.5q0 -20 -9 -39l-413 -158l-15 6z" />
<glyph unicode="&#xf4;" horiz-adv-x="1193" d="M92 475q0 100 35 190.5t99.5 159t157.5 108.5t212 40q121 0 215 -42t158.5 -112.5t98.5 -163t34 -190.5q0 -94 -31 -182t-94.5 -156t-157.5 -109t-219 -41q-129 0 -225 43t-158.5 113t-93.5 159t-31 183zM246 479q0 -76 23.5 -150.5t68.5 -135t110.5 -98.5t149.5 -38 q86 0 151.5 35t108.5 92.5t64.5 130t21.5 150.5q0 74 -23.5 149.5t-68.5 136t-110.5 98.5t-151.5 38q-90 0 -154.5 -36t-106.5 -93.5t-62.5 -131t-20.5 -147.5zM371 1161l6 15l227 202h14l226 -202l6 -15l-10 -39l-17 -6l-213 125l-211 -125l-16 6z" />
<glyph unicode="&#xf5;" horiz-adv-x="1193" d="M92 475q0 100 35 190.5t99.5 159t157.5 108.5t212 40q121 0 215 -42t158.5 -112.5t98.5 -163t34 -190.5q0 -94 -31 -182t-94.5 -156t-157.5 -109t-219 -41q-129 0 -225 43t-158.5 113t-93.5 159t-31 183zM246 479q0 -76 23.5 -150.5t68.5 -135t110.5 -98.5t149.5 -38 q86 0 151.5 35t108.5 92.5t64.5 130t21.5 150.5q0 74 -23.5 149.5t-68.5 136t-110.5 98.5t-151.5 38q-90 0 -154.5 -36t-106.5 -93.5t-62.5 -131t-20.5 -147.5zM258 1194q8 27 22.5 55.5t36 50t53 36t74.5 14.5q51 0 89 -4.5t71 -10.5t63.5 -10t69.5 -4q35 0 70 8t63 45 l25 -16q-6 -29 -19.5 -56.5t-35 -50t-52 -37t-73.5 -14.5q-82 0 -167 14.5t-151 14.5q-51 0 -71.5 -13.5t-40.5 -37.5z" />
<glyph unicode="&#xf6;" horiz-adv-x="1193" d="M92 475q0 100 35 190.5t99.5 159t157.5 108.5t212 40q121 0 215 -42t158.5 -112.5t98.5 -163t34 -190.5q0 -94 -31 -182t-94.5 -156t-157.5 -109t-219 -41q-129 0 -225 43t-158.5 113t-93.5 159t-31 183zM246 479q0 -76 23.5 -150.5t68.5 -135t110.5 -98.5t149.5 -38 q86 0 151.5 35t108.5 92.5t64.5 130t21.5 150.5q0 74 -23.5 149.5t-68.5 136t-110.5 98.5t-151.5 38q-90 0 -154.5 -36t-106.5 -93.5t-62.5 -131t-20.5 -147.5zM350 1282q0 37 24.5 64.5t59.5 27.5t60.5 -27.5t25.5 -64.5q0 -39 -25.5 -64.5t-60.5 -25.5t-59.5 25.5 t-24.5 64.5zM672 1282q0 37 24.5 64.5t59.5 27.5t60.5 -27.5t25.5 -64.5q0 -39 -25.5 -64.5t-60.5 -25.5t-59.5 25.5t-24.5 64.5z" />
<glyph unicode="&#xf7;" horiz-adv-x="1157" d="M156 436l20 107h828l-19 -107h-829zM506 164q0 39 27.5 67.5t68.5 28.5q37 0 66.5 -28.5t29.5 -67.5q0 -41 -29.5 -68.5t-66.5 -27.5q-41 0 -68.5 27.5t-27.5 68.5zM506 813q0 39 27.5 68.5t68.5 29.5q37 0 66.5 -29.5t29.5 -68.5t-29.5 -66.5t-66.5 -27.5 q-41 0 -68.5 27.5t-27.5 66.5z" />
<glyph unicode="&#xf8;" horiz-adv-x="1193" d="M92 475q0 100 35 190.5t99.5 159t157.5 108.5t212 40q90 0 164 -23.5t133 -64.5l68 78l12 6h137l-4 -6l-131 -152q61 -70 94 -159t33 -187q0 -94 -31 -182t-94.5 -156t-157.5 -109t-219 -41q-86 0 -156.5 18.5t-126.5 53.5l-67 -80l-12 -8h-138l4 8l127 146 q-72 72 -105.5 166t-33.5 194zM246 479q0 -68 18.5 -135.5t54.5 -126.5l496 576q-43 43 -99.5 68.5t-125.5 25.5q-90 0 -154.5 -36t-106.5 -93.5t-62.5 -131t-20.5 -147.5zM391 135q41 -37 93.5 -57.5t113.5 -20.5q86 0 151.5 35t108.5 92.5t64.5 130t21.5 150.5 q0 59 -16.5 121.5t-46.5 115.5z" />
<glyph unicode="&#xf9;" horiz-adv-x="1226" d="M39 897v29l6 6h37q35 0 88 1t92 7l72 10l12 -18q-4 -8 -6 -29.5t-4 -46.5t-2 -47.5v-34.5q0 -35 -1 -77t-2 -85t-2 -81.5t-1 -65.5q0 -45 3 -101.5t13 -97.5q20 -96 84 -143t147 -47q63 0 116.5 25.5t93.5 62.5t66 79t34 76v267q0 43 -1 72.5t-2 52t-2 41t-3 39.5 q-4 23 -11.5 40t-13.5 23q-20 25 -51 30t-64 5l-8 8v29l8 6h37q35 0 88 1t90 7l72 10l12 -18q-4 -8 -6 -29.5t-4 -46.5t-2 -47.5v-34.5q0 -16 -1 -30.5t-1 -35t-1 -48t-1 -72.5v-230q0 -45 1 -73.5t2 -49t2 -38t1 -37.5q4 -47 10 -68.5t21 -32.5q16 -16 48 -19t64 -3l9 -8 l4 -29l-4 -8q-37 4 -80 6t-84 2q-78 0 -142 -6l-12 20q6 27 13.5 70t11.5 88l-6 4q-53 -86 -136.5 -142.5t-203.5 -56.5q-59 0 -113.5 13.5t-100.5 44.5t-79 82t-47 129q-10 53 -9.5 111.5t-1.5 117.5q0 27 -1 73t-1 94v89v60q0 23 -10 40t-16 25q-20 23 -51 28t-64 5z M307 1321q0 29 18.5 49.5t53.5 22.5l369 -207l6 -15l-11 -41l-16 -6l-412 158q-8 18 -8 39z" />
<glyph unicode="&#xfa;" horiz-adv-x="1226" d="M39 897v29l6 6h37q35 0 88 1t92 7l72 10l12 -18q-4 -8 -6 -29.5t-4 -46.5t-2 -47.5v-34.5q0 -35 -1 -77t-2 -85t-2 -81.5t-1 -65.5q0 -45 3 -101.5t13 -97.5q20 -96 84 -143t147 -47q63 0 116.5 25.5t93.5 62.5t66 79t34 76v267q0 43 -1 72.5t-2 52t-2 41t-3 39.5 q-4 23 -11.5 40t-13.5 23q-20 25 -51 30t-64 5l-8 8v29l8 6h37q35 0 88 1t90 7l72 10l12 -18q-4 -8 -6 -29.5t-4 -46.5t-2 -47.5v-34.5q0 -16 -1 -30.5t-1 -35t-1 -48t-1 -72.5v-230q0 -45 1 -73.5t2 -49t2 -38t1 -37.5q4 -47 10 -68.5t21 -32.5q16 -16 48 -19t64 -3l9 -8 l4 -29l-4 -8q-37 4 -80 6t-84 2q-78 0 -142 -6l-12 20q6 27 13.5 70t11.5 88l-6 4q-53 -86 -136.5 -142.5t-203.5 -56.5q-59 0 -113.5 13.5t-100.5 44.5t-79 82t-47 129q-10 53 -9.5 111.5t-1.5 117.5q0 27 -1 73t-1 94v89v60q0 23 -10 40t-16 25q-20 23 -51 28t-64 5z M385 1171l6 15l369 207q35 -2 53 -22.5t18 -49.5q0 -18 -6 -39l-413 -158l-17 6z" />
<glyph unicode="&#xfb;" horiz-adv-x="1226" d="M39 897v29l6 6h37q35 0 88 1t92 7l72 10l12 -18q-4 -8 -6 -29.5t-4 -46.5t-2 -47.5v-34.5q0 -35 -1 -77t-2 -85t-2 -81.5t-1 -65.5q0 -45 3 -101.5t13 -97.5q20 -96 84 -143t147 -47q63 0 116.5 25.5t93.5 62.5t66 79t34 76v267q0 43 -1 72.5t-2 52t-2 41t-3 39.5 q-4 23 -11.5 40t-13.5 23q-20 25 -51 30t-64 5l-8 8v29l8 6h37q35 0 88 1t90 7l72 10l12 -18q-4 -8 -6 -29.5t-4 -46.5t-2 -47.5v-34.5q0 -16 -1 -30.5t-1 -35t-1 -48t-1 -72.5v-230q0 -45 1 -73.5t2 -49t2 -38t1 -37.5q4 -47 10 -68.5t21 -32.5q16 -16 48 -19t64 -3l9 -8 l4 -29l-4 -8q-37 4 -80 6t-84 2q-78 0 -142 -6l-12 20q6 27 13.5 70t11.5 88l-6 4q-53 -86 -136.5 -142.5t-203.5 -56.5q-59 0 -113.5 13.5t-100.5 44.5t-79 82t-47 129q-10 53 -9.5 111.5t-1.5 117.5q0 27 -1 73t-1 94v89v60q0 23 -10 40t-16 25q-20 23 -51 28t-64 5z M352 1161l4 15l228 202h14l227 -202l4 -15l-10 -39l-16 -6l-213 125l-211 -125l-17 6z" />
<glyph unicode="&#xfc;" horiz-adv-x="1226" d="M39 897v29l6 6h37q35 0 88 1t92 7l72 10l12 -18q-4 -8 -6 -29.5t-4 -46.5t-2 -47.5v-34.5q0 -35 -1 -77t-2 -85t-2 -81.5t-1 -65.5q0 -45 3 -101.5t13 -97.5q20 -96 84 -143t147 -47q63 0 116.5 25.5t93.5 62.5t66 79t34 76v267q0 43 -1 72.5t-2 52t-2 41t-3 39.5 q-4 23 -11.5 40t-13.5 23q-20 25 -51 30t-64 5l-8 8v29l8 6h37q35 0 88 1t90 7l72 10l12 -18q-4 -8 -6 -29.5t-4 -46.5t-2 -47.5v-34.5q0 -16 -1 -30.5t-1 -35t-1 -48t-1 -72.5v-230q0 -45 1 -73.5t2 -49t2 -38t1 -37.5q4 -47 10 -68.5t21 -32.5q16 -16 48 -19t64 -3l9 -8 l4 -29l-4 -8q-37 4 -80 6t-84 2q-78 0 -142 -6l-12 20q6 27 13.5 70t11.5 88l-6 4q-53 -86 -136.5 -142.5t-203.5 -56.5q-59 0 -113.5 13.5t-100.5 44.5t-79 82t-47 129q-10 53 -9.5 111.5t-1.5 117.5q0 27 -1 73t-1 94v89v60q0 23 -10 40t-16 25q-20 23 -51 28t-64 5z M344 1282q0 37 24.5 64.5t59.5 27.5t60.5 -27.5t25.5 -64.5q0 -39 -25.5 -64.5t-60.5 -25.5t-59.5 25.5t-24.5 64.5zM666 1282q0 37 24.5 64.5t59.5 27.5t60.5 -27.5t25.5 -64.5q0 -39 -26 -64.5t-60 -25.5q-35 0 -59.5 25.5t-24.5 64.5z" />
<glyph unicode="&#xfd;" horiz-adv-x="1052" d="M-2 903v29l8 8q35 -4 74 -8t72 -4h79q33 0 79 4t87 8l9 -8v-25l-9 -8q-45 -4 -74.5 -23.5t-29.5 -56.5q0 -25 19.5 -87t44 -133t47 -132t30.5 -80l103 -266l96 235q14 35 38.5 94.5t49 127t42 132t17.5 109.5t-32.5 60.5t-73.5 19.5l-8 8v25l8 8q80 -12 149 -12h84 q35 0 67 4t70 8l9 -8v-29l-11 -10q-37 -4 -56 -20.5t-42 -53.5q-18 -33 -41.5 -82t-47.5 -106.5t-47.5 -116.5t-43 -110.5t-32.5 -89.5t-19 -52l-201 -500q-53 -133 -144.5 -197.5t-197.5 -90.5q-20 -4 -36.5 -5t-37.5 -1l-16 4l-4 49l8 10q29 0 54.5 2t50 9t48 23.5 t52.5 45.5q39 41 67.5 87t46.5 93l66 166l-141 371q-8 18 -27.5 67t-44.5 109.5t-50.5 124t-43.5 112.5q-20 49 -37 78q-20 33 -46 51.5t-69 22.5zM399 1171l7 15l368 207q35 -2 53.5 -22.5t18.5 -49.5q0 -8 -1 -18.5t-5 -20.5l-414 -158l-14 6z" />
<glyph unicode="&#xfe;" horiz-adv-x="1189" d="M8 -526l2 30l8 7q33 0 65 4t48 20q16 12 21.5 34.5t9.5 63.5q2 27 3 52.5t2 60.5t1 82v115v1042v137.5t-1 96.5t-2 72.5t-3 64.5q-2 23 -11.5 39t-15.5 24q-20 23 -51 29t-64 6l-8 8v27l8 8h37q35 0 88.5 1t92.5 7l79 11l11 -19q-10 -31 -13 -94q-2 -68 -3 -167 t-2 -195.5t-1 -169v-85.5q59 84 144.5 135.5t189.5 51.5q117 0 202 -41t140 -108.5t82 -154.5t27 -182q0 -139 -43 -236t-110 -157.5t-145.5 -88.5t-150.5 -28q-100 0 -189 45.5t-153 155.5v-188q0 -84 1 -136.5t2 -89t2 -66.5t3 -65q4 -41 9.5 -63.5t21.5 -34.5 q16 -16 46 -20t61 -4l10 -9l4 -28l-4 -6q-14 0 -43 1t-61.5 2t-61.5 2t-43 1h-29q-14 0 -44 -1t-61.5 -2t-61 -2t-44.5 -1zM303 367q6 -33 26.5 -80t60.5 -91t99.5 -75t139.5 -31t138 34t96 89t56.5 125.5t18.5 144.5q0 70 -18.5 137.5t-56.5 120t-95 84t-135 31.5 t-137.5 -28.5t-101.5 -70.5t-65.5 -87t-25.5 -78v-225z" />
<glyph unicode="&#xff;" horiz-adv-x="1052" d="M-2 903v29l8 8q35 -4 74 -8t72 -4h79q33 0 79 4t87 8l9 -8v-25l-9 -8q-45 -4 -74.5 -23.5t-29.5 -56.5q0 -25 19.5 -87t44 -133t47 -132t30.5 -80l103 -266l96 235q14 35 38.5 94.5t49 127t42 132t17.5 109.5t-32.5 60.5t-73.5 19.5l-8 8v25l8 8q80 -12 149 -12h84 q35 0 67 4t70 8l9 -8v-29l-11 -10q-37 -4 -56 -20.5t-42 -53.5q-18 -33 -41.5 -82t-47.5 -106.5t-47.5 -116.5t-43 -110.5t-32.5 -89.5t-19 -52l-201 -500q-53 -133 -144.5 -197.5t-197.5 -90.5q-20 -4 -36.5 -5t-37.5 -1l-16 4l-4 49l8 10q29 0 54.5 2t50 9t48 23.5 t52.5 45.5q39 41 67.5 87t46.5 93l66 166l-141 371q-8 18 -27.5 67t-44.5 109.5t-50.5 124t-43.5 112.5q-20 49 -37 78q-20 33 -46 51.5t-69 22.5zM281 1282q0 37 24.5 64.5t59.5 27.5t60.5 -27.5t25.5 -64.5q0 -39 -26 -64.5t-60 -25.5q-35 0 -59.5 25.5t-24.5 64.5z M602 1282q0 37 24.5 64.5t59.5 27.5t60.5 -27.5t25.5 -64.5q0 -39 -25.5 -64.5t-60.5 -25.5t-59.5 25.5t-24.5 64.5z" />
<glyph unicode="&#x152;" horiz-adv-x="1972" d="M115 659q0 145 40 273.5t121.5 223.5t208.5 150.5t299 55.5q92 0 178.5 -11.5t200.5 -11.5h318q27 0 81 1t109 3.5t99.5 3.5t54.5 1l10 -21l-8 -223h-53l-7 8q-4 47 -11 73.5t-41 39t-102.5 14.5t-191.5 2h-174l-6 -80q-2 -31 -3 -72.5t-2 -87t-1 -85v-66.5v-100 q150 2 234.5 4t113.5 30q12 12 26.5 41t14.5 60l10 8l35 4l8 -4q-4 -45 -7 -90t-3 -92t3 -89t7 -92l-8 -4l-37 4l-8 7q0 33 -13.5 63.5t-27.5 42.5q-29 27 -118 27t-230 2v-199v-120t1 -81.5t3 -65.5t6 -69q2 -39 43 -39h154q123 0 192.5 5.5t107.5 21.5t53 50t30 89l8 8h53 l-39 -260l-14 -20q-10 0 -47 1t-83 3t-93 3t-74 1h-315q-43 0 -94.5 -3t-106.5 -8t-111.5 -8.5t-105.5 -3.5q-172 0 -301 49.5t-215 139.5t-129 216t-43 277zM279 690q0 -158 37.5 -271.5t108.5 -188t170 -110.5t222 -36q49 0 114.5 9t143.5 42q4 31 7 58.5t5.5 60.5t3.5 75 t1 103v416q0 109 -6.5 169t-20.5 101q-25 72 -83 103.5t-179 31.5q-147 0 -247.5 -42t-162 -116.5t-88 -178t-26.5 -226.5z" />
<glyph unicode="&#x153;" horiz-adv-x="1918" d="M92 475q0 100 35 190.5t99.5 159t157.5 108.5t212 40q141 0 250.5 -61.5t165.5 -159.5h8q27 49 68.5 90t94 70.5t112 45t122.5 15.5q53 0 119 -14.5t127 -54.5t110.5 -112.5t67.5 -191.5l-14 -49l-33 -14q-111 0 -227.5 -2.5t-227.5 -2.5h-243q-2 -14 -2 -27v-26 q0 -78 22.5 -148.5t70.5 -123.5t125 -85t185 -32q63 0 135 13.5t133 48.5l21 -13v-37l-19 -22q-49 -39 -139 -71t-201 -32q-131 0 -238.5 55.5t-164.5 151.5h-10q-55 -94 -160.5 -150.5t-253.5 -56.5q-129 0 -225 43t-158.5 113t-93.5 159t-31 183zM246 479 q0 -76 23.5 -150.5t68.5 -135t110.5 -98.5t149.5 -38q86 0 151.5 35t108.5 92.5t64.5 130t21.5 150.5q0 74 -23.5 149.5t-68.5 136t-110.5 98.5t-151.5 38q-90 0 -154.5 -36t-106.5 -93.5t-62.5 -131t-20.5 -147.5zM1108 616h80q109 0 214 3.5t220 9.5q27 2 36 14t9 29 q0 12 -2 22.5t-6 20.5q-23 78 -84.5 122t-155.5 44q-66 0 -119 -21.5t-92 -57.5t-64.5 -84t-35.5 -102z" />
<glyph unicode="&#x178;" horiz-adv-x="1253" d="M-16 1307v36l10 9q49 -6 92 -11.5t90 -5.5h86q47 0 109.5 5.5t120.5 11.5l8 -9v-36l-8 -9q-41 -2 -72 -7t-49 -17q-25 -18 -25 -35q0 -10 7 -24.5t14 -24.5q74 -135 139 -256t143 -254q35 59 75 132t77 141.5t64.5 124t37.5 77.5q4 10 12.5 32.5t8.5 39.5q0 25 -14.5 37 t-36 18t-47 8t-48.5 8l-8 9v36l8 9q59 -10 99.5 -11.5t89.5 -1.5h118q49 0 90.5 2t98.5 11l8 -9v-36l-8 -9q-47 -6 -80 -16t-60.5 -27.5t-52 -46t-55.5 -73.5q-59 -90 -103 -160t-79 -128.5t-62.5 -107.5t-54.5 -96q-8 -12 -18.5 -42t-10.5 -60v-72v-119t1 -75.5t2 -51 t4 -45.5q4 -57 19 -79.5t32 -37.5q16 -14 45.5 -17t62.5 -3l10 -8l7 -37l-4 -8q-14 0 -47 2t-68 4t-67.5 4t-47.5 2h-39q-14 0 -47 -2t-68.5 -4t-68.5 -4t-47 -2l-2 8l4 37l10 8q33 0 62.5 3t46.5 17q16 14 31.5 37t19.5 80q2 14 3 33.5t2 48.5t1 70v102v80q0 57 -16.5 93 t-32.5 65q-31 55 -69 118.5t-79 131t-84 134t-81 128.5q-14 23 -33 44t-33 34q-23 18 -54.5 26t-72.5 12zM387 1626q0 37 24.5 64.5t59.5 27.5q33 0 58.5 -27.5t25.5 -64.5q0 -39 -25.5 -64.5t-58.5 -25.5q-35 0 -59.5 25.5t-24.5 64.5zM709 1626q0 37 23.5 64.5t58.5 27.5 t60.5 -27.5t25.5 -64.5q0 -39 -26 -64.5t-60 -25.5q-35 0 -58.5 25.5t-23.5 64.5z" />
<glyph unicode="&#x2c6;" horiz-adv-x="479" d="M0 1161l6 15l225 202h17l225 -202l6 -15l-12 -39l-14 -6l-213 125l-213 -125l-15 6z" />
<glyph unicode="&#x2dc;" horiz-adv-x="636" d="M0 1194q8 27 22.5 55.5t36 50t53 36t74.5 14.5q51 0 89 -4.5t71 -10.5t63.5 -10t69.5 -4q35 0 70 8t63 45l25 -16q-6 -29 -19.5 -56.5t-35 -50t-52 -37t-73.5 -14.5q-82 0 -167 14.5t-151 14.5q-51 0 -71.5 -13.5t-40.5 -37.5z" />
<glyph unicode="&#x2000;" horiz-adv-x="868" />
<glyph unicode="&#x2001;" horiz-adv-x="1737" />
<glyph unicode="&#x2002;" horiz-adv-x="868" />
<glyph unicode="&#x2003;" horiz-adv-x="1737" />
<glyph unicode="&#x2004;" horiz-adv-x="579" />
<glyph unicode="&#x2005;" horiz-adv-x="434" />
<glyph unicode="&#x2006;" horiz-adv-x="289" />
<glyph unicode="&#x2007;" horiz-adv-x="289" />
<glyph unicode="&#x2008;" horiz-adv-x="217" />
<glyph unicode="&#x2009;" horiz-adv-x="347" />
<glyph unicode="&#x200a;" horiz-adv-x="96" />
<glyph unicode="&#x2010;" horiz-adv-x="964" d="M137 436l19 107h673l-20 -107h-672z" />
<glyph unicode="&#x2011;" horiz-adv-x="964" d="M137 436l19 107h673l-20 -107h-672z" />
<glyph unicode="&#x2012;" horiz-adv-x="964" d="M137 436l19 107h673l-20 -107h-672z" />
<glyph unicode="&#x2013;" horiz-adv-x="1122" d="M137 436l21 107h827l-18 -107h-830z" />
<glyph unicode="&#x2014;" horiz-adv-x="1609" d="M137 436l21 107h1315l-19 -107h-1317z" />
<glyph unicode="&#x2018;" horiz-adv-x="387" d="M111 1235q0 47 19.5 93t46 84t56 65.5t50.5 38.5h12l12 -13v-8q-29 -59 -38 -106.5t-9 -73.5q0 -23 11.5 -45.5t11.5 -55.5q0 -16 -12.5 -29.5t-30 -21.5t-39 -12t-39.5 -4q-16 0 -26.5 9t-15.5 23.5t-7 29t-2 26.5z" />
<glyph unicode="&#x2019;" horiz-adv-x="360" d="M115 1159v8q29 59 38 106.5t9 74.5q0 23 -11.5 45t-11.5 55q0 16 12.5 29.5t30 21.5t39 12.5t39.5 4.5q16 0 26.5 -9.5t15.5 -24t7 -28.5t2 -27q0 -47 -19.5 -93t-46 -84t-56 -65.5t-50.5 -37.5h-12z" />
<glyph unicode="&#x201a;" horiz-adv-x="436" d="M104 -178q29 59 38.5 106t9.5 74q0 23 -11.5 45.5t-11.5 54.5q0 16 12.5 29.5t29.5 22t38.5 12.5t40.5 4q16 0 26.5 -9t15.5 -23.5t7 -29t2 -26.5q0 -47 -19.5 -93t-46 -84t-56 -65.5t-50.5 -38.5h-12l-13 13v8z" />
<glyph unicode="&#x201c;" horiz-adv-x="698" d="M111 1235q0 47 19.5 93t46 84t56 65.5t50.5 38.5h12l12 -13v-8q-29 -59 -38 -106.5t-9 -73.5q0 -23 11.5 -45.5t11.5 -55.5q0 -16 -12.5 -29.5t-30 -21.5t-39 -12t-39.5 -4q-16 0 -26.5 9t-15.5 23.5t-7 29t-2 26.5zM422 1235q0 47 19.5 93t46 84t56 65.5t50.5 38.5h12 l12 -13v-8q-29 -59 -38 -106.5t-9 -73.5q0 -23 11.5 -45.5t11.5 -55.5q0 -16 -12.5 -29.5t-29.5 -21.5t-38.5 -12t-40.5 -4q-16 0 -26.5 9t-15.5 23.5t-7 29t-2 26.5z" />
<glyph unicode="&#x201d;" horiz-adv-x="671" d="M115 1159v8q29 59 38 106.5t9 74.5q0 23 -11.5 45t-11.5 55q0 16 12.5 29.5t30 21.5t39 12.5t39.5 4.5q16 0 26.5 -9.5t15.5 -24t7 -28.5t2 -27q0 -47 -19.5 -93t-46 -84t-56 -65.5t-50.5 -37.5h-12zM426 1159v8q29 59 38 106.5t9 74.5q0 23 -11 45t-11 55q0 16 12 29.5 t29.5 21.5t39 12.5t39.5 4.5q16 0 26.5 -9.5t15.5 -24t7.5 -28.5t2.5 -27q0 -47 -19.5 -93t-46.5 -84t-56.5 -65.5t-49.5 -37.5h-13z" />
<glyph unicode="&#x201e;" horiz-adv-x="765" d="M104 -178q29 59 38.5 106t9.5 74q0 23 -11.5 45.5t-11.5 54.5q0 16 12.5 29.5t29.5 22t38.5 12.5t40.5 4q16 0 26.5 -9t15.5 -23.5t7 -29t2 -26.5q0 -47 -19.5 -93t-46 -84t-56 -65.5t-50.5 -38.5h-12l-13 13v8zM434 -178q29 59 38 106t9 74q0 23 -11 45.5t-11 54.5 q0 16 12 29.5t29.5 22t39 12.5t40.5 4q16 0 26 -9t15.5 -23.5t7.5 -29t2 -26.5q0 -47 -19.5 -93t-46 -84t-56.5 -65.5t-50 -38.5h-13l-12 13v8z" />
<glyph unicode="&#x2022;" horiz-adv-x="667" d="M195 498q0 55 39.5 98t99.5 43q27 0 52.5 -11.5t45 -32t30.5 -46t11 -51.5q0 -59 -43 -98.5t-96 -39.5q-59 0 -99 39.5t-40 98.5z" />
<glyph unicode="&#x2026;" horiz-adv-x="1218" d="M127 72q0 39 26.5 68.5t67.5 29.5q39 0 68.5 -29.5t29.5 -68.5t-29.5 -67t-68.5 -28q-41 0 -67.5 28t-26.5 67zM514 72q0 39 27.5 68.5t66.5 29.5t69 -29.5t30 -68.5t-30 -67t-69 -28t-66.5 28t-27.5 67zM901 72q0 39 27.5 68.5t66.5 29.5t69 -29.5t30 -68.5t-30 -67 t-69 -28t-66.5 28t-27.5 67z" />
<glyph unicode="&#x202f;" horiz-adv-x="347" />
<glyph unicode="&#x2039;" horiz-adv-x="618" d="M96 492q51 63 91 114t72 93t57.5 79t50.5 76l14 8h119l10 -20q-90 -90 -155.5 -173t-131.5 -177q66 -92 131.5 -175.5t155.5 -173.5l-10 -20h-119l-14 8q-25 39 -50.5 76t-57.5 79t-72 92t-91 114z" />
<glyph unicode="&#x203a;" horiz-adv-x="618" d="M109 143q88 90 153.5 173t130.5 176q-66 94 -131 177t-153 173l8 20h119l16 -8q25 -39 50.5 -76t57 -79t71.5 -93t91 -114q-51 -63 -91 -113.5t-71.5 -92.5t-57.5 -79t-50 -76l-16 -8h-119z" />
<glyph unicode="&#x205f;" horiz-adv-x="434" />
<glyph unicode="&#x20ac;" horiz-adv-x="1292" d="M80 539l14 90h144v108h-158l16 90h154q20 115 67.5 213.5t120 170t166.5 111.5t209 40q31 0 71 -3t84 -11.5t90 -21.5t89 -34l4 -18l-31 -187h-57l-6 9q-6 51 -28.5 81.5t-56.5 47t-76 22.5t-83 6q-96 0 -155.5 -22.5t-106.5 -69.5q-59 -59 -95 -144t-53 -190h568 l-17 -90h-561v-108h543l-16 -90h-519q14 -113 53.5 -198t95.5 -142.5t129 -86t157 -28.5q33 0 74.5 5t85.5 18.5t88 35t83 56.5l17 -23l-41 -92q-80 -55 -165 -81t-171 -26q-111 0 -207 40t-170 114t-122 177.5t-64 230.5h-164z" />
<glyph unicode="&#x2122;" horiz-adv-x="1603" d="M174 1223v114l8 13q6 -4 30 -6.5t50.5 -4.5t52 -2h35.5h92h35t51.5 2t49 4.5t28.5 6.5l6 -7l9 -120l-41 2q-6 37 -23 45q-8 4 -26.5 7t-81.5 3h-9q0 -25 -1 -55.5t-1 -85.5v-174q0 -55 3 -88t12.5 -49.5t25 -20.5t39.5 -4l4 -37q-6 0 -18 1t-27.5 1t-28 1t-18.5 1h-72 q-12 0 -43.5 -2t-44.5 -2l4 37q29 0 45.5 6t23.5 22.5t9 45t2 71.5v191q0 53 -1 85.5t-3 55.5h-8q-68 0 -85 -3t-24 -7q-18 -8 -24 -45zM668 766l6 37q39 0 55 28.5t23 116.5l12 191q4 57 5 82.5t1 44.5q0 27 -8 34t-25 7q-10 0 -16 -1t-16 -1l-5 38q6 0 19.5 -1t28 -2 l29 -2t20.5 -1h39q6 0 26.5 1t30.5 5q-2 0 15.5 -57t43 -134t53 -154.5t46.5 -118.5q4 6 28.5 65.5t55 136t57.5 151.5t37 111q8 -6 28 -6h64q12 0 47 3t47 3v-36h-37q-23 0 -27.5 -13.5t-4.5 -62.5v-35.5t4 -56.5l12 -174q4 -55 8 -88t10 -50.5t14.5 -21.5t20.5 -4 q6 0 12.5 1t14.5 1l6 -37q-12 0 -47 2t-47 2h-35q-6 0 -19.5 -1t-29 -1t-27.5 -1t-18 -1l4 37q27 0 44 11t17 46q0 14 -2 37t-4 51l-20 303q-10 -23 -34 -82t-51.5 -131.5t-54 -142.5t-45.5 -113h-82l-161 467q0 -16 -3.5 -38.5t-7.5 -71.5l-10 -174q-4 -49 -5 -65.5 t-1 -27.5q0 -27 4 -41t11 -20t17.5 -7t22.5 -1l6 -37q-12 0 -40.5 2t-41.5 2h-32q-6 0 -18.5 -1t-27 -1t-25.5 -1t-17 -1z" />
<glyph unicode="&#xe000;" horiz-adv-x="942" d="M0 0v942h942v-942h-942z" />
</font>
</defs>
</svg>
